<?xml version="1.0" encoding="UTF-8" ?>
<!DOCTYPE svg PUBLIC "-//W3C//DTD SVG 1.1//EN" "http://www.w3.org/Graphics/SVG/1.1/DTD/svg11.dtd">
<svg width="1000pt" height="1000pt" viewBox="0 0 1000 1000" version="1.1" xmlns="http://www.w3.org/2000/svg">
<path fill="#ffffff" d=" M 0.00 0.00 L 463.48 0.00 C 465.37 0.31 467.27 0.69 469.15 1.11 C 459.61 1.23 450.08 2.01 440.63 3.32 C 361.65 12.77 285.08 41.53 219.34 86.30 C 162.72 124.62 114.11 174.72 77.65 232.55 C 16.59 329.21 -10.46 447.22 4.06 560.74 C 16.78 665.08 63.54 764.90 135.48 841.51 C 146.84 853.16 158.22 864.83 170.50 875.53 C 221.13 920.03 280.93 954.01 345.03 974.86 C 403.84 994.07 466.22 1002.49 528.00 999.06 C 575.56 996.16 622.77 986.81 667.65 970.71 C 738.80 945.48 804.08 903.86 857.00 850.01 C 911.73 794.50 953.02 725.89 976.53 651.58 C 987.71 616.67 994.97 580.53 998.30 544.03 C 998.54 538.42 999.25 532.86 1000.00 527.31 L 1000.00 1000.00 L 0.00 1000.00 L 0.00 0.00 Z" />
<path fill="#e67818" d=" M 463.48 0.00 L 527.27 0.00 C 532.83 0.67 538.40 1.44 544.02 1.63 C 627.74 9.09 709.53 37.86 779.31 84.77 C 807.55 103.91 834.13 125.65 857.74 150.31 C 908.20 201.59 946.92 264.19 971.17 331.87 C 987.78 378.07 997.09 426.73 1000.00 475.70 L 1000.00 527.31 C 999.25 532.86 998.54 538.42 998.30 544.03 C 994.97 580.53 987.71 616.67 976.53 651.58 C 953.02 725.89 911.73 794.50 857.00 850.01 C 804.08 903.86 738.80 945.48 667.65 970.71 C 622.77 986.81 575.56 996.16 528.00 999.06 C 466.22 1002.49 403.84 994.07 345.03 974.86 C 280.93 954.01 221.13 920.03 170.50 875.53 C 158.22 864.83 146.84 853.16 135.48 841.51 C 63.54 764.90 16.78 665.08 4.06 560.74 C -10.46 447.22 16.59 329.21 77.65 232.55 C 114.11 174.72 162.72 124.62 219.34 86.30 C 285.08 41.53 361.65 12.77 440.63 3.32 C 450.08 2.01 459.61 1.23 469.15 1.11 C 467.27 0.69 465.37 0.31 463.48 0.00 Z" />
<path fill="#ffffff" d=" M 527.27 0.00 L 1000.00 0.00 L 1000.00 475.70 C 997.09 426.73 987.78 378.07 971.17 331.87 C 946.92 264.19 908.20 201.59 857.74 150.31 C 834.13 125.65 807.55 103.91 779.31 84.77 C 709.53 37.86 627.74 9.09 544.02 1.63 C 538.40 1.44 532.83 0.67 527.27 0.00 Z" />
<path fill="#c1c1c1" d=" M 464.44 17.62 C 483.57 15.97 502.81 16.36 522.00 16.62 C 531.74 17.54 541.54 17.67 551.23 19.14 C 575.39 21.34 599.24 26.18 622.75 32.10 C 632.75 34.56 642.50 37.89 652.34 40.92 C 659.56 43.05 666.63 45.64 673.62 48.42 C 684.29 52.95 695.28 56.75 705.54 62.20 C 741.30 78.66 774.75 99.94 805.34 124.67 C 815.77 133.53 826.46 142.14 836.02 151.97 C 849.67 165.36 863.14 179.02 874.79 194.23 C 897.44 221.61 916.54 251.85 932.46 283.60 C 947.31 312.29 958.44 342.81 967.04 373.92 C 975.07 405.38 981.15 437.48 982.70 469.96 C 983.77 478.94 983.49 487.98 983.60 497.00 C 984.03 528.11 980.78 559.19 975.14 589.76 C 970.77 612.30 965.33 634.70 957.52 656.32 C 942.02 702.68 918.85 746.42 889.78 785.69 C 879.71 800.39 867.74 813.66 855.97 827.00 C 841.53 841.89 826.87 856.62 810.90 869.89 C 798.89 880.37 785.84 889.56 772.98 898.95 C 740.01 920.91 704.70 939.51 667.51 953.24 C 631.26 966.60 593.41 975.54 555.04 980.01 C 542.06 981.31 529.06 982.79 516.00 982.60 C 500.11 982.53 484.18 983.18 468.33 981.96 C 424.35 979.55 380.98 969.82 339.39 955.53 C 308.35 944.15 278.04 930.47 249.85 913.13 C 230.53 901.54 212.05 888.57 194.62 874.30 C 188.92 868.97 182.53 864.47 176.81 859.18 C 170.33 853.67 164.57 847.42 158.55 841.45 C 143.58 827.03 130.02 811.20 117.28 794.80 C 106.27 779.30 94.50 764.24 85.46 747.46 C 81.20 740.55 77.18 733.51 73.59 726.24 C 69.09 718.53 65.08 710.57 61.60 702.36 C 35.71 646.79 20.60 586.22 17.56 524.99 C 17.21 498.81 16.59 472.51 19.73 446.47 C 23.16 416.14 29.41 386.14 38.66 357.05 C 44.60 335.43 53.68 314.87 62.54 294.33 C 86.86 243.46 119.28 196.17 159.91 156.92 C 174.35 141.90 190.27 128.43 206.69 115.66 C 224.56 102.14 243.17 89.52 262.88 78.82 C 286.53 65.10 311.63 54.02 337.25 44.54 C 378.26 30.25 421.07 20.69 464.44 17.62 Z" />
<path fill="#ffffff" d=" M 469.42 37.50 C 558.08 31.49 648.23 51.88 725.81 95.14 C 784.52 127.71 835.83 173.42 875.19 227.80 C 914.07 281.50 941.35 343.57 954.40 408.58 C 968.40 477.64 966.18 549.92 948.01 618.00 C 930.02 686.34 896.22 750.47 849.76 803.74 C 804.23 855.97 746.83 897.80 683.17 925.16 C 638.68 944.23 591.23 956.52 543.01 960.91 C 473.90 967.51 403.39 957.85 338.37 933.59 C 275.31 910.13 217.38 872.80 170.32 824.67 C 120.50 774.17 82.68 711.96 60.43 644.61 C 47.67 605.94 40.02 565.59 37.76 524.93 C 33.95 456.49 45.87 387.29 71.88 323.89 C 93.87 269.77 126.45 220.05 167.02 178.03 C 209.63 134.01 261.03 98.51 317.33 74.32 C 365.44 53.51 417.14 41.07 469.42 37.50 Z" />
<path fill="#e67817" d=" M 249.65 149.66 C 320.16 99.19 406.22 70.27 493.01 69.31 C 608.66 66.76 724.69 113.62 805.66 196.34 C 855.80 246.33 892.67 309.27 913.02 377.01 C 913.91 380.18 915.20 383.28 915.54 386.58 C 915.48 397.44 917.38 408.20 917.63 419.05 C 918.01 434.18 918.52 449.34 917.61 464.46 C 917.33 471.50 916.61 478.51 916.58 485.56 C 914.78 496.31 913.92 507.20 912.03 517.94 C 910.58 525.53 909.80 533.22 908.61 540.86 C 906.69 549.31 904.61 557.73 902.14 566.04 C 900.10 571.51 898.25 577.04 896.84 582.71 C 892.62 598.04 885.80 612.52 881.65 627.87 C 878.80 632.96 876.68 638.39 874.52 643.79 C 867.67 655.44 862.79 668.12 855.58 679.57 C 849.20 691.85 841.07 703.06 833.71 714.74 C 818.97 735.35 803.39 755.45 785.64 773.58 C 776.75 783.66 766.67 792.57 757.09 801.96 C 746.02 810.55 735.80 820.20 724.40 828.38 C 716.66 833.76 709.42 840.00 700.76 843.91 C 708.31 834.30 715.14 824.02 719.58 812.58 C 737.19 769.43 746.15 723.40 753.61 677.58 C 758.75 649.39 764.76 621.32 772.70 593.77 C 774.79 586.35 777.79 579.24 779.99 571.86 C 776.94 573.02 773.97 574.35 770.95 575.58 C 772.25 571.65 773.59 567.73 774.79 563.77 C 767.68 566.38 762.26 571.95 757.85 577.92 C 750.03 588.62 744.15 600.58 738.63 612.59 C 723.71 646.03 712.08 680.79 700.23 715.40 C 694.67 731.34 689.34 747.39 682.92 763.02 C 677.28 776.58 669.63 789.68 658.50 799.47 C 648.82 808.02 635.91 812.79 623.00 812.54 C 604.84 812.51 587.61 805.45 571.63 797.40 C 538.41 780.38 508.95 757.13 476.92 738.11 C 469.86 733.97 462.71 729.94 455.13 726.81 C 456.45 728.82 457.80 730.82 459.18 732.80 C 464.18 741.54 471.46 748.62 477.52 756.59 C 489.26 770.98 499.68 786.38 511.09 801.02 C 522.14 815.72 533.44 830.41 547.11 842.79 C 554.36 849.11 562.03 855.14 570.84 859.14 C 583.69 864.88 596.67 870.81 610.66 873.12 C 620.72 875.05 631.02 874.95 641.20 874.32 C 635.08 875.35 628.86 875.49 622.67 875.62 C 629.01 876.18 635.39 876.28 641.75 875.98 C 641.25 877.07 640.77 878.17 640.29 879.28 C 637.19 880.50 634.10 881.74 631.08 883.14 C 623.27 886.71 615.56 890.52 607.45 893.35 C 596.47 897.14 585.76 901.77 574.43 904.47 C 561.10 909.14 547.23 911.85 533.54 915.26 C 516.73 917.62 500.02 920.70 483.09 922.12 C 466.04 924.10 448.87 924.16 431.74 924.57 C 422.21 923.58 412.85 921.25 403.51 919.18 C 326.29 901.47 254.03 862.07 197.88 806.12 C 125.37 735.01 79.62 637.35 71.29 536.14 C 70.07 527.15 70.31 518.05 70.12 508.99 C 70.19 492.65 69.69 476.25 71.59 459.99 C 78.35 386.53 104.38 314.91 146.44 254.30 C 174.43 213.78 209.57 178.27 249.65 149.66 Z" />
<path fill="#e8a060" d=" M 523.85 79.75 C 525.46 79.46 527.09 79.29 528.73 79.14 C 527.99 80.79 527.20 82.41 526.45 84.06 C 530.52 84.41 534.58 84.99 538.63 85.58 C 531.62 87.53 524.71 89.84 517.79 92.08 C 521.13 87.99 524.50 83.92 527.49 79.56 C 526.58 79.61 524.76 79.71 523.85 79.75 Z" />
<path fill="#ffffff" d=" M 514.13 83.26 C 517.34 82.02 520.47 80.52 523.85 79.75 C 524.76 79.71 526.58 79.61 527.49 79.56 C 524.50 83.92 521.13 87.99 517.79 92.08 C 512.02 97.58 507.22 103.99 502.03 110.01 C 473.36 144.21 445.84 179.38 419.17 215.15 C 364.77 288.56 313.21 364.40 270.42 445.24 C 251.27 482.03 233.75 519.92 222.13 559.83 C 216.21 580.37 211.98 601.56 211.68 623.00 C 211.62 640.62 214.71 658.80 223.90 674.09 C 230.37 684.99 239.97 693.89 250.99 700.07 C 264.15 707.70 280.01 711.68 295.08 708.22 C 310.09 706.86 324.26 701.38 338.47 696.72 C 357.42 690.42 376.18 683.42 395.65 678.84 C 413.13 674.71 430.99 671.93 448.95 671.27 C 484.74 668.10 521.21 673.75 554.36 687.63 C 567.89 692.89 580.67 699.81 593.61 706.33 C 593.47 706.75 593.18 707.57 593.04 707.98 C 590.94 707.47 588.91 706.76 586.91 705.98 C 566.61 698.10 544.76 694.28 523.00 694.54 C 496.70 694.51 470.72 700.11 445.70 707.88 C 426.78 714.00 408.11 720.93 389.81 728.70 C 369.89 737.48 350.81 748.02 331.11 757.25 C 321.06 761.85 310.90 766.44 300.08 768.93 C 278.18 774.02 255.14 774.91 233.09 770.22 C 219.75 767.50 207.56 761.21 195.11 755.94 C 180.38 748.87 166.56 739.51 155.65 727.25 C 142.31 712.63 133.69 694.01 130.13 674.60 C 126.73 657.36 126.77 639.58 128.67 622.16 C 133.86 578.60 149.32 537.03 167.43 497.33 C 185.87 457.09 207.92 418.65 230.73 380.76 C 261.91 329.76 296.72 280.96 335.03 235.07 C 356.26 209.73 378.64 185.35 402.52 162.48 C 414.25 150.80 426.86 140.05 439.49 129.36 C 451.15 120.40 462.75 111.33 475.18 103.45 C 487.51 95.56 500.45 88.53 514.13 83.26 Z" />
<path fill="#efa667" d=" M 458.42 84.53 C 476.93 82.55 495.56 83.29 514.13 83.26 C 500.45 88.53 487.51 95.56 475.18 103.45 C 473.09 102.85 470.98 102.32 468.90 101.72 C 468.24 102.75 467.59 103.78 466.93 104.80 C 462.99 105.45 459.11 106.35 455.25 107.36 C 448.51 102.53 440.13 105.69 432.56 104.54 C 422.73 103.14 412.91 105.31 403.06 104.74 C 398.65 104.31 395.70 108.36 391.74 109.30 C 387.71 108.55 384.19 105.91 380.02 105.76 C 374.92 107.20 370.64 110.59 365.77 112.61 C 366.06 111.05 366.37 109.50 366.68 107.95 C 353.28 111.22 340.18 115.80 327.72 121.71 C 324.66 123.08 321.47 124.15 318.35 125.40 C 312.79 127.55 308.20 131.59 302.57 133.61 C 295.15 136.44 287.72 139.55 281.37 144.41 C 275.66 148.88 269.15 152.13 263.26 156.34 C 253.09 163.33 241.91 169.30 233.70 178.72 C 230.68 182.20 226.66 184.48 222.85 186.95 C 219.21 189.25 216.88 192.95 214.00 196.05 C 210.95 199.36 206.83 201.43 203.74 204.70 C 201.92 206.59 200.38 208.73 198.70 210.74 C 195.11 215.12 190.39 218.42 187.02 222.99 C 181.94 229.64 178.11 237.58 170.73 242.10 C 171.13 244.57 171.55 247.04 171.98 249.51 C 169.94 249.10 167.89 248.73 165.85 248.34 C 165.40 250.40 164.81 252.43 164.33 254.50 C 158.35 259.55 156.55 267.44 155.12 274.78 C 153.08 275.76 150.83 276.47 149.10 277.99 C 148.17 280.41 147.86 283.02 147.17 285.52 C 146.11 289.90 143.32 293.65 142.51 298.11 C 141.72 302.25 141.31 306.55 139.35 310.36 C 137.54 313.96 136.48 317.86 135.85 321.82 C 134.94 327.72 131.79 333.00 131.13 338.95 C 130.65 342.71 130.15 346.48 129.04 350.11 C 126.65 357.86 126.56 366.03 125.31 373.98 C 123.60 389.25 123.86 404.65 124.21 419.98 C 125.09 428.34 125.05 436.92 127.77 444.98 C 131.57 437.66 133.94 429.62 139.04 423.02 C 137.33 430.51 134.01 437.50 131.95 444.89 C 130.91 448.65 129.80 452.43 127.86 455.84 C 123.68 462.50 122.95 470.45 120.70 477.82 C 119.02 483.70 117.21 489.54 115.24 495.33 C 115.60 488.34 116.24 481.32 115.56 474.32 C 114.45 474.67 113.34 475.02 112.24 475.39 C 112.78 471.68 112.65 467.91 111.63 464.31 C 110.19 459.40 111.71 454.26 110.65 449.31 C 109.85 445.24 109.15 441.14 108.51 437.04 C 107.64 431.54 105.69 426.26 105.08 420.70 C 103.90 410.40 102.98 399.82 105.39 389.63 C 106.47 384.75 108.54 380.06 108.74 375.03 C 108.92 370.64 107.28 366.40 107.45 362.02 C 108.20 358.50 110.17 355.34 110.69 351.75 C 112.91 338.02 119.23 325.45 124.82 312.86 C 128.82 303.64 135.40 295.69 138.28 285.98 C 139.84 281.34 142.75 277.35 145.31 273.24 C 162.02 247.90 180.91 223.88 202.73 202.73 C 270.78 135.25 362.83 92.32 458.42 84.53 Z" />
<path fill="#ee9e5a" d=" M 540.44 85.48 C 541.14 85.73 541.84 85.99 542.55 86.25 C 550.84 90.20 560.31 89.18 568.87 92.15 C 576.28 94.62 584.09 96.00 591.04 99.70 C 595.25 101.97 600.06 102.52 604.76 102.81 C 602.98 103.96 601.18 105.08 599.51 106.38 C 604.31 109.28 610.35 109.55 614.75 113.19 C 619.60 117.05 623.75 121.69 628.34 125.84 C 631.27 128.54 635.47 128.70 638.97 130.28 C 640.21 131.38 640.63 133.10 641.43 134.52 C 631.56 135.94 621.70 133.75 611.81 134.13 C 603.76 134.08 595.79 132.87 587.76 132.48 C 578.84 132.07 569.92 131.60 561.00 131.67 C 553.86 131.66 546.73 132.58 539.61 131.75 C 550.75 128.82 562.25 132.05 573.50 130.26 C 576.90 129.76 580.22 128.85 583.55 127.97 C 574.62 120.66 563.85 116.34 553.62 111.26 C 549.60 109.25 545.12 108.57 540.69 108.22 C 540.40 105.90 540.13 103.58 539.89 101.26 C 536.84 103.49 533.28 105.41 529.46 103.95 C 533.04 98.66 537.42 93.79 539.53 87.64 C 539.76 87.10 540.21 86.02 540.44 85.48 Z" />
<path fill="#201a17" d=" M 517.79 92.08 C 524.71 89.84 531.62 87.53 538.63 85.58 C 538.80 85.98 539.14 86.76 539.31 87.16 L 539.29 87.85 C 533.42 93.16 528.53 99.39 523.24 105.25 C 514.63 115.37 505.97 125.47 497.71 135.89 C 444.79 200.72 395.13 268.24 349.23 338.23 C 326.90 372.72 305.46 407.82 286.08 444.06 C 266.37 480.92 248.44 518.94 235.81 558.86 C 228.61 582.56 222.76 607.07 223.25 632.00 C 222.98 651.49 227.63 671.70 239.57 687.43 C 243.06 692.29 247.88 695.95 251.73 700.49 L 250.99 700.07 C 239.97 693.89 230.37 684.99 223.90 674.09 C 214.71 658.80 211.62 640.62 211.68 623.00 C 211.98 601.56 216.21 580.37 222.13 559.83 C 233.75 519.92 251.27 482.03 270.42 445.24 C 313.21 364.40 364.77 288.56 419.17 215.15 C 445.84 179.38 473.36 144.21 502.03 110.01 C 507.22 103.99 512.02 97.58 517.79 92.08 Z" />
<path fill="#ed974d" d=" M 542.55 86.25 C 548.72 85.89 554.80 87.13 560.86 88.18 C 583.09 91.89 605.08 97.22 626.39 104.63 C 630.98 106.20 635.74 107.47 639.93 110.01 C 646.99 114.91 655.43 117.00 662.92 121.09 C 669.23 124.42 675.94 127.05 681.82 131.16 C 687.93 135.74 695.29 138.82 700.02 145.04 C 702.71 148.56 707.09 149.79 711.05 151.27 C 696.62 151.85 683.10 145.37 668.83 144.19 C 661.48 143.31 654.37 141.15 647.08 139.93 C 635.41 137.45 623.48 136.53 611.81 134.13 C 621.70 133.75 631.56 135.94 641.43 134.52 C 640.63 133.10 640.21 131.38 638.97 130.28 C 635.47 128.70 631.27 128.54 628.34 125.84 C 623.75 121.69 619.60 117.05 614.75 113.19 C 610.35 109.55 604.31 109.28 599.51 106.38 C 601.18 105.08 602.98 103.96 604.76 102.81 C 600.06 102.52 595.25 101.97 591.04 99.70 C 584.09 96.00 576.28 94.62 568.87 92.15 C 560.31 89.18 550.84 90.20 542.55 86.25 Z" />
<path fill="#efa767" d=" M 539.29 87.85 L 539.53 87.64 C 537.42 93.79 533.04 98.66 529.46 103.95 C 533.28 105.41 536.84 103.49 539.89 101.26 C 540.13 103.58 540.40 105.90 540.69 108.22 C 545.12 108.57 549.60 109.25 553.62 111.26 C 563.85 116.34 574.62 120.66 583.55 127.97 C 580.22 128.85 576.90 129.76 573.50 130.26 C 562.25 132.05 550.75 128.82 539.61 131.75 C 533.06 132.92 526.38 132.96 519.78 133.64 C 512.40 134.20 505.11 135.60 497.71 135.89 C 505.97 125.47 514.63 115.37 523.24 105.25 C 528.53 99.39 533.42 93.16 539.29 87.85 Z" />
<path fill="#f0ac71" d=" M 468.90 101.72 C 470.98 102.32 473.09 102.85 475.18 103.45 C 462.75 111.33 451.15 120.40 439.49 129.36 C 436.30 129.82 433.21 130.79 430.19 131.89 C 429.04 130.91 427.91 129.93 426.78 128.95 C 423.85 129.72 420.66 130.01 418.05 131.66 C 417.71 132.85 417.58 134.09 417.41 135.32 C 414.95 133.76 412.31 132.07 409.26 132.31 C 400.95 132.52 392.70 133.66 384.43 134.37 C 378.58 134.88 372.60 134.35 366.87 135.90 C 359.88 137.73 353.55 141.45 346.55 143.26 C 338.79 145.30 331.20 147.95 323.35 149.65 C 316.45 151.03 310.84 155.48 304.60 158.44 C 297.45 161.82 290.93 166.34 284.01 170.14 C 276.82 174.44 269.54 178.68 263.05 184.02 C 257.54 188.53 251.37 192.25 246.36 197.37 C 241.71 202.06 236.99 206.72 231.70 210.71 C 224.24 216.26 219.62 224.58 212.86 230.85 C 209.89 233.86 205.78 236.23 204.61 240.57 C 201.82 250.28 193.37 256.66 187.07 264.05 C 184.24 268.82 184.37 274.73 181.76 279.65 C 174.08 295.96 165.07 311.97 161.65 329.87 C 161.18 332.79 162.26 335.64 162.21 338.55 C 159.87 341.98 155.20 344.02 154.67 348.54 C 153.81 355.36 156.06 362.20 154.90 369.01 C 153.94 374.45 149.98 379.13 150.29 384.83 C 150.42 386.14 150.51 387.45 150.57 388.77 C 152.00 386.70 153.29 384.53 154.73 382.46 C 155.44 382.07 156.15 381.67 156.85 381.27 C 154.53 389.79 149.79 397.37 146.55 405.55 C 143.86 411.29 142.28 417.54 139.04 423.02 C 133.94 429.62 131.57 437.66 127.77 444.98 C 125.05 436.92 125.09 428.34 124.21 419.98 C 123.86 404.65 123.60 389.25 125.31 373.98 C 126.56 366.03 126.65 357.86 129.04 350.11 C 130.15 346.48 130.65 342.71 131.13 338.95 C 131.79 333.00 134.94 327.72 135.85 321.82 C 136.48 317.86 137.54 313.96 139.35 310.36 C 141.31 306.55 141.72 302.25 142.51 298.11 C 143.32 293.65 146.11 289.90 147.17 285.52 C 147.86 283.02 148.17 280.41 149.10 277.99 C 150.83 276.47 153.08 275.76 155.12 274.78 C 156.55 267.44 158.35 259.55 164.33 254.50 C 164.81 252.43 165.40 250.40 165.85 248.34 C 167.89 248.73 169.94 249.10 171.98 249.51 C 171.55 247.04 171.13 244.57 170.73 242.10 C 178.11 237.58 181.94 229.64 187.02 222.99 C 190.39 218.42 195.11 215.12 198.70 210.74 C 200.38 208.73 201.92 206.59 203.74 204.70 C 206.83 201.43 210.95 199.36 214.00 196.05 C 216.88 192.95 219.21 189.25 222.85 186.95 C 226.66 184.48 230.68 182.20 233.70 178.72 C 241.91 169.30 253.09 163.33 263.26 156.34 C 269.15 152.13 275.66 148.88 281.37 144.41 C 287.72 139.55 295.15 136.44 302.57 133.61 C 308.20 131.59 312.79 127.55 318.35 125.40 C 321.47 124.15 324.66 123.08 327.72 121.71 C 340.18 115.80 353.28 111.22 366.68 107.95 C 366.37 109.50 366.06 111.05 365.77 112.61 C 370.64 110.59 374.92 107.20 380.02 105.76 C 384.19 105.91 387.71 108.55 391.74 109.30 C 395.70 108.36 398.65 104.31 403.06 104.74 C 412.91 105.31 422.73 103.14 432.56 104.54 C 440.13 105.69 448.51 102.53 455.25 107.36 C 459.11 106.35 462.99 105.45 466.93 104.80 C 467.59 103.78 468.24 102.75 468.90 101.72 Z" />
<path fill="#ec8f3e" d=" M 639.93 110.01 C 646.97 111.11 653.38 114.37 659.87 117.14 C 679.54 125.71 698.60 135.71 716.58 147.42 C 726.18 153.35 735.09 160.32 743.63 167.67 C 737.78 167.73 732.74 164.51 727.36 162.73 C 713.49 158.15 699.67 153.41 685.65 149.33 C 679.99 147.80 674.17 146.70 668.83 144.19 C 683.10 145.37 696.62 151.85 711.05 151.27 C 707.09 149.79 702.71 148.56 700.02 145.04 C 695.29 138.82 687.93 135.74 681.82 131.16 C 675.94 127.05 669.23 124.42 662.92 121.09 C 655.43 117.00 646.99 114.91 639.93 110.01 Z" />
<path fill="#f2b581" d=" M 418.05 131.66 C 420.66 130.01 423.85 129.72 426.78 128.95 C 427.91 129.93 429.04 130.91 430.19 131.89 C 433.21 130.79 436.30 129.82 439.49 129.36 C 426.86 140.05 414.25 150.80 402.52 162.48 C 398.49 161.25 394.77 163.79 391.15 165.18 C 342.63 185.13 297.48 213.37 258.56 248.57 C 219.62 283.82 186.69 325.78 162.34 372.34 C 160.57 375.32 159.63 379.05 156.85 381.27 C 156.15 381.67 155.44 382.07 154.73 382.46 C 153.29 384.53 152.00 386.70 150.57 388.77 C 150.51 387.45 150.42 386.14 150.29 384.83 C 149.98 379.13 153.94 374.45 154.90 369.01 C 156.06 362.20 153.81 355.36 154.67 348.54 C 155.20 344.02 159.87 341.98 162.21 338.55 C 162.26 335.64 161.18 332.79 161.65 329.87 C 165.07 311.97 174.08 295.96 181.76 279.65 C 184.37 274.73 184.24 268.82 187.07 264.05 C 193.37 256.66 201.82 250.28 204.61 240.57 C 205.78 236.23 209.89 233.86 212.86 230.85 C 219.62 224.58 224.24 216.26 231.70 210.71 C 236.99 206.72 241.71 202.06 246.36 197.37 C 251.37 192.25 257.54 188.53 263.05 184.02 C 269.54 178.68 276.82 174.44 284.01 170.14 C 290.93 166.34 297.45 161.82 304.60 158.44 C 310.84 155.48 316.45 151.03 323.35 149.65 C 331.20 147.95 338.79 145.30 346.55 143.26 C 353.55 141.45 359.88 137.73 366.87 135.90 C 372.60 134.35 378.58 134.88 384.43 134.37 C 392.70 133.66 400.95 132.52 409.26 132.31 C 412.31 132.07 414.95 133.76 417.41 135.32 C 417.58 134.09 417.71 132.85 418.05 131.66 Z" />
<path fill="#ffffff" d=" M 641.65 250.38 C 646.51 249.35 651.54 249.36 656.41 250.34 C 656.45 252.94 656.58 255.66 655.39 258.05 C 647.52 273.93 637.04 288.30 626.67 302.61 C 615.73 317.73 606.00 333.68 596.91 349.97 C 575.91 387.44 554.52 424.72 535.15 463.07 C 526.16 481.25 517.14 499.52 510.70 518.79 C 508.49 526.00 505.92 533.74 507.81 541.30 C 510.19 545.85 514.78 549.03 516.26 554.12 C 517.08 556.33 515.39 558.48 513.82 559.86 C 509.39 563.35 503.92 565.16 498.60 566.78 C 487.06 570.19 474.67 571.62 462.83 568.90 C 458.49 567.65 454.35 564.66 452.94 560.21 C 451.89 556.59 451.44 552.73 452.20 549.02 C 452.94 542.07 455.87 535.70 457.89 529.09 C 451.93 530.69 448.05 535.73 443.28 539.25 C 430.33 549.38 414.59 556.56 398.00 557.29 C 393.94 557.51 389.88 556.93 385.98 555.86 C 379.48 553.22 374.37 547.66 372.02 541.09 C 368.46 531.92 369.22 521.90 369.58 512.28 C 371.35 495.87 376.50 480.01 383.08 464.94 C 392.35 444.52 404.47 425.29 419.71 408.80 C 430.92 396.05 444.48 385.30 459.62 377.58 C 472.57 370.92 487.36 367.53 501.92 368.80 C 509.24 369.79 516.99 371.28 522.80 376.18 C 524.48 377.42 526.15 379.59 528.50 378.60 C 529.56 377.61 530.30 376.35 531.04 375.12 C 547.30 345.83 563.37 316.44 578.50 286.54 C 583.86 275.13 594.23 266.75 605.61 261.77 C 617.17 256.71 629.26 252.77 641.65 250.38 Z" />
<path fill="#201a17" d=" M 626.67 302.61 C 637.04 288.30 647.52 273.93 655.39 258.05 C 658.71 258.67 662.40 257.96 665.46 259.64 C 667.03 261.28 665.84 263.56 665.39 265.41 C 663.21 271.46 659.60 276.84 656.32 282.32 C 647.60 296.68 636.99 309.76 627.76 323.78 C 615.35 342.15 604.97 361.77 594.04 381.03 C 584.79 397.59 575.39 414.07 566.42 430.79 C 557.50 446.97 548.78 463.29 540.84 479.98 C 532.96 495.87 525.40 511.99 519.88 528.88 C 518.10 535.07 516.06 541.47 516.72 547.99 C 517.68 552.74 522.11 555.57 524.32 559.68 C 525.94 562.13 526.66 565.99 524.07 568.08 C 520.18 571.66 515.07 573.47 510.14 575.11 C 497.99 578.73 484.85 580.99 472.36 577.70 C 467.93 576.62 463.92 573.48 462.83 568.90 C 474.67 571.62 487.06 570.19 498.60 566.78 C 503.92 565.16 509.39 563.35 513.82 559.86 C 515.39 558.48 517.08 556.33 516.26 554.12 C 514.78 549.03 510.19 545.85 507.81 541.30 C 505.92 533.74 508.49 526.00 510.70 518.79 C 517.14 499.52 526.16 481.25 535.15 463.07 C 554.52 424.72 575.91 387.44 596.91 349.97 C 606.00 333.68 615.73 317.73 626.67 302.61 Z" />
<path fill="#ffffff" d=" M 416.62 279.60 C 423.85 275.68 432.35 274.37 440.45 275.69 C 446.18 276.81 450.55 281.64 452.02 287.16 C 454.14 298.70 449.11 310.25 442.41 319.41 C 433.49 331.58 418.65 340.63 403.13 338.54 C 398.92 337.45 394.61 335.53 392.08 331.82 C 388.48 326.87 387.90 320.33 389.23 314.48 C 392.11 299.31 403.24 286.73 416.62 279.60 Z" />
<path fill="#201916" d=" M 451.67 284.87 C 455.47 286.64 459.19 289.25 460.63 293.39 C 464.24 302.70 460.82 312.97 456.40 321.38 C 449.73 333.69 438.27 344.06 424.33 347.06 C 418.26 348.06 411.48 348.29 406.06 344.90 C 403.52 343.38 401.87 340.84 400.31 338.41 C 401.01 338.44 402.42 338.51 403.13 338.54 C 418.65 340.63 433.49 331.58 442.41 319.41 C 449.11 310.25 454.14 298.70 452.02 287.16 C 451.93 286.58 451.76 285.44 451.67 284.87 Z" />
<path fill="#eea05d" d=" M 124.30 310.30 C 128.67 302.04 132.18 293.17 138.28 285.98 C 135.40 295.69 128.82 303.64 124.82 312.86 C 119.23 325.45 112.91 338.02 110.69 351.75 C 110.17 355.34 108.20 358.50 107.45 362.02 C 107.28 366.40 108.92 370.64 108.74 375.03 C 108.54 380.06 106.47 384.75 105.39 389.63 C 102.98 399.82 103.90 410.40 105.08 420.70 C 105.69 426.26 107.64 431.54 108.51 437.04 C 109.15 441.14 109.85 445.24 110.65 449.31 C 111.71 454.26 110.19 459.40 111.63 464.31 C 112.65 467.91 112.78 471.68 112.24 475.39 C 113.34 475.02 114.45 474.67 115.56 474.32 C 116.24 481.32 115.60 488.34 115.24 495.33 C 117.21 489.54 119.02 483.70 120.70 477.82 C 122.95 470.45 123.68 462.50 127.86 455.84 C 127.44 459.76 126.55 463.61 125.41 467.38 C 122.86 475.86 121.16 484.56 119.19 493.20 C 117.56 500.31 117.00 507.66 114.73 514.63 C 112.53 521.11 110.95 527.77 109.34 534.41 C 105.16 527.09 104.50 518.54 101.26 510.86 C 99.89 507.46 99.30 503.83 98.26 500.34 C 97.08 496.47 94.37 493.18 93.80 489.12 C 92.96 483.56 93.61 477.86 92.50 472.33 C 92.11 470.18 90.13 468.93 88.70 467.48 C 90.15 461.66 90.22 455.62 89.05 449.75 C 87.99 449.93 86.92 450.13 85.86 450.32 C 85.60 437.52 89.24 425.15 90.55 412.51 C 91.45 405.24 93.47 398.15 94.03 390.83 C 94.53 386.20 96.00 381.77 97.40 377.37 C 104.40 354.29 113.33 331.78 124.30 310.30 Z" />
<path fill="#ffffff" d=" M 879.69 362.44 C 883.37 361.57 887.20 361.20 890.97 361.71 C 894.34 362.82 895.68 366.89 895.15 370.12 C 892.95 383.78 886.91 396.40 880.55 408.54 C 871.03 426.10 860.18 443.03 847.36 458.37 C 842.86 463.27 838.51 468.64 832.46 471.68 C 830.25 471.89 827.39 472.16 826.10 469.94 C 822.15 464.48 822.32 457.40 822.39 450.97 C 822.31 445.93 823.15 440.95 823.76 435.97 C 824.71 431.44 825.81 426.90 825.63 422.24 C 821.74 422.35 817.95 423.55 814.78 425.79 C 803.91 433.05 795.28 443.07 787.23 453.25 C 773.91 470.23 763.66 489.29 752.89 507.91 C 746.13 520.17 739.06 532.26 733.01 544.89 C 731.21 548.58 728.66 552.14 724.81 553.89 C 712.49 559.92 698.41 560.30 684.96 560.29 C 681.47 560.31 678.04 559.58 674.60 559.09 C 672.65 552.46 678.41 547.56 681.11 542.15 C 701.64 506.09 721.08 469.42 741.14 433.10 C 749.95 416.95 758.99 400.93 767.86 384.82 C 770.88 379.67 774.50 374.45 780.11 371.89 C 792.15 366.11 805.83 364.71 819.03 365.39 C 820.94 365.45 822.78 366.09 824.44 367.04 C 825.41 369.55 823.42 371.72 822.33 373.80 C 817.85 381.45 812.81 388.76 808.67 396.60 C 807.34 399.04 806.56 401.72 806.14 404.46 C 809.61 403.08 812.56 400.76 815.40 398.37 C 820.40 394.16 826.07 390.77 830.85 386.27 C 837.49 382.93 843.43 378.39 849.99 374.88 C 859.35 369.59 869.19 364.95 879.69 362.44 Z" />
<path fill="#ffffff" d=" M 647.22 372.50 C 666.16 366.16 686.60 363.91 706.40 366.83 C 715.83 368.52 726.29 372.07 731.07 381.08 C 734.03 388.59 732.41 396.93 730.37 404.46 C 725.43 420.53 714.13 433.80 701.49 444.50 C 688.05 455.77 672.77 464.71 656.72 471.70 C 639.12 479.23 620.47 484.90 601.25 485.81 C 598.41 485.82 596.61 488.50 596.40 491.10 C 595.82 497.41 595.77 504.22 599.00 509.90 C 600.78 513.25 603.74 515.79 607.03 517.58 C 615.18 521.22 624.55 521.21 633.19 519.62 C 645.06 517.42 656.09 511.95 665.80 504.90 C 668.63 503.26 672.15 500.29 675.46 502.48 C 677.29 506.09 676.27 510.38 675.23 514.09 C 670.26 527.81 659.42 538.58 647.27 546.23 C 626.82 559.11 601.30 563.19 577.73 558.28 C 570.98 556.69 564.20 554.56 558.54 550.45 C 549.78 545.08 543.32 536.13 541.17 526.07 C 537.42 509.79 541.59 493.01 546.74 477.52 C 552.55 461.53 560.50 446.37 570.31 432.47 C 589.25 405.52 615.81 383.24 647.22 372.50 Z" />
<path fill="#ffffff" d=" M 356.81 378.85 C 368.69 372.13 382.65 370.82 395.99 369.71 C 400.54 369.62 405.94 369.35 409.54 372.61 C 411.52 374.23 409.97 376.76 409.03 378.51 C 389.49 411.95 370.24 445.56 351.71 479.58 C 345.63 491.48 339.22 503.32 334.98 516.04 C 333.51 520.32 332.54 525.56 335.67 529.38 C 338.24 533.09 343.31 537.28 340.43 542.21 C 336.21 548.70 328.20 551.00 321.19 553.15 C 309.46 555.94 297.25 558.37 285.18 556.72 C 279.82 555.93 273.86 553.39 272.00 547.86 C 270.69 542.35 272.43 536.71 274.12 531.48 C 279.98 514.83 289.33 499.76 297.04 483.96 C 313.15 453.25 329.53 422.68 346.23 392.28 C 348.87 387.20 351.57 381.70 356.81 378.85 Z" />
<path fill="#201a17" d=" M 895.15 370.12 C 897.95 370.50 901.52 370.02 903.42 372.63 C 905.36 375.70 904.52 379.61 904.00 382.98 C 901.36 394.82 896.18 405.93 890.57 416.62 C 881.63 433.15 871.52 449.09 859.82 463.81 C 855.70 468.67 851.60 473.62 846.67 477.68 C 844.17 479.75 840.83 481.45 837.53 480.40 C 834.42 478.61 833.76 474.72 832.46 471.68 C 838.51 468.64 842.86 463.27 847.36 458.37 C 860.18 443.03 871.03 426.10 880.55 408.54 C 886.91 396.40 892.95 383.78 895.15 370.12 Z" />
<path fill="#201a17" d=" M 822.33 373.80 C 826.48 373.96 831.82 373.44 834.66 377.14 C 833.58 380.26 832.03 383.19 830.85 386.27 C 826.07 390.77 820.40 394.16 815.40 398.37 C 812.56 400.76 809.61 403.08 806.14 404.46 C 806.56 401.72 807.34 399.04 808.67 396.60 C 812.81 388.76 817.85 381.45 822.33 373.80 Z" />
<path fill="#201a17" d=" M 351.71 479.58 C 370.24 445.56 389.49 411.95 409.03 378.51 C 412.55 378.91 416.77 378.81 419.31 381.73 C 420.77 384.11 418.97 386.72 417.84 388.83 C 398.36 421.91 379.41 455.31 361.01 489.00 C 355.10 500.65 348.83 512.21 344.64 524.62 C 343.34 528.87 342.16 534.08 345.07 537.95 C 347.24 541.37 351.28 544.34 350.68 548.87 C 350.12 553.14 346.04 555.66 342.60 557.59 C 332.97 562.36 322.22 564.30 311.63 565.58 C 303.40 566.57 294.51 566.96 286.92 563.08 C 284.12 561.76 282.57 558.98 281.17 556.38 C 282.17 556.46 284.18 556.63 285.18 556.72 C 297.25 558.37 309.46 555.94 321.19 553.15 C 328.20 551.00 336.21 548.70 340.43 542.21 C 343.31 537.28 338.24 533.09 335.67 529.38 C 332.54 525.56 333.51 520.32 334.98 516.04 C 339.22 503.32 345.63 491.48 351.71 479.58 Z" />
<path fill="#201a17" d=" M 730.78 380.26 C 737.05 383.56 742.04 389.69 742.30 397.00 C 742.56 410.49 737.11 423.56 729.20 434.30 C 719.73 447.08 707.30 457.42 693.95 465.94 C 668.79 481.62 640.21 492.96 610.41 494.78 C 605.71 495.43 605.63 501.33 605.49 504.99 C 604.98 509.17 607.13 512.98 607.66 516.96 L 607.03 517.58 C 603.74 515.79 600.78 513.25 599.00 509.90 C 595.77 504.22 595.82 497.41 596.40 491.10 C 596.61 488.50 598.41 485.82 601.25 485.81 C 620.47 484.90 639.12 479.23 656.72 471.70 C 672.77 464.71 688.05 455.77 701.49 444.50 C 714.13 433.80 725.43 420.53 730.37 404.46 C 732.41 396.93 734.03 388.59 731.07 381.08 L 730.78 380.26 Z" />
<path fill="#a96047" d=" M 917.63 419.05 C 917.38 408.20 915.48 397.44 915.54 386.58 C 921.09 404.30 924.22 422.70 926.97 441.05 C 928.52 453.92 930.16 466.84 930.39 479.81 C 930.13 484.68 929.72 489.53 929.40 494.39 C 925.66 490.45 922.70 485.85 920.54 480.88 C 919.43 483.28 918.27 485.67 917.07 488.03 C 916.95 487.41 916.70 486.18 916.58 485.56 C 916.61 478.51 917.33 471.50 917.61 464.46 C 918.52 449.34 918.01 434.18 917.63 419.05 Z" />
<path fill="#ec9a52" d=" M 89.87 404.98 C 90.88 400.16 91.83 395.27 94.03 390.83 C 93.47 398.15 91.45 405.24 90.55 412.51 C 89.24 425.15 85.60 437.52 85.86 450.32 C 86.92 450.13 87.99 449.93 89.05 449.75 C 90.22 455.62 90.15 461.66 88.70 467.48 C 90.13 468.93 92.11 470.18 92.50 472.33 C 93.61 477.86 92.96 483.56 93.80 489.12 C 94.37 493.18 97.08 496.47 98.26 500.34 C 99.30 503.83 99.89 507.46 101.26 510.86 C 104.50 518.54 105.16 527.09 109.34 534.41 C 110.95 527.77 112.53 521.11 114.73 514.63 C 114.87 521.40 113.50 528.05 112.71 534.74 C 112.04 540.02 112.31 545.46 110.69 550.59 C 107.24 558.82 109.99 568.01 106.73 576.29 C 105.46 571.36 104.87 566.28 103.53 561.37 C 101.69 561.92 100.36 563.34 98.94 564.53 C 93.77 557.48 94.31 548.42 91.79 540.41 C 91.02 537.36 88.69 535.15 86.53 533.03 C 86.31 528.15 86.10 523.18 84.41 518.54 C 82.66 513.66 81.46 508.54 81.58 503.33 C 81.70 496.08 81.11 488.85 80.24 481.66 C 79.83 477.53 80.00 473.37 80.40 469.25 C 81.91 454.72 82.87 440.10 85.69 425.74 C 87.08 418.82 88.30 411.86 89.87 404.98 Z" />
<path fill="#1f1a17" d=" M 648.59 401.63 C 656.20 395.49 665.64 389.79 675.82 391.42 C 679.79 392.02 682.29 395.95 681.83 399.83 C 670.31 400.69 660.56 407.75 652.57 415.58 C 641.27 426.97 632.05 440.28 624.15 454.21 C 624.56 454.12 625.39 453.94 625.80 453.85 C 620.39 456.77 614.32 458.31 608.28 459.17 C 608.72 454.53 611.71 450.78 613.70 446.72 C 623.16 430.20 634.09 414.16 648.59 401.63 Z" />
<path fill="#e57919" d=" M 652.57 415.58 C 660.56 407.75 670.31 400.69 681.83 399.83 C 679.79 408.33 675.15 415.95 669.55 422.57 C 660.21 434.10 648.19 443.31 635.06 450.12 C 632.10 451.65 629.09 453.20 625.80 453.85 C 625.39 453.94 624.56 454.12 624.15 454.21 C 632.05 440.28 641.27 426.97 652.57 415.58 Z" />
<path fill="#201917" d=" M 486.18 406.13 C 493.22 401.74 502.17 398.69 510.31 401.76 C 513.63 402.77 513.47 408.03 510.73 409.40 C 497.99 411.42 487.70 420.03 479.07 429.06 C 466.86 442.46 456.96 457.90 449.30 474.31 C 444.19 485.59 439.56 497.48 439.46 510.05 C 435.87 509.56 432.04 507.86 430.91 504.10 C 429.40 498.75 430.33 493.02 431.55 487.70 C 436.28 469.91 444.96 453.40 455.21 438.19 C 463.75 426.00 473.51 414.20 486.18 406.13 Z" />
<path fill="#e67818" d=" M 479.07 429.06 C 487.70 420.03 497.99 411.42 510.73 409.40 C 503.68 422.46 496.12 435.28 489.69 448.69 C 481.00 465.31 474.43 483.49 461.45 497.45 C 455.46 503.49 448.36 509.50 439.46 510.05 C 439.56 497.48 444.19 485.59 449.30 474.31 C 456.96 457.90 466.86 442.46 479.07 429.06 Z" />
<path fill="#201a17" d=" M 814.78 425.79 C 817.95 423.55 821.74 422.35 825.63 422.24 C 825.81 426.90 824.71 431.44 823.76 435.97 C 817.36 438.72 812.84 444.22 807.98 448.97 C 795.17 462.60 784.79 478.29 775.41 494.41 C 763.64 514.53 752.04 534.78 741.59 555.61 C 739.53 559.48 735.98 562.38 731.91 563.92 C 720.59 568.77 708.09 568.84 696.00 569.31 C 691.80 569.12 686.86 569.45 683.56 566.38 C 682.91 564.22 684.16 562.20 684.96 560.29 C 698.41 560.30 712.49 559.92 724.81 553.89 C 728.66 552.14 731.21 548.58 733.01 544.89 C 739.06 532.26 746.13 520.17 752.89 507.91 C 763.66 489.29 773.91 470.23 787.23 453.25 C 795.28 443.07 803.91 433.05 814.78 425.79 Z" />
<path fill="#d17d32" d=" M 540.84 479.98 C 548.78 463.29 557.50 446.97 566.42 430.79 C 566.65 431.45 567.09 432.77 567.32 433.43 C 568.31 433.11 569.30 432.78 570.31 432.47 C 560.50 446.37 552.55 461.53 546.74 477.52 C 546.47 476.70 545.92 475.05 545.65 474.23 C 544.15 476.23 542.56 478.16 540.84 479.98 Z" />
<path fill="#b3725d" d=" M 930.39 479.81 C 931.52 505.92 930.87 532.22 926.82 558.08 C 926.80 556.48 926.75 554.88 926.71 553.30 C 924.74 553.07 922.77 552.81 920.81 552.58 C 920.08 545.48 918.04 538.53 913.94 532.64 C 912.10 535.34 910.22 538.02 908.61 540.86 C 909.80 533.22 910.58 525.53 912.03 517.94 C 913.92 507.20 914.78 496.31 916.58 485.56 C 916.70 486.18 916.95 487.41 917.07 488.03 C 918.27 485.67 919.43 483.28 920.54 480.88 C 922.70 485.85 925.66 490.45 929.40 494.39 C 929.72 489.53 930.13 484.68 930.39 479.81 Z" />
<path fill="#ec9345" d=" M 80.24 481.66 C 81.11 488.85 81.70 496.08 81.58 503.33 C 81.46 508.54 82.66 513.66 84.41 518.54 C 86.10 523.18 86.31 528.15 86.53 533.03 C 88.69 535.15 91.02 537.36 91.79 540.41 C 94.31 548.42 93.77 557.48 98.94 564.53 C 100.36 563.34 101.69 561.92 103.53 561.37 C 104.87 566.28 105.46 571.36 106.73 576.29 C 109.99 568.01 107.24 558.82 110.69 550.59 C 111.87 558.38 110.33 566.18 110.22 573.98 C 109.80 588.31 110.80 602.64 111.63 616.95 C 111.87 628.01 112.85 639.03 114.20 650.01 C 114.55 652.89 114.49 655.81 114.30 658.71 C 109.63 650.81 106.78 642.05 103.31 633.60 C 101.68 629.70 100.41 625.66 99.27 621.59 C 97.72 615.87 94.56 610.70 93.40 604.86 C 91.94 597.17 88.87 589.84 88.07 582.02 C 87.20 573.96 84.73 566.19 83.77 558.15 C 81.84 543.15 79.80 528.11 79.70 512.96 C 79.28 502.53 78.65 492.03 80.24 481.66 Z" />
<path fill="#201917" d=" M 675.23 514.09 C 677.71 511.08 681.96 510.18 685.64 511.22 C 685.82 515.34 686.04 519.62 684.54 523.56 C 679.59 536.99 668.98 547.55 657.04 555.04 C 634.80 568.99 606.56 572.89 581.37 565.60 C 573.95 563.56 567.24 559.56 561.48 554.52 C 560.33 553.30 557.67 552.57 558.54 550.45 C 564.20 554.56 570.98 556.69 577.73 558.28 C 601.30 563.19 626.82 559.11 647.27 546.23 C 659.42 538.58 670.26 527.81 675.23 514.09 Z" />
<path fill="#201a17" d=" M 443.28 539.25 C 448.05 535.73 451.93 530.69 457.89 529.09 C 455.87 535.70 452.94 542.07 452.20 549.02 C 439.40 557.95 424.84 565.21 409.01 566.13 C 400.00 566.98 389.15 564.33 384.80 555.58 L 385.98 555.86 C 389.88 556.93 393.94 557.51 398.00 557.29 C 414.59 556.56 430.33 549.38 443.28 539.25 Z" />
<path fill="#bb826f" d=" M 908.61 540.86 C 910.22 538.02 912.10 535.34 913.94 532.64 C 918.04 538.53 920.08 545.48 920.81 552.58 C 922.77 552.81 924.74 553.07 926.71 553.30 C 926.75 554.88 926.80 556.48 926.82 558.08 C 925.85 569.24 923.35 580.23 921.11 591.20 C 919.88 596.10 919.31 601.27 917.14 605.88 C 915.62 607.97 913.97 609.96 912.34 611.97 C 910.80 605.48 910.14 598.75 907.57 592.53 C 906.07 588.98 906.05 585.08 906.25 581.30 C 905.56 581.57 904.88 581.84 904.21 582.12 C 903.15 581.10 902.09 580.07 901.05 579.05 C 899.76 581.71 898.50 584.37 897.22 587.03 C 898.91 580.04 900.74 573.09 902.14 566.04 C 904.61 557.73 906.69 549.31 908.61 540.86 Z" />
<path fill="#ffffff" d=" M 757.85 577.92 C 762.26 571.95 767.68 566.38 774.79 563.77 C 773.59 567.73 772.25 571.65 770.95 575.58 C 765.37 590.67 761.88 606.41 758.07 622.01 C 754.00 639.77 750.45 657.64 747.28 675.58 C 740.08 720.06 730.86 764.65 713.60 806.44 C 703.49 831.13 683.45 852.02 658.15 861.14 C 640.07 867.86 620.05 868.80 601.28 864.54 C 589.02 862.00 577.63 856.69 566.23 851.70 C 559.77 848.83 553.87 844.88 548.34 840.51 C 523.92 820.34 506.27 793.62 487.43 768.50 C 478.27 756.40 468.98 744.39 459.18 732.80 C 457.80 730.82 456.45 728.82 455.13 726.81 C 462.71 729.94 469.86 733.97 476.92 738.11 C 508.95 757.13 538.41 780.38 571.63 797.40 C 587.61 805.45 604.84 812.51 623.00 812.54 C 635.91 812.79 648.82 808.02 658.50 799.47 C 669.63 789.68 677.28 776.58 682.92 763.02 C 689.34 747.39 694.67 731.34 700.23 715.40 C 712.08 680.79 723.71 646.03 738.63 612.59 C 744.15 600.58 750.03 588.62 757.85 577.92 Z" />
<path fill="#c28e7d" d=" M 896.84 582.71 C 898.25 577.04 900.10 571.51 902.14 566.04 C 900.74 573.09 898.91 580.04 897.22 587.03 C 898.50 584.37 899.76 581.71 901.05 579.05 C 902.09 580.07 903.15 581.10 904.21 582.12 C 904.88 581.84 905.56 581.57 906.25 581.30 C 906.05 585.08 906.07 588.98 907.57 592.53 C 910.14 598.75 910.80 605.48 912.34 611.97 C 913.97 609.96 915.62 607.97 917.14 605.88 C 916.10 614.12 913.12 621.94 910.79 629.87 C 909.29 634.26 908.27 638.89 905.95 642.95 C 901.97 648.69 899.68 655.33 896.38 661.45 C 895.01 655.52 896.40 649.48 896.08 643.51 C 895.45 638.30 894.01 633.20 894.11 627.91 C 894.16 621.36 893.05 614.87 891.37 608.56 C 888.98 615.40 885.76 621.90 881.65 627.87 C 885.80 612.52 892.62 598.04 896.84 582.71 Z" />
<path fill="#211916" d=" M 770.95 575.58 C 773.97 574.35 776.94 573.02 779.99 571.86 C 777.79 579.24 774.79 586.35 772.70 593.77 C 764.76 621.32 758.75 649.39 753.61 677.58 C 746.15 723.40 737.19 769.43 719.58 812.58 C 715.14 824.02 708.31 834.30 700.76 843.91 C 693.33 850.94 685.74 857.99 676.63 862.84 C 670.19 866.35 663.38 869.16 656.36 871.28 C 654.66 871.79 652.95 872.26 651.26 872.76 C 647.91 873.33 644.56 873.84 641.20 874.32 C 631.02 874.95 620.72 875.05 610.66 873.12 C 596.67 870.81 583.69 864.88 570.84 859.14 C 562.03 855.14 554.36 849.11 547.11 842.79 C 547.42 842.22 548.03 841.08 548.34 840.51 C 553.87 844.88 559.77 848.83 566.23 851.70 C 577.63 856.69 589.02 862.00 601.28 864.54 C 620.05 868.80 640.07 867.86 658.15 861.14 C 683.45 852.02 703.49 831.13 713.60 806.44 C 730.86 764.65 740.08 720.06 747.28 675.58 C 750.45 657.64 754.00 639.77 758.07 622.01 C 761.88 606.41 765.37 590.67 770.95 575.58 Z" />
<path fill="#341703" d=" M 366.49 590.29 C 367.73 590.26 368.98 590.23 370.23 590.20 C 370.50 609.07 370.36 627.94 370.29 646.81 C 361.78 646.34 352.20 648.57 344.77 643.23 C 335.06 636.58 335.08 620.47 344.48 613.54 C 350.60 608.31 359.04 609.44 366.48 609.31 C 366.58 602.97 366.64 596.63 366.49 590.29 Z" />
<path fill="#321602" d=" M 532.46 590.31 C 533.64 590.29 534.83 590.28 536.02 590.27 C 536.46 609.08 536.37 627.92 536.07 646.73 C 534.85 646.71 533.64 646.70 532.44 646.70 C 532.53 627.90 532.50 609.10 532.46 590.31 Z" />
<path fill="#361701" d=" M 296.38 591.47 C 308.63 588.10 322.39 594.54 328.21 605.71 C 333.01 614.71 332.68 626.38 326.83 634.84 C 320.03 645.53 305.74 650.45 293.80 646.12 C 283.87 642.68 276.36 633.35 275.05 622.93 C 272.92 609.07 282.63 594.55 296.38 591.47 Z" />
<path fill="#321804" d=" M 461.58 590.44 C 462.55 590.44 464.49 590.44 465.46 590.44 C 465.48 596.73 465.55 603.02 465.43 609.31 C 469.73 609.47 474.04 609.48 478.34 609.50 C 478.31 610.79 478.28 612.09 478.24 613.40 C 474.01 613.34 469.77 613.35 465.54 613.46 C 465.54 620.65 465.38 627.85 465.54 635.04 C 465.61 638.12 466.30 642.07 469.64 643.22 C 472.36 643.89 475.21 643.69 477.99 643.83 C 477.96 644.59 477.88 646.11 477.84 646.87 C 473.65 646.57 468.78 647.63 465.26 644.75 C 461.98 642.28 461.74 637.77 461.60 634.02 C 461.58 619.49 461.55 604.97 461.58 590.44 Z" />
<path fill="#592200" d=" M 634.17 590.85 C 635.26 591.16 636.32 591.56 637.37 592.05 C 637.29 592.76 637.13 594.17 637.05 594.87 C 635.59 595.07 634.13 595.22 632.66 595.34 C 633.16 593.84 633.44 592.26 634.17 590.85 Z" />
<path fill="#e67817" d=" M 298.37 594.56 C 304.67 593.48 311.45 594.46 316.74 598.21 C 323.54 602.76 328.18 610.69 327.84 618.99 C 328.62 632.42 316.47 644.90 303.00 644.40 C 289.62 644.70 277.87 632.24 278.41 618.99 C 278.19 607.48 287.03 596.59 298.37 594.56 Z" />
<path fill="#341702" d=" M 392.33 609.33 C 403.95 605.71 416.95 615.91 416.52 628.00 C 416.93 639.47 405.28 649.28 394.06 647.01 C 384.75 645.58 377.41 636.46 378.23 627.04 C 378.33 618.89 384.47 611.35 392.33 609.33 Z" />
<path fill="#341802" d=" M 422.84 622.98 C 423.76 612.44 436.64 605.62 446.05 610.01 C 451.61 612.26 455.52 617.99 455.59 623.98 C 455.74 631.58 455.51 639.17 455.64 646.77 C 454.41 646.76 453.20 646.76 451.99 646.78 C 451.49 639.18 451.96 631.57 451.72 623.97 C 451.74 617.41 445.36 612.09 438.99 612.41 C 432.40 612.58 426.64 618.52 426.50 625.08 C 426.30 632.30 426.55 639.53 426.37 646.76 C 425.45 646.75 423.60 646.73 422.68 646.72 C 422.73 638.81 422.31 630.88 422.84 622.98 Z" />
<path fill="#331703" d=" M 498.40 609.49 C 507.72 606.35 518.54 611.98 521.89 621.09 C 524.87 628.41 522.55 637.42 516.54 642.50 C 510.44 648.11 500.58 648.79 493.68 644.28 C 487.34 640.26 483.59 632.41 484.96 624.97 C 486.05 617.85 491.50 611.56 498.40 609.49 Z" />
<path fill="#341701" d=" M 558.39 609.51 C 563.45 607.87 569.12 608.68 573.66 611.38 C 580.80 615.53 584.83 624.62 582.58 632.65 C 580.95 639.39 575.40 644.98 568.66 646.64 C 559.08 649.43 548.10 643.05 545.54 633.45 C 542.21 623.73 548.63 612.29 558.39 609.51 Z" />
<path fill="#2f1605" d=" M 589.12 624.05 C 590.56 616.04 598.05 609.87 606.08 609.39 C 611.28 609.11 616.50 609.33 621.72 609.29 C 621.76 623.86 621.86 638.44 621.71 653.01 C 621.69 661.99 612.95 669.74 604.02 668.67 C 595.50 668.33 588.90 660.68 588.16 652.46 C 589.33 652.39 590.50 652.33 591.68 652.28 C 592.81 655.58 593.72 659.18 596.27 661.73 C 601.42 666.88 611.12 666.40 615.40 660.34 C 618.42 656.51 618.33 651.40 618.31 646.78 C 611.97 646.49 605.20 647.61 599.32 644.64 C 591.68 641.26 587.30 632.15 589.12 624.05 Z" />
<path fill="#301703" d=" M 650.24 609.36 C 656.14 609.48 662.04 609.17 667.93 609.48 C 672.08 609.69 676.26 612.06 678.05 615.91 C 679.28 619.11 679.20 622.62 679.25 626.00 C 679.16 632.92 679.44 639.86 678.81 646.77 C 671.89 646.74 664.97 646.93 658.05 646.72 C 651.15 646.71 646.46 639.40 646.78 633.03 C 647.08 627.00 652.27 622.11 658.07 621.17 C 663.82 620.23 669.68 620.94 675.48 620.64 C 674.59 617.63 673.37 613.75 669.66 613.44 C 663.20 612.79 656.67 613.52 650.20 612.81 C 650.21 611.65 650.22 610.50 650.24 609.36 Z" />
<path fill="#c79787" d=" M 881.65 627.87 C 885.76 621.90 888.98 615.40 891.37 608.56 C 893.05 614.87 894.16 621.36 894.11 627.91 C 894.01 633.20 895.45 638.30 896.08 643.51 C 896.40 649.48 895.01 655.52 896.38 661.45 C 899.68 655.33 901.97 648.69 905.95 642.95 C 903.80 652.35 899.44 661.04 895.91 669.97 C 891.72 679.60 887.22 689.10 882.38 698.42 C 881.08 698.85 879.80 699.29 878.53 699.74 C 879.32 693.95 880.40 688.18 880.47 682.32 C 880.55 674.43 882.38 666.59 881.41 658.70 C 880.53 651.49 880.33 644.23 880.73 636.99 C 878.64 639.24 876.50 641.45 874.52 643.79 C 876.68 638.39 878.80 632.96 881.65 627.87 Z" />
<path fill="#2e1601" d=" M 633.39 610.34 C 634.49 610.30 635.60 610.28 636.72 610.26 C 637.17 615.15 637.37 620.08 637.11 625.00 C 636.58 632.23 637.02 639.48 636.74 646.72 C 635.62 646.70 634.50 646.69 633.39 646.69 C 633.34 634.57 633.37 622.45 633.39 610.34 Z" />
<path fill="#e67817" d=" M 501.47 612.58 C 508.88 611.19 516.54 616.26 518.71 623.36 C 522.00 632.45 514.69 643.51 504.97 643.78 C 496.22 644.67 488.20 636.63 488.46 627.99 C 488.35 620.58 494.21 613.80 501.47 612.58 Z" />
<path fill="#e57819" d=" M 347.06 616.04 C 352.63 611.86 359.99 613.54 366.44 613.17 C 366.66 623.32 366.69 633.48 366.39 643.63 C 360.03 643.43 352.94 644.49 347.44 640.54 C 339.23 635.22 339.15 621.66 347.06 616.04 Z" />
<path fill="#e67818" d=" M 392.36 613.26 C 401.82 609.48 413.26 617.86 412.66 628.00 C 413.12 636.43 405.44 644.24 396.98 643.79 C 387.98 643.98 380.57 634.83 381.96 626.07 C 382.60 620.25 386.89 615.20 392.36 613.26 Z" />
<path fill="#e67818" d=" M 559.32 613.15 C 568.44 609.83 579.04 617.42 579.41 626.98 C 580.16 635.58 572.80 644.11 564.00 643.80 C 555.93 644.13 548.83 636.92 548.46 629.02 C 547.98 622.10 552.65 615.16 559.32 613.15 Z" />
<path fill="#e57818" d=" M 598.20 616.21 C 603.88 611.99 611.34 613.41 617.93 613.22 C 618.38 623.19 618.35 633.20 617.92 643.18 C 610.93 643.25 602.76 643.96 597.28 638.73 C 590.84 632.87 591.27 621.48 598.20 616.21 Z" />
<path fill="#e67819" d=" M 650.39 632.99 C 651.12 628.45 655.35 624.83 659.94 624.71 C 665.06 624.40 670.21 624.65 675.34 624.65 C 675.48 630.96 675.50 637.28 675.27 643.60 C 669.34 643.39 663.38 643.99 657.48 643.24 C 652.75 642.50 649.58 637.63 650.39 632.99 Z" />
<path fill="#cda294" d=" M 874.52 643.79 C 876.50 641.45 878.64 639.24 880.73 636.99 C 880.33 644.23 880.53 651.49 881.41 658.70 C 882.38 666.59 880.55 674.43 880.47 682.32 C 880.40 688.18 879.32 693.95 878.53 699.74 C 879.80 699.29 881.08 698.85 882.38 698.42 C 850.99 759.54 804.18 812.53 748.03 852.04 C 741.73 856.11 735.86 860.91 729.03 864.11 C 730.37 862.34 731.58 860.48 732.80 858.63 C 718.38 857.46 704.55 864.73 690.11 862.33 C 686.24 861.55 682.39 862.56 678.88 864.18 C 678.12 863.72 677.37 863.28 676.63 862.84 C 685.74 857.99 693.33 850.94 700.76 843.91 C 709.42 840.00 716.66 833.76 724.40 828.38 C 735.80 820.20 746.02 810.55 757.09 801.96 C 755.07 804.61 753.07 807.32 750.56 809.53 C 744.45 814.83 738.98 820.79 732.97 826.19 C 739.86 824.41 745.49 819.93 751.74 816.75 C 756.52 814.21 761.20 811.44 766.24 809.43 C 772.49 807.04 777.61 802.62 783.44 799.45 C 786.86 797.63 789.47 794.74 791.91 791.81 C 795.66 787.23 801.22 784.56 804.78 779.81 C 807.79 775.82 810.49 771.58 813.97 767.96 C 818.94 762.85 821.94 756.21 827.06 751.23 C 830.74 747.57 832.05 742.41 833.85 737.71 C 836.57 730.76 838.94 723.66 842.05 716.87 C 843.37 714.20 843.32 711.18 843.17 708.28 C 839.59 709.74 836.24 711.76 833.71 714.74 C 841.07 703.06 849.20 691.85 855.58 679.57 C 862.79 668.12 867.67 655.44 874.52 643.79 Z" />
<path fill="#201a16" d=" M 445.70 707.88 C 470.72 700.11 496.70 694.51 523.00 694.54 C 544.76 694.28 566.61 698.10 586.91 705.98 C 588.91 706.76 590.94 707.47 593.04 707.98 C 597.73 708.92 602.19 711.21 605.35 714.86 C 603.39 714.53 601.44 714.12 599.58 713.43 C 577.88 704.74 554.35 700.83 531.01 701.48 C 488.65 702.25 448.18 716.74 409.26 732.22 C 379.91 744.02 352.89 760.92 323.37 772.29 C 298.85 780.60 272.11 782.36 246.69 777.59 C 234.17 775.38 222.60 769.96 211.05 764.90 C 205.45 762.45 200.24 759.23 195.11 755.94 C 207.56 761.21 219.75 767.50 233.09 770.22 C 255.14 774.91 278.18 774.02 300.08 768.93 C 310.90 766.44 321.06 761.85 331.11 757.25 C 350.81 748.02 369.89 737.48 389.81 728.70 C 408.11 720.93 426.78 714.00 445.70 707.88 Z" />
<path fill="#d3ada0" d=" M 833.71 714.74 C 836.24 711.76 839.59 709.74 843.17 708.28 C 843.32 711.18 843.37 714.20 842.05 716.87 C 838.94 723.66 836.57 730.76 833.85 737.71 C 832.05 742.41 830.74 747.57 827.06 751.23 C 821.94 756.21 818.94 762.85 813.97 767.96 C 810.49 771.58 807.79 775.82 804.78 779.81 C 801.22 784.56 795.66 787.23 791.91 791.81 C 789.47 794.74 786.86 797.63 783.44 799.45 C 777.61 802.62 772.49 807.04 766.24 809.43 C 761.20 811.44 756.52 814.21 751.74 816.75 C 745.49 819.93 739.86 824.41 732.97 826.19 C 738.98 820.79 744.45 814.83 750.56 809.53 C 753.07 807.32 755.07 804.61 757.09 801.96 C 766.67 792.57 776.75 783.66 785.64 773.58 C 803.39 755.45 818.97 735.35 833.71 714.74 Z" />
<path fill="#361701" d=" M 459.18 732.80 C 468.98 744.39 478.27 756.40 487.43 768.50 C 506.27 793.62 523.92 820.34 548.34 840.51 C 548.03 841.08 547.42 842.22 547.11 842.79 C 533.44 830.41 522.14 815.72 511.09 801.02 C 499.68 786.38 489.26 770.98 477.52 756.59 C 471.46 748.62 464.18 741.54 459.18 732.80 Z" />
<path fill="#c79788" d=" M 690.11 862.33 C 704.55 864.73 718.38 857.46 732.80 858.63 C 731.58 860.48 730.37 862.34 729.03 864.11 C 725.84 867.04 721.84 868.90 718.18 871.16 C 710.82 875.24 703.72 879.87 695.86 882.96 C 698.03 881.20 700.08 879.29 702.16 877.41 C 689.50 874.58 676.48 877.05 663.72 875.48 C 660.72 875.29 658.38 873.30 656.36 871.28 C 663.38 869.16 670.19 866.35 676.63 862.84 C 677.37 863.28 678.12 863.72 678.88 864.18 C 682.39 862.56 686.24 861.55 690.11 862.33 Z" />
<path fill="#c3907f" d=" M 651.26 872.76 C 652.95 872.26 654.66 871.79 656.36 871.28 C 658.38 873.30 660.72 875.29 663.72 875.48 C 676.48 877.05 689.50 874.58 702.16 877.41 C 700.08 879.29 698.03 881.20 695.86 882.96 C 686.49 888.71 676.10 892.62 666.11 897.15 C 665.42 895.06 665.88 891.75 663.23 891.08 C 658.97 889.74 654.47 889.39 650.05 888.92 C 645.81 888.42 641.51 889.38 637.30 888.67 C 634.70 887.52 632.91 885.21 631.08 883.14 C 634.10 881.74 637.19 880.50 640.29 879.28 C 644.33 877.81 647.88 875.37 651.26 872.76 Z" />
<path fill="#cf793c" d=" M 641.20 874.32 C 644.56 873.84 647.91 873.33 651.26 872.76 C 647.88 875.37 644.33 877.81 640.29 879.28 C 640.77 878.17 641.25 877.07 641.75 875.98 C 635.39 876.28 629.01 876.18 622.67 875.62 C 628.86 875.49 635.08 875.35 641.20 874.32 Z" />
<path fill="#bf8876" d=" M 607.45 893.35 C 615.56 890.52 623.27 886.71 631.08 883.14 C 632.91 885.21 634.70 887.52 637.30 888.67 C 641.51 889.38 645.81 888.42 650.05 888.92 C 654.47 889.39 658.97 889.74 663.23 891.08 C 665.88 891.75 665.42 895.06 666.11 897.15 C 652.93 902.26 639.82 907.85 626.07 911.24 C 629.13 909.41 632.11 907.44 635.18 905.63 C 634.94 904.65 634.70 903.67 634.49 902.70 C 627.14 902.01 620.00 899.99 612.98 897.82 C 610.52 897.23 608.86 895.29 607.45 893.35 Z" />
<path fill="#ba7e6c" d=" M 574.43 904.47 C 585.76 901.77 596.47 897.14 607.45 893.35 C 608.86 895.29 610.52 897.23 612.98 897.82 C 620.00 899.99 627.14 902.01 634.49 902.70 C 634.70 903.67 634.94 904.65 635.18 905.63 C 632.11 907.44 629.13 909.41 626.07 911.24 C 623.28 912.63 620.20 913.31 617.22 914.18 C 607.26 916.82 597.34 919.71 587.15 921.36 C 590.81 919.98 593.72 917.31 596.40 914.55 C 588.92 915.33 581.45 913.05 575.44 908.62 C 574.51 907.49 574.72 905.82 574.43 904.47 Z" />
<path fill="#b2725e" d=" M 533.54 915.26 C 547.23 911.85 561.10 909.14 574.43 904.47 C 574.72 905.82 574.51 907.49 575.44 908.62 C 581.45 913.05 588.92 915.33 596.40 914.55 C 593.72 917.31 590.81 919.98 587.15 921.36 C 573.10 924.65 558.73 926.57 544.39 928.17 C 538.40 928.59 532.44 929.70 526.42 929.36 C 529.78 927.93 533.08 926.34 536.45 924.91 C 532.78 923.12 529.14 921.26 525.53 919.36 C 528.17 917.95 530.80 916.49 533.54 915.26 Z" />
<path fill="#a96148" d=" M 483.09 922.12 C 500.02 920.70 516.73 917.62 533.54 915.26 C 530.80 916.49 528.17 917.95 525.53 919.36 C 529.14 921.26 532.78 923.12 536.45 924.91 C 533.08 926.34 529.78 927.93 526.42 929.36 C 516.67 930.64 506.81 930.25 497.01 930.36 C 480.29 930.47 463.61 929.03 447.00 927.15 C 441.88 926.50 436.73 925.93 431.74 924.57 C 448.87 924.16 466.04 924.10 483.09 922.12 Z" />
<path fill="#cd884b" d=" M 479.60 983.63 C 485.36 982.73 491.19 983.14 496.99 982.91 C 504.07 982.81 511.17 982.83 518.22 983.57 C 510.19 984.72 502.07 984.26 493.99 984.27 C 489.19 984.27 484.38 984.12 479.60 983.63 Z" />
</svg>
