<?xml version="1.0" encoding="UTF-8" standalone="no"?>
<svg width="390px" height="399px" viewBox="0 0 390 399" version="1.1" xmlns="http://www.w3.org/2000/svg" xmlns:xlink="http://www.w3.org/1999/xlink">
    <!-- Generator: Sketch 3.7.2 (28276) - http://www.bohemiancoding.com/sketch -->
    <title>Logo</title>
    <desc>Created with Sketch.</desc>
    <defs></defs>
    <g id="Page-1" stroke="none" stroke-width="1" fill="none" fill-rule="evenodd">
        <g id="Logo" transform="translate(-113.000000, -89.000000)">
            <g transform="translate(113.000000, 89.000000)">
                <path d="M198.925,0.875 C199.73,0.73 200.545,0.645 201.365,0.57 C200.995,1.395 200.6,2.205 200.225,3.03 C202.26,3.205 204.29,3.495 206.315,3.79 C202.81,4.765 199.355,5.92 195.895,7.04 C197.565,4.995 199.25,2.96 200.745,0.78 C200.29,0.805 199.38,0.855 198.925,0.875 L198.925,0.875 Z" id="Shape" fill="#E8A060"></path>
                <path d="M194.065,2.63 C195.67,2.01 197.235,1.26 198.925,0.875 C199.38,0.855 200.29,0.805 200.745,0.78 C199.25,2.96 197.565,4.995 195.895,7.04 C193.01,9.79 190.61,12.995 188.015,16.005 C173.68,33.105 159.92,50.69 146.585,68.575 C119.385,105.28 93.605,143.2 72.21,183.62 C62.635,202.015 53.875,220.96 48.065,240.915 C45.105,251.185 42.99,261.78 42.84,272.5 C42.81,281.31 44.355,290.4 48.95,298.045 C52.185,303.495 56.985,307.945 62.495,311.035 C69.075,314.85 77.005,316.84 84.54,315.11 C92.045,314.43 99.13,311.69 106.235,309.36 C115.71,306.21 125.09,302.71 134.825,300.42 C143.565,298.355 152.495,296.965 161.475,296.635 C179.37,295.05 197.605,297.875 214.18,304.815 C220.945,307.445 227.335,310.905 233.805,314.165 C233.735,314.375 233.59,314.785 233.52,314.99 C232.47,314.735 231.455,314.38 230.455,313.99 C220.305,310.05 209.38,308.14 198.5,308.27 C185.35,308.255 172.36,311.055 159.85,314.94 C150.39,318 141.055,321.465 131.905,325.35 C121.945,329.74 112.405,335.01 102.555,339.625 C97.53,341.925 92.45,344.22 87.04,345.465 C76.09,348.01 64.57,348.455 53.545,346.11 C46.875,344.75 40.78,341.605 34.555,338.97 C27.19,335.435 20.28,330.755 14.825,324.625 C8.155,317.315 3.845,308.005 2.065,298.3 C0.365,289.68 0.385,280.79 1.335,272.08 C3.93,250.3 11.66,229.515 20.715,209.665 C29.935,189.545 40.96,170.325 52.365,151.38 C67.955,125.88 85.36,101.48 104.515,78.535 C115.13,65.865 126.32,53.675 138.26,42.24 C144.125,36.4 150.43,31.025 156.745,25.68 C162.575,21.2 168.375,16.665 174.59,12.725 C180.755,8.78 187.225,5.265 194.065,2.63 L194.065,2.63 Z" id="Shape" fill="#E67817"></path>
                <path d="M195.895,7.04 C199.355,5.92 202.81,4.765 206.315,3.79 C206.4,3.99 206.57,4.38 206.655,4.58 L206.645,4.925 C203.71,7.58 201.265,10.695 198.62,13.625 C194.315,18.685 189.985,23.735 185.855,28.945 C159.395,61.36 134.565,95.12 111.615,130.115 C100.45,147.36 89.73,164.91 80.04,183.03 C70.185,201.46 61.22,220.47 54.905,240.43 C51.305,252.28 48.38,264.535 48.625,277 C48.49,286.745 50.815,296.85 56.785,304.715 C58.53,307.145 60.94,308.975 62.865,311.245 L62.495,311.035 C56.985,307.945 52.185,303.495 48.95,298.045 C44.355,290.4 42.81,281.31 42.84,272.5 C42.99,261.78 45.105,251.185 48.065,240.915 C53.875,220.96 62.635,202.015 72.21,183.62 C93.605,143.2 119.385,105.28 146.585,68.575 C159.92,50.69 173.68,33.105 188.015,16.005 C190.61,12.995 193.01,9.79 195.895,7.04 L195.895,7.04 Z" id="Shape" fill="#201A17"></path>
                <path d="M257.825,86.19 C260.255,85.675 262.77,85.68 265.205,86.17 C265.225,87.47 265.29,88.83 264.695,90.025 C260.76,97.965 255.52,105.15 250.335,112.305 C244.865,119.865 240,127.84 235.455,135.985 C224.955,154.72 214.26,173.36 204.575,192.535 C200.08,201.625 195.57,210.76 192.35,220.395 C191.245,224 189.96,227.87 190.905,231.65 C192.095,233.925 194.39,235.515 195.13,238.06 C195.54,239.165 194.695,240.24 193.91,240.93 C191.695,242.675 188.96,243.58 186.3,244.39 C180.53,246.095 174.335,246.81 168.415,245.45 C166.245,244.825 164.175,243.33 163.47,241.105 C162.945,239.295 162.72,237.365 163.1,235.51 C163.47,232.035 164.935,228.85 165.945,225.545 C162.965,226.345 161.025,228.865 158.64,230.625 C152.165,235.69 144.295,239.28 136,239.645 C133.97,239.755 131.94,239.465 129.99,238.93 C126.74,237.61 124.185,234.83 123.01,231.545 C121.23,226.96 121.61,221.95 121.79,217.14 C122.675,208.935 125.25,201.005 128.54,193.47 C133.175,183.26 139.235,173.645 146.855,165.4 C152.46,159.025 159.24,153.65 166.81,149.79 C173.285,146.46 180.68,144.765 187.96,145.4 C191.62,145.895 195.495,146.64 198.4,149.09 C199.24,149.71 200.075,150.795 201.25,150.3 C201.78,149.805 202.15,149.175 202.52,148.56 C210.65,133.915 218.685,119.22 226.25,104.27 C228.93,98.565 234.115,94.375 239.805,91.885 C245.585,89.355 251.63,87.385 257.825,86.19 Z M176.535,175.53 C180.85,171.015 185.995,166.71 192.365,165.7 C188.84,172.23 185.06,178.64 181.845,185.345 C177.5,193.655 174.215,202.745 167.725,209.725 C164.73,212.745 161.18,215.75 156.73,216.025 C156.78,209.74 159.095,203.795 161.65,198.155 C165.48,189.95 170.43,182.23 176.535,175.53 Z" id="Combined-Shape" fill="#E67817"></path>
                <path d="M250.335,112.305 C255.52,105.15 260.76,97.965 264.695,90.025 C266.355,90.335 268.2,89.98 269.73,90.82 C270.515,91.64 269.92,92.78 269.695,93.705 C268.605,96.73 266.8,99.42 265.16,102.16 C260.8,109.34 255.495,115.88 250.88,122.89 C244.675,132.075 239.485,141.885 234.02,151.515 C229.395,159.795 224.695,168.035 220.21,176.395 C215.75,184.485 211.39,192.645 207.42,200.99 C203.48,208.935 199.7,216.995 196.94,225.44 C196.05,228.535 195.03,231.735 195.36,234.995 C195.84,237.37 198.055,238.785 199.16,240.84 C199.97,242.065 200.33,243.995 199.035,245.04 C197.09,246.83 194.535,247.735 192.07,248.555 C185.995,250.365 179.425,251.495 173.18,249.85 C170.965,249.31 168.96,247.74 168.415,245.45 C174.335,246.81 180.53,246.095 186.3,244.39 C188.96,243.58 191.695,242.675 193.91,240.93 C194.695,240.24 195.54,239.165 195.13,238.06 C194.39,235.515 192.095,233.925 190.905,231.65 C189.96,227.87 191.245,224 192.35,220.395 C195.57,210.76 200.08,201.625 204.575,192.535 C214.26,173.36 224.955,154.72 235.455,135.985 C240,127.84 244.865,119.865 250.335,112.305 L250.335,112.305 Z" id="Shape" fill="#201A17"></path>
                <path d="M145.31,100.8 C148.925,98.84 153.175,98.185 157.225,98.845 C160.09,99.405 162.275,101.82 163.01,104.58 C164.07,110.35 161.555,116.125 158.205,120.705 C153.745,126.79 146.325,131.315 138.565,130.27 C136.46,129.725 134.305,128.765 133.04,126.91 C131.24,124.435 130.95,121.165 131.615,118.24 C133.055,110.655 138.62,104.365 145.31,100.8 L145.31,100.8 Z" id="Shape" fill="#E67817"></path>
                <path d="M162.835,103.435 C164.735,104.32 166.595,105.625 167.315,107.695 C169.12,112.35 167.41,117.485 165.2,121.69 C161.865,127.845 156.135,133.03 149.165,134.53 C146.13,135.03 142.74,135.145 140.03,133.45 C138.76,132.69 137.935,131.42 137.155,130.205 C137.505,130.22 138.21,130.255 138.565,130.27 C146.325,131.315 153.745,126.79 158.205,120.705 C161.555,116.125 164.07,110.35 163.01,104.58 C162.965,104.29 162.88,103.72 162.835,103.435 L162.835,103.435 Z" id="Shape" fill="#201916"></path>
                <path d="M376.845,142.22 C378.685,141.785 380.6,141.6 382.485,141.855 C384.17,142.41 384.84,144.445 384.575,146.06 C383.475,152.89 380.455,159.2 377.275,165.27 C372.515,174.05 367.09,182.515 360.68,190.185 C358.43,192.635 356.255,195.32 353.23,196.84 C352.125,196.945 350.695,197.08 350.05,195.97 C348.075,193.24 348.16,189.7 348.195,186.485 C348.155,183.965 348.575,181.475 348.88,178.985 C349.355,176.72 349.905,174.45 349.815,172.12 C347.87,172.175 345.975,172.775 344.39,173.895 C338.955,177.525 334.64,182.535 330.615,187.625 C323.955,196.115 318.83,205.645 313.445,214.955 C310.065,221.085 306.53,227.13 303.505,233.445 C302.605,235.29 301.33,237.07 299.405,237.945 C293.245,240.96 286.205,241.15 279.48,241.145 C277.735,241.155 276.02,240.79 274.3,240.545 C273.325,237.23 276.205,234.78 277.555,232.075 C287.82,214.045 297.54,195.71 307.57,177.55 C311.975,169.475 316.495,161.465 320.93,153.41 C322.44,150.835 324.25,148.225 327.055,146.945 C333.075,144.055 339.915,143.355 346.515,143.695 C347.47,143.725 348.39,144.045 349.22,144.52 C349.705,145.775 348.71,146.86 348.165,147.9 C345.925,151.725 343.405,155.38 341.335,159.3 C340.67,160.52 340.28,161.86 340.07,163.23 C341.805,162.54 343.28,161.38 344.7,160.185 C347.2,158.08 350.035,156.385 352.425,154.135 C355.745,152.465 358.715,150.195 361.995,148.44 C366.675,145.795 371.595,143.475 376.845,142.22 L376.845,142.22 Z" id="Shape" fill="#E67817"></path>
                <path d="M260.61,147.25 C270.08,144.08 280.3,142.955 290.2,144.415 C294.915,145.26 300.145,147.035 302.535,151.54 C304.015,155.295 303.205,159.465 302.185,163.23 C299.715,171.265 294.065,177.9 287.745,183.25 C281.025,188.885 273.385,193.355 265.36,196.85 C256.56,200.615 247.235,203.45 237.625,203.905 C236.205,203.91 235.305,205.25 235.2,206.55 C234.91,209.705 234.885,213.11 236.5,215.95 C237.39,217.625 238.87,218.895 240.515,219.79 C244.59,221.61 249.275,221.605 253.595,220.81 C259.53,219.71 265.045,216.975 269.9,213.45 C271.315,212.63 273.075,211.145 274.73,212.24 C275.645,214.045 275.135,216.19 274.615,218.045 C272.13,224.905 266.71,230.29 260.635,234.115 C250.41,240.555 237.65,242.595 225.865,240.14 C222.49,239.345 219.1,238.28 216.27,236.225 C211.89,233.54 208.66,229.065 207.585,224.035 C205.71,215.895 207.795,207.505 210.37,199.76 C213.275,191.765 217.25,184.185 222.155,177.235 C231.625,163.76 244.905,152.62 260.61,147.25 Z M263.285,168.79 C267.28,164.875 272.155,161.345 277.915,160.915 C276.895,165.165 274.575,168.975 271.775,172.285 C267.105,178.05 261.095,182.655 254.53,186.06 C253.05,186.825 251.545,187.6 249.9,187.925 C249.695,187.97 249.28,188.06 249.075,188.105 C253.025,181.14 257.635,174.485 263.285,168.79 Z" id="Combined-Shape" fill="#E67817"></path>
                <path d="M115.405,150.425 C121.345,147.065 128.325,146.41 134.995,145.855 C137.27,145.81 139.97,145.675 141.77,147.305 C142.76,148.115 141.985,149.38 141.515,150.255 C131.745,166.975 122.12,183.78 112.855,200.79 C109.815,206.74 106.61,212.66 104.49,219.02 C103.755,221.16 103.27,223.78 104.835,225.69 C106.12,227.545 108.655,229.64 107.215,232.105 C105.105,235.35 101.1,236.5 97.595,237.575 C91.73,238.97 85.625,240.185 79.59,239.36 C76.91,238.965 73.93,237.695 73,234.93 C72.345,232.175 73.215,229.355 74.06,226.74 C76.99,218.415 81.665,210.88 85.52,202.98 C93.575,187.625 101.765,172.34 110.115,157.14 C111.435,154.6 112.785,151.85 115.405,150.425 L115.405,150.425 Z" id="Shape" fill="#E67817"></path>
                <path d="M384.575,146.06 C385.975,146.25 387.76,146.01 388.71,147.315 C389.68,148.85 389.26,150.805 389,152.49 C387.68,158.41 385.09,163.965 382.285,169.31 C377.815,177.575 372.76,185.545 366.91,192.905 C364.85,195.335 362.8,197.81 360.335,199.84 C359.085,200.875 357.415,201.725 355.765,201.2 C354.21,200.305 353.88,198.36 353.23,196.84 C356.255,195.32 358.43,192.635 360.68,190.185 C367.09,182.515 372.515,174.05 377.275,165.27 C380.455,159.2 383.475,152.89 384.575,146.06 L384.575,146.06 Z" id="Shape" fill="#201A17"></path>
                <path d="M348.165,147.9 C350.24,147.98 352.91,147.72 354.33,149.57 C353.79,151.13 353.015,152.595 352.425,154.135 C350.035,156.385 347.2,158.08 344.7,160.185 C343.28,161.38 341.805,162.54 340.07,163.23 C340.28,161.86 340.67,160.52 341.335,159.3 C343.405,155.38 345.925,151.725 348.165,147.9 L348.165,147.9 Z" id="Shape" fill="#201A17"></path>
                <path d="M112.855,200.79 C122.12,183.78 131.745,166.975 141.515,150.255 C143.275,150.455 145.385,150.405 146.655,151.865 C147.385,153.055 146.485,154.36 145.92,155.415 C136.18,171.955 126.705,188.655 117.505,205.5 C114.55,211.325 111.415,217.105 109.32,223.31 C108.67,225.435 108.08,228.04 109.535,229.975 C110.62,231.685 112.64,233.17 112.34,235.435 C112.06,237.57 110.02,238.83 108.3,239.795 C103.485,242.18 98.11,243.15 92.815,243.79 C88.7,244.285 84.255,244.48 80.46,242.54 C79.06,241.88 78.285,240.49 77.585,239.19 C78.085,239.23 79.09,239.315 79.59,239.36 C85.625,240.185 91.73,238.97 97.595,237.575 C101.1,236.5 105.105,235.35 107.215,232.105 C108.655,229.64 106.12,227.545 104.835,225.69 C103.27,223.78 103.755,221.16 104.49,219.02 C106.61,212.66 109.815,206.74 112.855,200.79 L112.855,200.79 Z" id="Shape" fill="#201A17"></path>
                <path d="M302.39,151.13 C305.525,152.78 308.02,155.845 308.15,159.5 C308.28,166.245 305.555,172.78 301.6,178.15 C296.865,184.54 290.65,189.71 283.975,193.97 C271.395,201.81 257.105,207.48 242.205,208.39 C239.855,208.715 239.815,211.665 239.745,213.495 C239.49,215.585 240.565,217.49 240.83,219.48 L240.515,219.79 C238.87,218.895 237.39,217.625 236.5,215.95 C234.885,213.11 234.91,209.705 235.2,206.55 C235.305,205.25 236.205,203.91 237.625,203.905 C247.235,203.45 256.56,200.615 265.36,196.85 C273.385,193.355 281.025,188.885 287.745,183.25 C294.065,177.9 299.715,171.265 302.185,163.23 C303.205,159.465 304.015,155.295 302.535,151.54 L302.39,151.13 L302.39,151.13 Z" id="Shape" fill="#201A17"></path>
                <path d="M261.295,161.815 C265.1,158.745 269.82,155.895 274.91,156.71 C276.895,157.01 278.145,158.975 277.915,160.915 C272.155,161.345 267.28,164.875 263.285,168.79 C257.635,174.485 253.025,181.14 249.075,188.105 C249.28,188.06 249.695,187.97 249.9,187.925 C247.195,189.385 244.16,190.155 241.14,190.585 C241.36,188.265 242.855,186.39 243.85,184.36 C248.58,176.1 254.045,168.08 261.295,161.815 L261.295,161.815 Z" id="Shape" fill="#1F1A17"></path>
                <path d="M180.09,164.065 C183.61,161.87 188.085,160.345 192.155,161.88 C193.815,162.385 193.735,165.015 192.365,165.7 C185.995,166.71 180.85,171.015 176.535,175.53 C170.43,182.23 165.48,189.95 161.65,198.155 C159.095,203.795 156.78,209.74 156.73,216.025 C154.935,215.78 153.02,214.93 152.455,213.05 C151.7,210.375 152.165,207.51 152.775,204.85 C155.14,195.955 159.48,187.7 164.605,180.095 C168.875,174 173.755,168.1 180.09,164.065 L180.09,164.065 Z" id="Shape" fill="#201917"></path>
                <path d="M344.39,173.895 C345.975,172.775 347.87,172.175 349.815,172.12 C349.905,174.45 349.355,176.72 348.88,178.985 C345.68,180.36 343.42,183.11 340.99,185.485 C334.585,192.3 329.395,200.145 324.705,208.205 C318.82,218.265 313.02,228.39 307.795,238.805 C306.765,240.74 304.99,242.19 302.955,242.96 C297.295,245.385 291.045,245.42 285,245.655 C282.9,245.56 280.43,245.725 278.78,244.19 C278.455,243.11 279.08,242.1 279.48,241.145 C286.205,241.15 293.245,240.96 299.405,237.945 C301.33,237.07 302.605,235.29 303.505,233.445 C306.53,227.13 310.065,221.085 313.445,214.955 C318.83,205.645 323.955,196.115 330.615,187.625 C334.64,182.535 338.955,177.525 344.39,173.895 L344.39,173.895 Z" id="Shape" fill="#201A17"></path>
                <path d="M274.615,218.045 C275.855,216.54 277.98,216.09 279.82,216.61 C279.91,218.67 280.02,220.81 279.27,222.78 C276.795,229.495 271.49,234.775 265.52,238.52 C254.4,245.495 240.28,247.445 227.685,243.8 C223.975,242.78 220.62,240.78 217.74,238.26 C217.165,237.65 215.835,237.285 216.27,236.225 C219.1,238.28 222.49,239.345 225.865,240.14 C237.65,242.595 250.41,240.555 260.635,234.115 C266.71,230.29 272.13,224.905 274.615,218.045 L274.615,218.045 Z" id="Shape" fill="#201917"></path>
                <path d="M158.64,230.625 C161.025,228.865 162.965,226.345 165.945,225.545 C164.935,228.85 163.47,232.035 163.1,235.51 C156.7,239.975 149.42,243.605 141.505,244.065 C137,244.49 131.575,243.165 129.4,238.79 L129.99,238.93 C131.94,239.465 133.97,239.755 136,239.645 C144.295,239.28 152.165,235.69 158.64,230.625 L158.64,230.625 Z" id="Shape" fill="#201A17"></path>
                <path d="M315.925,249.96 C318.13,246.975 320.84,244.19 324.395,242.885 C323.795,244.865 323.125,246.825 322.475,248.79 C319.685,256.335 317.94,264.205 316.035,272.005 C314,280.885 312.225,289.82 310.64,298.79 C307.04,321.03 302.43,343.325 293.8,364.22 C288.745,376.565 278.725,387.01 266.075,391.57 C257.035,394.93 247.025,395.4 237.64,393.27 C231.51,392 225.815,389.345 220.115,386.85 C216.885,385.415 213.935,383.44 211.17,381.255 C198.96,371.17 190.135,357.81 180.715,345.25 C176.135,339.2 171.49,333.195 166.59,327.4 C165.9,326.41 165.225,325.41 164.565,324.405 C168.355,325.97 171.93,327.985 175.46,330.055 C191.475,339.565 206.205,351.19 222.815,359.7 C230.805,363.725 239.42,367.255 248.5,367.27 C254.955,367.395 261.41,365.01 266.25,360.735 C271.815,355.84 275.64,349.29 278.46,342.51 C281.67,334.695 284.335,326.67 287.115,318.7 C293.04,301.395 298.855,284.015 306.315,267.295 C309.075,261.29 312.015,255.31 315.925,249.96 L315.925,249.96 Z" id="Shape" fill="#E67817"></path>
                <path d="M322.475,248.79 C323.985,248.175 325.47,247.51 326.995,246.93 C325.895,250.62 324.395,254.175 323.35,257.885 C319.38,271.66 316.375,285.695 313.805,299.79 C310.075,322.7 305.595,345.715 296.79,367.29 C294.57,373.01 291.155,378.15 287.38,382.955 C283.665,386.47 279.87,389.995 275.315,392.42 C272.095,394.175 268.69,395.58 265.18,396.64 C264.33,396.895 263.475,397.13 262.63,397.38 C260.955,397.665 259.28,397.92 257.6,398.16 C252.51,398.475 247.36,398.525 242.33,397.56 C235.335,396.405 228.845,393.44 222.42,390.57 C218.015,388.57 214.18,385.555 210.555,382.395 C210.71,382.11 211.015,381.54 211.17,381.255 C213.935,383.44 216.885,385.415 220.115,386.85 C225.815,389.345 231.51,392 237.64,393.27 C247.025,395.4 257.035,394.93 266.075,391.57 C278.725,387.01 288.745,376.565 293.8,364.22 C302.43,343.325 307.04,321.03 310.64,298.79 C312.225,289.82 314,280.885 316.035,272.005 C317.94,264.205 319.685,256.335 322.475,248.79 L322.475,248.79 Z" id="Shape" fill="#211916"></path>
                <path d="M120.245,256.145 C120.865,256.13 121.49,256.115 122.115,256.1 C122.25,265.535 122.18,274.97 122.145,284.405 C117.89,284.17 113.1,285.285 109.385,282.615 C104.53,279.29 104.54,271.235 109.24,267.77 C112.3,265.155 116.52,265.72 120.24,265.655 C120.29,262.485 120.32,259.315 120.245,256.145 Z M110.53,269.02 C113.315,266.93 116.995,267.77 120.22,267.585 C120.33,272.66 120.345,277.74 120.195,282.815 C117.015,282.715 113.47,283.245 110.72,281.27 C106.615,278.61 106.575,271.83 110.53,269.02 Z" id="Combined-Shape" fill="#341703"></path>
                <path d="M203.23,256.155 C203.82,256.145 204.415,256.14 205.01,256.135 C205.23,265.54 205.185,274.96 205.035,284.365 C204.425,284.355 203.82,284.35 203.22,284.35 C203.265,274.95 203.25,265.55 203.23,256.155 L203.23,256.155 Z" id="Shape" fill="#321602"></path>
                <path d="M85.19,256.735 C91.315,255.05 98.195,258.27 101.105,263.855 C103.505,268.355 103.34,274.19 100.415,278.42 C97.015,283.765 89.87,286.225 83.9,284.06 C78.935,282.34 75.18,277.675 74.525,272.465 C73.46,265.535 78.315,258.275 85.19,256.735 Z M86.185,258.28 C89.335,257.74 92.725,258.23 95.37,260.105 C98.77,262.38 101.09,266.345 100.92,270.495 C101.31,277.21 95.235,283.45 88.5,283.2 C81.81,283.35 75.935,277.12 76.205,270.495 C76.095,264.74 80.515,259.295 86.185,258.28 Z" id="Combined-Shape" fill="#361701"></path>
                <path d="M167.79,256.22 L169.73,256.22 C169.74,259.365 169.775,262.51 169.715,265.655 C171.865,265.735 174.02,265.74 176.17,265.75 C176.155,266.395 176.14,267.045 176.12,267.7 C174.005,267.67 171.885,267.675 169.77,267.73 C169.77,271.325 169.69,274.925 169.77,278.52 C169.805,280.06 170.15,282.035 171.82,282.61 C173.18,282.945 174.605,282.845 175.995,282.915 C175.98,283.295 175.94,284.055 175.92,284.435 C173.825,284.285 171.39,284.815 169.63,283.375 C167.99,282.14 167.87,279.885 167.8,278.01 C167.79,270.745 167.775,263.485 167.79,256.22 L167.79,256.22 Z" id="Shape" fill="#321804"></path>
                <path d="M254.085,256.425 C254.63,256.58 255.16,256.78 255.685,257.025 C255.645,257.38 255.565,258.085 255.525,258.435 C254.795,258.535 254.065,258.61 253.33,258.67 C253.58,257.92 253.72,257.13 254.085,256.425 L254.085,256.425 Z" id="Shape" fill="#592200"></path>
                <path d="M133.165,265.665 C138.975,263.855 145.475,268.955 145.26,275 C145.465,280.735 139.64,285.64 134.03,284.505 C129.375,283.79 125.705,279.23 126.115,274.52 C126.165,270.445 129.235,266.675 133.165,265.665 Z M133.18,267.63 C137.91,265.74 143.63,269.93 143.33,275 C143.56,279.215 139.72,283.12 135.49,282.895 C130.99,282.99 127.285,278.415 127.98,274.035 C128.3,271.125 130.445,268.6 133.18,267.63 Z" id="Combined-Shape" fill="#341702"></path>
                <path d="M148.42,272.49 C148.88,267.22 155.32,263.81 160.025,266.005 C162.805,267.13 164.76,269.995 164.795,272.99 C164.87,276.79 164.755,280.585 164.82,284.385 C164.205,284.38 163.6,284.38 162.995,284.39 C162.745,280.59 162.98,276.785 162.86,272.985 C162.87,269.705 159.68,267.045 156.495,267.205 C153.2,267.29 150.32,270.26 150.25,273.54 C150.15,277.15 150.275,280.765 150.185,284.38 C149.725,284.375 148.8,284.365 148.34,284.36 C148.365,280.405 148.155,276.44 148.42,272.49 L148.42,272.49 Z" id="Shape" fill="#341802"></path>
                <path d="M186.2,265.745 C190.86,264.175 196.27,266.99 197.945,271.545 C199.435,275.205 198.275,279.71 195.27,282.25 C192.22,285.055 187.29,285.395 183.84,283.14 C180.67,281.13 178.795,277.205 179.48,273.485 C180.025,269.925 182.75,266.78 186.2,265.745 Z M187.735,267.29 C191.44,266.595 195.27,269.13 196.355,272.68 C198,277.225 194.345,282.755 189.485,282.89 C185.11,283.335 181.1,279.315 181.23,274.995 C181.175,271.29 184.105,267.9 187.735,267.29 Z" id="Combined-Shape" fill="#331703"></path>
                <path d="M216.195,265.755 C218.725,264.935 221.56,265.34 223.83,266.69 C227.4,268.765 229.415,273.31 228.29,277.325 C227.475,280.695 224.7,283.49 221.33,284.32 C216.54,285.715 211.05,282.525 209.77,277.725 C208.105,272.865 211.315,267.145 216.195,265.755 Z M216.66,267.575 C221.22,265.915 226.52,269.71 226.705,274.49 C227.08,278.79 223.4,283.055 219,282.9 C214.965,283.065 211.415,279.46 211.23,275.51 C210.99,272.05 213.325,268.58 216.66,267.575 Z" id="Combined-Shape" fill="#341701"></path>
                <path d="M231.56,273.025 C232.28,269.02 236.025,265.935 240.04,265.695 C242.64,265.555 245.25,265.665 247.86,265.645 C247.88,272.93 247.93,280.22 247.855,287.505 C247.845,291.995 243.475,295.87 239.01,295.335 C234.75,295.165 231.45,291.34 231.08,287.23 C231.665,287.195 232.25,287.165 232.84,287.14 C233.405,288.79 233.86,290.59 235.135,291.865 C237.71,294.44 242.56,294.2 244.7,291.17 C246.21,289.255 246.165,286.7 246.155,284.39 C242.985,284.245 239.6,284.805 236.66,283.32 C232.84,281.63 230.65,277.075 231.56,273.025 Z M236.1,269.105 C238.94,266.995 242.67,267.705 245.965,267.61 C246.19,272.595 246.175,277.6 245.96,282.59 C242.465,282.625 238.38,282.98 235.64,280.365 C232.42,277.435 232.635,271.74 236.1,269.105 Z" id="Combined-Shape" fill="#2F1605"></path>
                <path d="M262.12,265.68 C265.07,265.74 268.02,265.585 270.965,265.74 C273.04,265.845 275.13,267.03 276.025,268.955 C276.64,270.555 276.6,272.31 276.625,274 C276.58,277.46 276.72,280.93 276.405,284.385 C272.945,284.37 269.485,284.465 266.025,284.36 C262.575,284.355 260.23,280.7 260.39,277.515 C260.54,274.5 263.135,272.055 266.035,271.585 C268.91,271.115 271.84,271.47 274.74,271.32 C274.295,269.815 273.685,267.875 271.83,267.72 C268.6,267.395 265.335,267.76 262.1,267.405 C262.105,266.825 262.11,266.25 262.12,265.68 Z M262.195,277.495 C262.56,275.225 264.675,273.415 266.97,273.355 C269.53,273.2 272.105,273.325 274.67,273.325 C274.74,276.48 274.75,279.64 274.635,282.8 C271.67,282.695 268.69,282.995 265.74,282.62 C263.375,282.25 261.79,279.815 262.195,277.495 Z" id="Combined-Shape" fill="#301703"></path>
                <path d="M253.695,266.17 C254.245,266.15 254.8,266.14 255.36,266.13 C255.585,268.575 255.685,271.04 255.555,273.5 C255.29,277.115 255.51,280.74 255.37,284.36 C254.81,284.35 254.25,284.345 253.695,284.345 C253.67,278.285 253.685,272.225 253.695,266.17 L253.695,266.17 Z" id="Shape" fill="#2E1601"></path>
                <path d="M159.85,314.94 C172.36,311.055 185.35,308.255 198.5,308.27 C209.38,308.14 220.305,310.05 230.455,313.99 C231.455,314.38 232.47,314.735 233.52,314.99 C235.865,315.46 238.095,316.605 239.675,318.43 C238.695,318.265 237.72,318.06 236.79,317.715 C225.94,313.37 214.175,311.415 202.505,311.74 C181.325,312.125 161.09,319.37 141.63,327.11 C126.955,333.01 113.445,341.46 98.685,347.145 C86.425,351.3 73.055,352.18 60.345,349.795 C54.085,348.69 48.3,345.98 42.525,343.45 C39.725,342.225 37.12,340.615 34.555,338.97 C40.78,341.605 46.875,344.75 53.545,346.11 C64.57,348.455 76.09,348.01 87.04,345.465 C92.45,344.22 97.53,341.925 102.555,339.625 C112.405,335.01 121.945,329.74 131.905,325.35 C141.055,321.465 150.39,318 159.85,314.94 L159.85,314.94 Z" id="Shape" fill="#201A16"></path>
                <path d="M166.59,327.4 C171.49,333.195 176.135,339.2 180.715,345.25 C190.135,357.81 198.96,371.17 211.17,381.255 C211.015,381.54 210.71,382.11 210.555,382.395 C203.72,376.205 198.07,368.86 192.545,361.51 C186.84,354.19 181.63,346.49 175.76,339.295 C172.73,335.31 169.09,331.77 166.59,327.4 L166.59,327.4 Z" id="Shape" fill="#361701"></path>
            </g>
        </g>
    </g>
</svg>