<?xml version="1.0" encoding="UTF-8" standalone="no"?>
<svg
   xmlns:dc="http://purl.org/dc/elements/1.1/"
   xmlns:cc="http://creativecommons.org/ns#"
   xmlns:rdf="http://www.w3.org/1999/02/22-rdf-syntax-ns#"
   xmlns:svg="http://www.w3.org/2000/svg"
   xmlns="http://www.w3.org/2000/svg"
   xmlns:sodipodi="http://sodipodi.sourceforge.net/DTD/sodipodi-0.dtd"
   xmlns:inkscape="http://www.inkscape.org/namespaces/inkscape"
   width="1000pt"
   height="1000pt"
   viewBox="0 0 1000 1000"
   version="1.1"
   id="svg2"
   inkscape:version="0.48.4 r9939"
   sodipodi:docname="logo-lider.svg">
  <metadata
     id="metadata160">
    <rdf:RDF>
      <cc:Work
         rdf:about="">
        <dc:format>image/svg+xml</dc:format>
        <dc:type
           rdf:resource="http://purl.org/dc/dcmitype/StillImage" />
        <dc:title></dc:title>
      </cc:Work>
    </rdf:RDF>
  </metadata>
  <defs
     id="defs158" />
  <sodipodi:namedview
     pagecolor="#ffffff"
     bordercolor="#666666"
     borderopacity="1"
     objecttolerance="10"
     gridtolerance="10"
     guidetolerance="10"
     inkscape:pageopacity="0"
     inkscape:pageshadow="2"
     inkscape:window-width="1920"
     inkscape:window-height="1018"
     id="namedview156"
     showgrid="false"
     inkscape:zoom="0.39480414"
     inkscape:cx="309.28272"
     inkscape:cy="391.5864"
     inkscape:window-x="-8"
     inkscape:window-y="-8"
     inkscape:window-maximized="1"
     inkscape:current-layer="svg2" />
  <path
     d="m 475.63794,8.1052843 63.79,0 c 5.56,0.67 11.13,1.44 16.75,1.63 83.72,7.4599997 165.51,36.2299997 235.29,83.1399997 28.24,19.139996 54.82,40.879996 78.43,65.539996 50.46,51.28 89.18,113.88 113.43004,181.56 16.61,46.2 25.92002,94.86 28.83002,143.83 l 0,51.61 c -0.75,5.55 -1.46,11.11 -1.7,16.72 -3.33,36.5 -10.59002,72.64 -21.77002,107.55 -23.51,74.31 -64.80004,142.92004 -119.53004,198.43004 -52.92,53.85 -118.2,95.47 -189.35,120.7 -44.88,16.1 -92.09,25.44998 -139.65,28.34998 -61.78,3.43 -124.16,-4.99 -182.97,-24.19998 -64.1,-20.85 -123.9,-54.83 -174.53,-99.33 -12.28,-10.7 -23.66,-22.37 -35.02,-34.02 C 75.697956,773.00528 28.937952,673.18528 16.217952,568.84528 c -14.5200003,-113.52 12.53,-231.53 73.590004,-328.19 36.459984,-57.83 85.069984,-107.93 141.689984,-146.249996 65.74,-44.77 142.31,-73.53 221.29,-82.98 9.45,-1.31 18.98,-2.0899997 28.52,-2.2099997 -1.88,-0.42 -3.78,-0.8 -5.67,-1.11 z"
     id="path6"
     inkscape:connector-curvature="0"
     style="fill:#e67818" />
  <path
     d="m 476.59794,25.725284 c 19.13,-1.65 38.37,-1.26 57.56,-1 9.74,0.92 19.54,1.05 29.23,2.52 24.16,2.2 48.01,7.04 71.52,12.96 10,2.46 19.75,5.79 29.59,8.82 7.22,2.13 14.29,4.72 21.28,7.5 10.67,4.53 21.66,8.33 31.92,13.78 35.76,16.46 69.21,37.739996 99.8,62.469996 10.43,8.86 21.12,17.47 30.68,27.3 13.65,13.39 27.12,27.05 38.77,42.26 22.65,27.38 41.75,57.62 57.67,89.37 14.85,28.69 25.98004,59.21 34.58004,90.32 8.03,31.46 14.11,63.56 15.66,96.04 1.07,8.98 0.79,18.02 0.9,27.04 0.43,31.11 -2.82,62.19 -8.46,92.76 -4.37,22.54 -9.81,44.94 -17.62,66.56 -15.50004,46.36 -38.67004,90.1 -67.74004,129.37004 -10.07,14.7 -22.04,27.97 -33.81,41.31 -14.44,14.89 -29.1,29.62 -45.07,42.89 -12.01,10.48 -25.06,19.67 -37.92,29.06 -32.97,21.96 -68.28,40.56 -105.47,54.29 -36.25,13.36 -74.1,22.3 -112.47,26.77 -12.98,1.3 -25.98,2.78 -39.04,2.59 -15.89,-0.07 -31.82,0.58 -47.67,-0.64 -43.98,-2.41 -87.35,-12.14 -128.94,-26.43 -31.04,-11.38 -61.35,-25.06 -89.54,-42.4 -19.32,-11.59 -37.8,-24.56 -55.23,-38.83 -5.7,-5.33 -12.09,-9.83 -17.81,-15.12 -6.48,-5.51 -12.24,-11.76 -18.26,-17.73 -14.97,-14.42 -28.53,-30.25 -41.27,-46.65 -11.00998,-15.5 -22.77998,-30.56004 -31.819984,-47.34004 -4.26,-6.91 -8.28,-13.95 -11.87,-21.22 -4.5,-7.71 -8.51,-15.67 -11.99,-23.88 -25.890004,-55.57 -41.000004,-116.14 -44.040004,-177.37 -0.35,-26.18 -0.97,-52.48 2.17,-78.52 3.43,-30.33 9.68,-60.33 18.93,-89.42 5.94,-21.62 15.020004,-42.18 23.880004,-62.72 24.32,-50.87 56.739984,-98.16 97.369984,-137.41 14.44,-15.02 30.36,-28.49 46.78,-41.26 17.87,-13.52 36.48,-26.139996 56.19,-36.839996 23.65,-13.72 48.75,-24.8 74.37,-34.28 41.01,-14.29 83.82,-23.85 127.19,-26.92 z"
     id="path10"
     inkscape:connector-curvature="0"
     style="fill:#c1c1c1" />
  <path
     d="m 481.57794,45.605284 c 88.66,-6.01 178.81,14.38 256.39,57.639996 58.71,32.57 110.02,78.28 149.38,132.66 38.88,53.7 66.16,115.77 79.21004,180.78 14,69.06 11.78,141.34 -6.39,209.42 -17.99004,68.34 -51.79004,132.47 -98.25004,185.74004 -45.53,52.23 -102.93,94.06 -166.59,121.42 -44.49,19.07 -91.94,31.36 -140.16,35.75 -69.11,6.6 -139.62,-3.06 -204.64,-27.32 -63.06,-23.46 -120.99,-60.79 -168.05,-108.92 -49.82,-50.5 -87.639984,-112.71004 -109.889984,-180.06004 -12.76,-38.67 -20.410004,-79.02 -22.670004,-119.68 -3.81,-68.44 8.11,-137.64 34.120004,-201.04 21.990004,-54.12 54.569984,-103.84 95.139984,-145.86 42.61,-44.02 94.01,-79.52 150.31,-103.709996 48.11,-20.81 99.81,-33.25 152.09,-36.82 z"
     id="path12"
     inkscape:connector-curvature="0"
     style="fill:#ffffff" />
  <path
     d="m 261.80794,157.76528 c 70.51,-50.47 156.57,-79.389996 243.36,-80.349996 115.65,-2.55 231.68,44.309996 312.65,127.029996 50.14,49.99 87.01,112.93 107.36,180.67 0.89,3.17 2.18,6.27 2.52,9.57 -0.06,10.86 1.84,21.62 2.09,32.47 0.38,15.13 0.89,30.29 -0.02,45.41 -0.28,7.04 -1,14.05 -1.03,21.1 -1.8,10.75 -2.66,21.64 -4.55,32.38 -1.45,7.59 -2.23,15.28 -3.42,22.92 -1.92,8.45 -4,16.87 -6.47,25.18 -2.04,5.47 -3.89,11 -5.3,16.67 -4.22,15.33 -11.04,29.81 -15.19,45.16 -2.85,5.09 -4.97,10.52 -7.13,15.92 -6.85,11.65 -11.73,24.33 -18.94,35.78 -6.38,12.28 -14.51,23.49 -21.87,35.17 -14.74,20.61 -30.32,40.71 -48.07,58.84004 -8.89,10.08 -18.97,18.99 -28.55,28.38 -11.07,8.59 -21.29,18.24 -32.69,26.42 -7.74,5.38 -14.98,11.62 -23.64,15.53 7.55,-9.61 14.38,-19.89 18.82,-31.33 17.61,-43.15 26.57,-89.18004 34.03,-135.00004 5.14,-28.19 11.15,-56.26 19.09,-83.81 2.09,-7.42 5.09,-14.53 7.29,-21.91 -3.05,1.16 -6.02,2.49 -9.04,3.72 1.3,-3.93 2.64,-7.85 3.84,-11.81 -7.11,2.61 -12.53,8.18 -16.94,14.15 -7.82,10.7 -13.7,22.66 -19.22,34.67 -14.92,33.44 -26.55,68.2 -38.4,102.81 -5.56,15.94 -10.89,31.99 -17.31,47.62 -5.64,13.56004 -13.29,26.66004 -24.42,36.45004 -9.68,8.55 -22.59,13.32 -35.5,13.07 -18.16,-0.03 -35.39,-7.09 -51.37,-15.14 -33.22,-17.02 -62.68,-40.27004 -94.71,-59.29004 -7.06,-4.14 -14.21,-8.17 -21.79,-11.3 1.32,2.01 2.67,4.01 4.05,5.99 5,8.74 12.28,15.82 18.34,23.79 11.74,14.39004 22.16,29.79004 33.57,44.43004 11.05,14.7 22.35,29.39 36.02,41.77 7.25,6.32 14.92,12.35 23.73,16.35 12.85,5.74 25.83,11.67 39.82,13.98 10.06,1.93 20.36,1.83 30.54,1.2 -6.12,1.03 -12.34,1.17 -18.53,1.3 6.34,0.56 12.72,0.66 19.08,0.36 -0.5,1.09 -0.98,2.19 -1.46,3.3 -3.1,1.22 -6.19,2.46 -9.21,3.86 -7.81,3.57 -15.52,7.38 -23.63,10.21 -10.98,3.79 -21.69,8.42 -33.02,11.12 -13.33,4.67 -27.2,7.38 -40.89,10.79 -16.81,2.36 -33.52,5.44 -50.45,6.86 -17.05,1.98 -34.22,2.04 -51.35,2.45 -9.53,-0.99 -18.89,-3.32 -28.23,-5.39 -77.22,-17.71 -149.48,-57.11 -205.63,-113.06 -72.51,-71.11004 -118.259984,-168.77004 -126.589984,-269.98004 -1.22,-8.99 -0.98,-18.09 -1.17,-27.15 0.07,-16.34 -0.43,-32.74 1.47,-49 6.76,-73.46 32.790004,-145.08 74.849984,-205.69 27.99,-40.52 63.13,-76.03 103.21,-104.64 z"
     id="path14"
     inkscape:connector-curvature="0"
     style="fill:#e67817" />
  <path
     d="m 536.00794,87.855284 c 1.61,-0.29 3.24,-0.46 4.88,-0.61 -0.74,1.65 -1.53,3.27 -2.28,4.92 4.07,0.35 8.13,0.93 12.18,1.52 -7.01,1.95 -13.92,4.26 -20.84,6.499996 3.34,-4.089996 6.71,-8.159996 9.7,-12.519996 -0.91,0.05 -2.73,0.15 -3.64,0.19 z"
     id="path16"
     inkscape:connector-curvature="0"
     style="fill:#e8a060" />
  <path
     d="m 526.28794,91.365284 c 3.21,-1.24 6.34,-2.74 9.72,-3.51 0.91,-0.04 2.73,-0.14 3.64,-0.19 -2.99,4.36 -6.36,8.43 -9.7,12.519996 -5.77,5.5 -10.57,11.91 -15.76,17.93 -28.67,34.2 -56.19,69.37 -82.86,105.14 -54.4,73.41 -105.96,149.25 -148.75,230.09 -19.15,36.79 -36.67,74.68 -48.29,114.59 -5.92,20.54 -10.15,41.73 -10.45,63.17 -0.06,17.62 3.03,35.8 12.22,51.09 6.47,10.9 16.07,19.8 27.09,25.98 13.16,7.63 29.02,11.61 44.09,8.15 15.01,-1.36 29.18,-6.84 43.39,-11.5 18.95,-6.3 37.71,-13.3 57.18,-17.88 17.48,-4.13 35.34,-6.91 53.3,-7.57 35.79,-3.17 72.26,2.48 105.41,16.36 13.53,5.26 26.31,12.18 39.25,18.7 -0.14,0.42 -0.43,1.24 -0.57,1.65 -2.1,-0.51 -4.13,-1.22 -6.13,-2 -20.3,-7.88 -42.15,-11.7 -63.91,-11.44 -26.3,-0.03 -52.28,5.57 -77.3,13.34 -18.92,6.12 -37.59,13.05 -55.89,20.82 -19.92,8.78 -39,19.32 -58.7,28.55 -10.05,4.6 -20.21,9.19004 -31.03,11.68004 -21.9,5.09 -44.94,5.98 -66.99,1.29 -13.34,-2.72 -25.53,-9.01004 -37.98,-14.28004 -14.73,-7.07 -28.55,-16.43 -39.46,-28.69 -13.34,-14.62 -21.96,-33.24 -25.52,-52.65 -3.4,-17.24 -3.36,-35.02 -1.46,-52.44 5.19,-43.56 20.65,-85.13 38.76,-124.83 18.44,-40.24 40.49,-78.68 63.3,-116.57 31.18,-51 65.99,-99.8 104.3,-145.69 21.23,-25.34 43.61,-49.72 67.49,-72.59 11.73,-11.68 24.34,-22.43 36.97,-33.12 11.66,-8.96 23.26,-18.03 35.69,-25.91 12.33,-7.89 25.27,-14.919996 38.95,-20.189996 z"
     id="path18"
     inkscape:connector-curvature="0"
     style="fill:#ffffff" />
  <path
     d="m 470.57794,92.635284 c 18.51,-1.98 37.14,-1.24 55.71,-1.27 -13.68,5.27 -26.62,12.299996 -38.95,20.189996 -2.09,-0.6 -4.2,-1.13 -6.28,-1.73 -0.66,1.03 -1.31,2.06 -1.97,3.08 -3.94,0.65 -7.82,1.55 -11.68,2.56 -6.74,-4.83 -15.12,-1.67 -22.69,-2.82 -9.83,-1.4 -19.65,0.77 -29.5,0.2 -4.41,-0.43 -7.36,3.62 -11.32,4.56 -4.03,-0.75 -7.55,-3.39 -11.72,-3.54 -5.1,1.44 -9.38,4.83 -14.25,6.85 0.29,-1.56 0.6,-3.11 0.91,-4.66 -13.4,3.27 -26.5,7.85 -38.96,13.76 -3.06,1.37 -6.25,2.44 -9.37,3.69 -5.56,2.15 -10.15,6.19 -15.78,8.21 -7.42,2.83 -14.85,5.94 -21.2,10.8 -5.71,4.47 -12.22,7.72 -18.11,11.93 -10.17,6.99 -21.35,12.96 -29.56,22.38 -3.02,3.48 -7.04,5.76 -10.85,8.23 -3.64,2.3 -5.97,6 -8.85,9.1 -3.05,3.31 -7.17,5.38 -10.26,8.65 -1.82,1.89 -3.36,4.03 -5.04,6.04 -3.59,4.38 -8.31,7.68 -11.68,12.25 -5.08,6.65 -8.91,14.59 -16.29,19.11 0.4,2.47 0.82,4.94 1.25,7.41 -2.04,-0.41 -4.09,-0.78 -6.13,-1.17 -0.45,2.06 -1.04,4.09 -1.52,6.16 -5.98,5.05 -7.78,12.94 -9.21,20.28 -2.04,0.98 -4.29,1.69 -6.02,3.21 -0.93,2.42 -1.24,5.03 -1.93,7.53 -1.06,4.38 -3.85,8.13 -4.66,12.59 -0.79,4.14 -1.2,8.44 -3.16,12.25 -1.81,3.6 -2.87,7.5 -3.5,11.46 -0.91,5.9 -4.06,11.18 -4.72,17.13 -0.48,3.76 -0.98,7.53 -2.09,11.16 -2.39,7.75 -2.48,15.92 -3.73,23.87 -1.71,15.27 -1.45,30.67 -1.1,46 0.88,8.36 0.84,16.94 3.56,25 3.8,-7.32 6.17,-15.36 11.27,-21.96 -1.71,7.49 -5.03,14.48 -7.09,21.87 -1.04,3.76 -2.15,7.54 -4.09,10.95 -4.18,6.66 -4.91,14.61 -7.16,21.98 -1.68,5.88 -3.49,11.72 -5.46,17.51 0.36,-6.99 1,-14.01 0.32,-21.01 -1.11,0.35 -2.22,0.7 -3.32,1.07 0.54,-3.71 0.41,-7.48 -0.61,-11.08 -1.43998,-4.91 0.08,-10.05 -0.98,-15 -0.79998,-4.07 -1.49998,-8.17 -2.13998,-12.27 -0.87,-5.5 -2.82,-10.78 -3.43,-16.34 -1.18,-10.3 -2.1,-20.88 0.31,-31.07 1.08,-4.88 3.15,-9.57 3.35,-14.6 0.18,-4.39 -1.46,-8.63 -1.29,-13.01 0.75,-3.52 2.72,-6.68 3.23998,-10.27 2.22,-13.73 8.54,-26.3 14.13,-38.89 4,-9.22 10.58,-17.17 13.46,-26.88 1.56,-4.64 4.47,-8.63 7.03,-12.74 16.71,-25.34 35.6,-49.36 57.42,-70.51 68.05,-67.48 160.1,-110.41 255.69,-118.199996 z"
     id="path20"
     style="fill:#f2b581;fill-opacity:1;stroke:#f2b581;stroke-opacity:1"
     inkscape:connector-curvature="0" />
  <path
     d="m 552.59794,93.585284 c 0.7,0.25 1.4,0.51 2.11,0.77 8.29,3.95 17.76,2.93 26.32,5.899996 7.41,2.47 15.22,3.85 22.17,7.55 4.21,2.27 9.02,2.82 13.72,3.11 -1.78,1.15 -3.58,2.27 -5.25,3.57 4.8,2.9 10.84,3.17 15.24,6.81 4.85,3.86 9,8.5 13.59,12.65 2.93,2.7 7.13,2.86 10.63,4.44 1.24,1.1 1.66,2.82 2.46,4.24 -9.87,1.42 -19.73,-0.77 -29.62,-0.39 -8.05,-0.05 -16.02,-1.26 -24.05,-1.65 -8.92,-0.41 -17.84,-0.88 -26.76,-0.81 -7.14,-0.01 -14.27,0.91 -21.39,0.08 11.14,-2.93 22.64,0.3 33.89,-1.49 3.4,-0.5 6.72,-1.41 10.05,-2.29 -8.93,-7.31 -19.7,-11.63 -29.93,-16.71 -4.02,-2.01 -8.5,-2.69 -12.93,-3.04 -0.29,-2.32 -0.56,-4.64 -0.8,-6.96 -3.05,2.23 -6.61,4.15 -10.43,2.69 3.58,-5.29 7.96,-10.16 10.07,-16.309996 0.23,-0.54 0.68,-1.62 0.91,-2.16 z"
     id="path22"
     style="fill:#f2b581;fill-opacity:1;stroke:#f2b581;stroke-opacity:1"
     inkscape:connector-curvature="0" />
  <path
     d="m 529.94794,100.18528 c 6.92,-2.239996 13.83,-4.549996 20.84,-6.499996 0.17,0.4 0.51,1.18 0.68,1.58 l -0.02,0.69 c -5.87,5.309996 -10.76,11.539996 -16.05,17.399996 -8.61,10.12 -17.27,20.22 -25.53,30.64 -52.92,64.83 -102.58,132.35 -148.48,202.34 -22.33,34.49 -43.77,69.59 -63.15,105.83 -19.71,36.86 -37.64,74.88 -50.27,114.8 -7.2,23.7 -13.05,48.21 -12.56,73.14 -0.27,19.49 4.38,39.7 16.32,55.43 3.49,4.86 8.31,8.52 12.16,13.06 l -0.74,-0.42 c -11.02,-6.18 -20.62,-15.08 -27.09,-25.98 -9.19,-15.29 -12.28,-33.47 -12.22,-51.09 0.3,-21.44 4.53,-42.63 10.45,-63.17 11.62,-39.91 29.14,-77.8 48.29,-114.59 42.79,-80.84 94.35,-156.68 148.75,-230.09 26.67,-35.77 54.19,-70.94 82.86,-105.14 5.19,-6.02 9.99,-12.43 15.76,-17.93 z"
     id="path24"
     inkscape:connector-curvature="0"
     style="fill:#201a17" />
  <path
     d="m 554.70794,94.355284 c 6.17,-0.36 12.25,0.88 18.31,1.93 22.23,3.71 44.22,9.039996 65.53,16.449996 4.59,1.57 9.35,2.84 13.54,5.38 7.06,4.9 15.5,6.99 22.99,11.08 6.31,3.33 13.02,5.96 18.9,10.07 6.11,4.58 13.47,7.66 18.2,13.88 2.69,3.52 7.07,4.75 11.03,6.23 -14.43,0.58 -27.95,-5.9 -42.22,-7.08 -7.35,-0.88 -14.46,-3.04 -21.75,-4.26 -11.67,-2.48 -23.6,-3.4 -35.27,-5.8 9.89,-0.38 19.75,1.81 29.62,0.39 -0.8,-1.42 -1.22,-3.14 -2.46,-4.24 -3.5,-1.58 -7.7,-1.74 -10.63,-4.44 -4.59,-4.15 -8.74,-8.79 -13.59,-12.65 -4.4,-3.64 -10.44,-3.91 -15.24,-6.81 1.67,-1.3 3.47,-2.42 5.25,-3.57 -4.7,-0.29 -9.51,-0.84 -13.72,-3.11 -6.95,-3.7 -14.76,-5.08 -22.17,-7.55 -8.56,-2.969996 -18.03,-1.949996 -26.32,-5.899996 z"
     id="path26"
     style="fill:#f2b581;fill-opacity:1"
     inkscape:connector-curvature="0" />
  <path
     d="m 551.44794,95.955284 0.24,-0.21 c -2.11,6.149996 -6.49,11.019996 -10.07,16.309996 3.82,1.46 7.38,-0.46 10.43,-2.69 0.24,2.32 0.51,4.64 0.8,6.96 4.43,0.35 8.91,1.03 12.93,3.04 10.23,5.08 21,9.4 29.93,16.71 -3.33,0.88 -6.65,1.79 -10.05,2.29 -11.25,1.79 -22.75,-1.44 -33.89,1.49 -6.55,1.17 -13.23,1.21 -19.83,1.89 -7.38,0.56 -14.67,1.96 -22.07,2.25 8.26,-10.42 16.92,-20.52 25.53,-30.64 5.29,-5.86 10.18,-12.09 16.05,-17.399996 z"
     id="path28"
     style="fill:#f2b581;fill-opacity:1"
     inkscape:connector-curvature="0" />
  <path
     d="m 481.05794,109.82528 c 2.08,0.6 4.19,1.13 6.28,1.73 -12.43,7.88 -24.03,16.95 -35.69,25.91 -3.19,0.46 -6.28,1.43 -9.3,2.53 -1.15,-0.98 -2.28,-1.96 -3.41,-2.94 -2.93,0.77 -6.12,1.06 -8.73,2.71 -0.34,1.19 -0.47,2.43 -0.64,3.66 -2.46,-1.56 -5.1,-3.25 -8.15,-3.01 -8.31,0.21 -16.56,1.35 -24.83,2.06 -5.85,0.51 -11.83,-0.02 -17.56,1.53 -6.99,1.83 -13.32,5.55 -20.32,7.36 -7.76,2.04 -15.35,4.69 -23.2,6.39 -6.9,1.38 -12.51,5.83 -18.75,8.79 -7.15,3.38 -13.67,7.9 -20.59,11.7 -7.19,4.3 -14.47,8.54 -20.96,13.88 -5.51,4.51 -11.68,8.23 -16.69,13.35 -4.65,4.69 -9.37,9.35 -14.66,13.34 -7.46,5.55 -12.08,13.87 -18.84,20.14 -2.97,3.01 -7.08,5.38 -8.25,9.72 -2.79,9.71 -11.24,16.09 -17.54,23.48 -2.83,4.77 -2.7,10.68 -5.31,15.6 -7.68,16.31 -16.69,32.32 -20.11,50.22 -0.47,2.92 0.61,5.77 0.56,8.68 -2.34,3.43 -7.01,5.47 -7.54,9.99 -0.86,6.82 1.39,13.66 0.23,20.47 -0.96,5.44 -4.92,10.12 -4.61,15.82 0.13,1.31 0.22,2.62 0.28,3.94 1.43,-2.07 2.72,-4.24 4.16,-6.31 0.71,-0.39 1.42,-0.79 2.12,-1.19 -2.32,8.52 -7.06,16.1 -10.3,24.28 -2.69,5.74 -4.27,11.99 -7.51,17.47 -5.1,6.6 -7.47,14.64 -11.27,21.96 -2.72,-8.06 -2.68,-16.64 -3.56,-25 -0.35,-15.33 -0.61,-30.73 1.1,-46 1.25,-7.95 1.34,-16.12 3.73,-23.87 1.11,-3.63 1.61,-7.4 2.09,-11.16 0.66,-5.95 3.81,-11.23 4.72,-17.13 0.63,-3.96 1.69,-7.86 3.5,-11.46 1.96,-3.81 2.37,-8.11 3.16,-12.25 0.81,-4.46 3.6,-8.21 4.66,-12.59 0.69,-2.5 1,-5.11 1.93,-7.53 1.73,-1.52 3.98,-2.23 6.02,-3.21 1.43,-7.34 3.23,-15.23 9.21,-20.28 0.48,-2.07 1.07,-4.1 1.52,-6.16 2.04,0.39 4.09,0.76 6.13,1.17 -0.43,-2.47 -0.85,-4.94 -1.25,-7.41 7.38,-4.52 11.21,-12.46 16.29,-19.11 3.37,-4.57 8.09,-7.87 11.68,-12.25 1.68,-2.01 3.22,-4.15 5.04,-6.04 3.09,-3.27 7.21,-5.34 10.26,-8.65 2.88,-3.1 5.21,-6.8 8.85,-9.1 3.81,-2.47 7.83,-4.75 10.85,-8.23 8.21,-9.42 19.39,-15.39 29.56,-22.38 5.89,-4.21 12.4,-7.46 18.11,-11.93 6.35,-4.86 13.78,-7.97 21.2,-10.8 5.63,-2.02 10.22,-6.06 15.78,-8.21 3.12,-1.25 6.31,-2.32 9.37,-3.69 12.46,-5.91 25.56,-10.49 38.96,-13.76 -0.31,1.55 -0.62,3.1 -0.91,4.66 4.87,-2.02 9.15,-5.41 14.25,-6.85 4.17,0.15 7.69,2.79 11.72,3.54 3.96,-0.94 6.91,-4.99 11.32,-4.56 9.85,0.57 19.67,-1.6 29.5,-0.2 7.57,1.15 15.95,-2.01 22.69,2.82 3.86,-1.01 7.74,-1.91 11.68,-2.56 0.66,-1.02 1.31,-2.05 1.97,-3.08 z"
     id="path30"
     style="fill:#f2b581;fill-opacity:1;stroke:#f2b581;stroke-opacity:1"
     inkscape:connector-curvature="0" />
  <path
     d="m 652.08794,118.11528 c 7.04,1.1 13.45,4.36 19.94,7.13 19.67,8.57 38.73,18.57 56.71,30.28 9.6,5.93 18.51,12.9 27.05,20.25 -5.85,0.06 -10.89,-3.16 -16.27,-4.94 -13.87,-4.58 -27.69,-9.32 -41.71,-13.4 -5.66,-1.53 -11.48,-2.63 -16.82,-5.14 14.27,1.18 27.79,7.66 42.22,7.08 -3.96,-1.48 -8.34,-2.71 -11.03,-6.23 -4.73,-6.22 -12.09,-9.3 -18.2,-13.88 -5.88,-4.11 -12.59,-6.74 -18.9,-10.07 -7.49,-4.09 -15.93,-6.18 -22.99,-11.08 z"
     id="path32"
     style="fill:#f2b581;fill-opacity:1;stroke:#f2b581;stroke-opacity:1"
     inkscape:connector-curvature="0" />
  <path
     d="m 430.20794,139.76528 c 2.61,-1.65 5.8,-1.94 8.73,-2.71 1.13,0.98 2.26,1.96 3.41,2.94 3.02,-1.1 6.11,-2.07 9.3,-2.53 -12.63,10.69 -25.24,21.44 -36.97,33.12 -4.03,-1.23 -7.75,1.31 -11.37,2.7 -48.52,19.95 -93.67,48.19 -132.59,83.39 -38.94,35.25 -71.87,77.21 -96.22,123.77 -1.77,2.98 -2.71,6.71 -5.49,8.93 -0.7,0.4 -1.41,0.8 -2.12,1.19 -1.44,2.07 -2.73,4.24 -4.16,6.31 -0.06,-1.32 -0.15,-2.63 -0.28,-3.94 -0.31,-5.7 3.65,-10.38 4.61,-15.82 1.16,-6.81 -1.09,-13.65 -0.23,-20.47 0.53,-4.52 5.2,-6.56 7.54,-9.99 0.05,-2.91 -1.03,-5.76 -0.56,-8.68 3.42,-17.9 12.43,-33.91 20.11,-50.22 2.61,-4.92 2.48,-10.83 5.31,-15.6 6.3,-7.39 14.75,-13.77 17.54,-23.48 1.17,-4.34 5.28,-6.71 8.25,-9.72 6.76,-6.27 11.38,-14.59 18.84,-20.14 5.29,-3.99 10.01,-8.65 14.66,-13.34 5.01,-5.12 11.18,-8.84 16.69,-13.35 6.49,-5.34 13.77,-9.58 20.96,-13.88 6.92,-3.8 13.44,-8.32 20.59,-11.7 6.24,-2.96 11.85,-7.41 18.75,-8.79 7.85,-1.7 15.44,-4.35 23.2,-6.39 7,-1.81 13.33,-5.53 20.32,-7.36 5.73,-1.55 11.71,-1.02 17.56,-1.53 8.27,-0.71 16.52,-1.85 24.83,-2.06 3.05,-0.24 5.69,1.45 8.15,3.01 0.17,-1.23 0.3,-2.47 0.64,-3.66 z"
     id="path34"
     inkscape:connector-curvature="0"
     style="fill:#f2b581" />
  <path
     d="m 653.80794,258.48528 c 4.86,-1.03 9.89,-1.02 14.76,-0.04 0.04,2.6 0.17,5.32 -1.02,7.71 -7.87,15.88 -18.35,30.25 -28.72,44.56 -10.94,15.12 -20.67,31.07 -29.76,47.36 -21,37.47 -42.39,74.75 -61.76,113.1 -8.99,18.18 -18.01,36.45 -24.45,55.72 -2.21,7.21 -4.78,14.95 -2.89,22.51 2.38,4.55 6.97,7.73 8.45,12.82 0.82,2.21 -0.87,4.36 -2.44,5.74 -4.43,3.49 -9.9,5.3 -15.22,6.92 -11.54,3.41 -23.93,4.84 -35.77,2.12 -4.34,-1.25 -8.48,-4.24 -9.89,-8.69 -1.05,-3.62 -1.5,-7.48 -0.74,-11.19 0.74,-6.95 3.67,-13.32 5.69,-19.93 -5.96,1.6 -9.84,6.64 -14.61,10.16 -12.95,10.13 -28.69,17.31 -45.28,18.04 -4.06,0.22 -8.12,-0.36 -12.02,-1.43 -6.5,-2.64 -11.61,-8.2 -13.96,-14.77 -3.56,-9.17 -2.8,-19.19 -2.44,-28.81 1.77,-16.41 6.92,-32.27 13.5,-47.34 9.27,-20.42 21.39,-39.65 36.63,-56.14 11.21,-12.75 24.77,-23.5 39.91,-31.22 12.95,-6.66 27.74,-10.05 42.3,-8.78 7.32,0.99 15.07,2.48 20.88,7.38 1.68,1.24 3.35,3.41 5.7,2.42 1.06,-0.99 1.8,-2.25 2.54,-3.48 16.26,-29.29 32.33,-58.68 47.46,-88.58 5.36,-11.41 15.73,-19.79 27.11,-24.77 11.56,-5.06 23.65,-9 36.04,-11.39 z"
     id="path36"
     inkscape:connector-curvature="0"
     style="fill:#ffffff" />
  <path
     d="m 638.82794,310.71528 c 10.37,-14.31 20.85,-28.68 28.72,-44.56 3.32,0.62 7.01,-0.09 10.07,1.59 1.57,1.64 0.38,3.92 -0.07,5.77 -2.18,6.05 -5.79,11.43 -9.07,16.91 -8.72,14.36 -19.33,27.44 -28.56,41.46 -12.41,18.37 -22.79,37.99 -33.72,57.25 -9.25,16.56 -18.65,33.04 -27.62,49.76 -8.92,16.18 -17.64,32.5 -25.58,49.19 -7.88,15.89 -15.44,32.01 -20.96,48.9 -1.78,6.19 -3.82,12.59 -3.16,19.11 0.96,4.75 5.39,7.58 7.6,11.69 1.62,2.45 2.34,6.31 -0.25,8.4 -3.89,3.58 -9,5.39 -13.93,7.03 -12.15,3.62 -25.29,5.88 -37.78,2.59 -4.43,-1.08 -8.44,-4.22 -9.53,-8.8 11.84,2.72 24.23,1.29 35.77,-2.12 5.32,-1.62 10.79,-3.43 15.22,-6.92 1.57,-1.38 3.26,-3.53 2.44,-5.74 -1.48,-5.09 -6.07,-8.27 -8.45,-12.82 -1.89,-7.56 0.68,-15.3 2.89,-22.51 6.44,-19.27 15.46,-37.54 24.45,-55.72 19.37,-38.35 40.76,-75.63 61.76,-113.1 9.09,-16.29 18.82,-32.24 29.76,-47.36 z"
     id="path38"
     inkscape:connector-curvature="0"
     style="fill:#201a17" />
  <path
     d="m 428.77794,287.70528 c 7.23,-3.92 15.73,-5.23 23.83,-3.91 5.73,1.12 10.1,5.95 11.57,11.47 2.12,11.54 -2.91,23.09 -9.61,32.25 -8.92,12.17 -23.76,21.22 -39.28,19.13 -4.21,-1.09 -8.52,-3.01 -11.05,-6.72 -3.6,-4.95 -4.18,-11.49 -2.85,-17.34 2.88,-15.17 14.01,-27.75 27.39,-34.88 z"
     id="path40"
     inkscape:connector-curvature="0"
     style="fill:#ffffff" />
  <path
     d="m 463.82794,292.97528 c 3.8,1.77 7.52,4.38 8.96,8.52 3.61,9.31 0.19,19.58 -4.23,27.99 -6.67,12.31 -18.13,22.68 -32.07,25.68 -6.07,1 -12.85,1.23 -18.27,-2.16 -2.54,-1.52 -4.19,-4.06 -5.75,-6.49 0.7,0.03 2.11,0.1 2.82,0.13 15.52,2.09 30.36,-6.96 39.28,-19.13 6.7,-9.16 11.73,-20.71 9.61,-32.25 -0.09,-0.58 -0.26,-1.72 -0.35,-2.29 z"
     id="path42"
     inkscape:connector-curvature="0"
     style="fill:#201916" />
  <path
     d="m 136.45794,318.40528 c 4.37,-8.26 7.88,-17.13 13.98,-24.32 -2.88,9.71 -9.46,17.66 -13.46,26.88 -5.59,12.59 -11.91,25.16 -14.13,38.89 -0.51998,3.59 -2.48998,6.75 -3.23998,10.27 -0.17,4.38 1.47,8.62 1.29,13.01 -0.2,5.03 -2.27,9.72 -3.35,14.6 -2.41,10.19 -1.49,20.77 -0.31,31.07 0.61,5.56 2.56,10.84 3.43,16.34 0.64,4.1 1.34,8.2 2.13998,12.27 1.06,4.95 -0.45998,10.09 0.98,15 1.02,3.6 1.15,7.37 0.61,11.08 1.1,-0.37 2.21,-0.72 3.32,-1.07 0.68,7 0.04,14.02 -0.32,21.01 1.97,-5.79 3.78,-11.63 5.46,-17.51 2.25,-7.37 2.98,-15.32 7.16,-21.98 -0.42,3.92 -1.31,7.77 -2.45,11.54 -2.55,8.48 -4.25,17.18 -6.22,25.82 -1.63,7.11 -2.19,14.46 -4.46,21.43 -2.2,6.48 -3.78,13.14 -5.38998,19.78 -4.18,-7.32 -4.84,-15.87 -8.08,-23.55 -1.37,-3.4 -1.96,-7.03 -3,-10.52 -1.18,-3.87 -3.89,-7.16 -4.46,-11.22 -0.84,-5.56 -0.19,-11.26 -1.3,-16.79 -0.39,-2.15 -2.37,-3.4 -3.8,-4.85 1.45,-5.82 1.52,-11.86 0.35,-17.73 -1.06,0.18 -2.130004,0.38 -3.190004,0.57 -0.26,-12.8 3.380004,-25.17 4.690004,-37.81 0.9,-7.27 2.92,-14.36 3.48,-21.68 0.5,-4.63 1.97,-9.06 3.37,-13.46 7,-23.08 15.92998,-45.59 26.89998,-67.07 z"
     id="path44"
     style="fill:#f2b581;fill-opacity:1"
     inkscape:connector-curvature="0" />
  <path
     d="m 891.84794,370.54528 c 3.68,-0.87 7.51,-1.24 11.28,-0.73 3.37,1.11 4.71,5.18 4.18,8.41 -2.2,13.66 -8.24,26.28 -14.6,38.42 -9.52,17.56 -20.37,34.49 -33.19,49.83 -4.5,4.9 -8.85,10.27 -14.9,13.31 -2.21,0.21 -5.07,0.48 -6.36,-1.74 -3.95,-5.46 -3.78,-12.54 -3.71,-18.97 -0.08,-5.04 0.76,-10.02 1.37,-15 0.95,-4.53 2.05,-9.07 1.87,-13.73 -3.89,0.11 -7.68,1.31 -10.85,3.55 -10.87,7.26 -19.5,17.28 -27.55,27.46 -13.32,16.98 -23.57,36.04 -34.34,54.66 -6.76,12.26 -13.83,24.35 -19.88,36.98 -1.8,3.69 -4.35,7.25 -8.2,9 -12.32,6.03 -26.4,6.41 -39.85,6.4 -3.49,0.02 -6.92,-0.71 -10.36,-1.2 -1.95,-6.63 3.81,-11.53 6.51,-16.94 20.53,-36.06 39.97,-72.73 60.03,-109.05 8.81,-16.15 17.85,-32.17 26.72,-48.28 3.02,-5.15 6.64,-10.37 12.25,-12.93 12.04,-5.78 25.72,-7.18 38.92,-6.5 1.91,0.06 3.75,0.7 5.41,1.65 0.97,2.51 -1.02,4.68 -2.11,6.76 -4.48,7.65 -9.52,14.96 -13.66,22.8 -1.33,2.44 -2.11,5.12 -2.53,7.86 3.47,-1.38 6.42,-3.7 9.26,-6.09 5,-4.21 10.67,-7.6 15.45,-12.1 6.64,-3.34 12.58,-7.88 19.14,-11.39 9.36,-5.29 19.2,-9.93 29.7,-12.44 z"
     id="path46"
     inkscape:connector-curvature="0"
     style="fill:#ffffff" />
  <path
     d="m 659.37794,380.60528 c 18.94,-6.34 39.38,-8.59 59.18,-5.67 9.43,1.69 19.89,5.24 24.67,14.25 2.96,7.51 1.34,15.85 -0.7,23.38 -4.94,16.07 -16.24,29.34 -28.88,40.04 -13.44,11.27 -28.72,20.21 -44.77,27.2 -17.6,7.53 -36.25,13.2 -55.47,14.11 -2.84,0.01 -4.64,2.69 -4.85,5.29 -0.58,6.31 -0.63,13.12 2.6,18.8 1.78,3.35 4.74,5.89 8.03,7.68 8.15,3.64 17.52,3.63 26.16,2.04 11.87,-2.2 22.9,-7.67 32.61,-14.72 2.83,-1.64 6.35,-4.61 9.66,-2.42 1.83,3.61 0.81,7.9 -0.23,11.61 -4.97,13.72 -15.81,24.49 -27.96,32.14 -20.45,12.88 -45.97,16.96 -69.54,12.05 -6.75,-1.59 -13.53,-3.72 -19.19,-7.83 -8.76,-5.37 -15.22,-14.32 -17.37,-24.38 -3.75,-16.28 0.42,-33.06 5.57,-48.55 5.81,-15.99 13.76,-31.15 23.57,-45.05 18.94,-26.95 45.5,-49.23 76.91,-59.97 z"
     id="path48"
     inkscape:connector-curvature="0"
     style="fill:#ffffff" />
  <path
     d="m 368.96794,386.95528 c 11.88,-6.72 25.84,-8.03 39.18,-9.14 4.55,-0.09 9.95,-0.36 13.55,2.9 1.98,1.62 0.43,4.15 -0.51,5.9 -19.54,33.44 -38.79,67.05 -57.32,101.07 -6.08,11.9 -12.49,23.74 -16.73,36.46 -1.47,4.28 -2.44,9.52 0.69,13.34 2.57,3.71 7.64,7.9 4.76,12.83 -4.22,6.49 -12.23,8.79 -19.24,10.94 -11.73,2.79 -23.94,5.22 -36.01,3.57 -5.36,-0.79 -11.32,-3.33 -13.18,-8.86 -1.31,-5.51 0.43,-11.15 2.12,-16.38 5.86,-16.65 15.21,-31.72 22.92,-47.52 16.11,-30.71 32.49,-61.28 49.19,-91.68 2.64,-5.08 5.34,-10.58 10.58,-13.43 z"
     id="path50"
     inkscape:connector-curvature="0"
     style="fill:#ffffff" />
  <path
     d="m 907.30794,378.22528 c 2.8,0.38 6.37,-0.1 8.27,2.51 1.94,3.07 1.1,6.98 0.58,10.35 -2.64,11.84 -7.82,22.95 -13.43,33.64 -8.94,16.53 -19.05,32.47 -30.75,47.19 -4.12,4.86 -8.22,9.81 -13.15,13.87 -2.5,2.07 -5.84,3.77 -9.14,2.72 -3.11,-1.79 -3.77,-5.68 -5.07,-8.72 6.05,-3.04 10.4,-8.41 14.9,-13.31 12.82,-15.34 23.67,-32.27 33.19,-49.83 6.36,-12.14 12.4,-24.76 14.6,-38.42 z"
     id="path52"
     inkscape:connector-curvature="0"
     style="fill:#201a17" />
  <path
     d="m 834.48794,381.90528 c 4.15,0.16 9.49,-0.36 12.33,3.34 -1.08,3.12 -2.63,6.05 -3.81,9.13 -4.78,4.5 -10.45,7.89 -15.45,12.1 -2.84,2.39 -5.79,4.71 -9.26,6.09 0.42,-2.74 1.2,-5.42 2.53,-7.86 4.14,-7.84 9.18,-15.15 13.66,-22.8 z"
     id="path54"
     inkscape:connector-curvature="0"
     style="fill:#201a17" />
  <path
     d="m 363.86794,487.68528 c 18.53,-34.02 37.78,-67.63 57.32,-101.07 3.52,0.4 7.74,0.3 10.28,3.22 1.46,2.38 -0.34,4.99 -1.47,7.1 -19.48,33.08 -38.43,66.48 -56.83,100.17 -5.91,11.65 -12.18,23.21 -16.37,35.62 -1.3,4.25 -2.48,9.46 0.43,13.33 2.17,3.42 6.21,6.39 5.61,10.92 -0.56,4.27 -4.64,6.79 -8.08,8.72 -9.63,4.77 -20.38,6.71 -30.97,7.99 -8.23,0.99 -17.12,1.38 -24.71,-2.5 -2.8,-1.32 -4.35,-4.1 -5.75,-6.7 1,0.08 3.01,0.25 4.01,0.34 12.07,1.65 24.28,-0.78 36.01,-3.57 7.01,-2.15 15.02,-4.45 19.24,-10.94 2.88,-4.93 -2.19,-9.12 -4.76,-12.83 -3.13,-3.82 -2.16,-9.06 -0.69,-13.34 4.24,-12.72 10.65,-24.56 16.73,-36.46 z"
     id="path56"
     inkscape:connector-curvature="0"
     style="fill:#201a17" />
  <path
     d="m 742.93794,388.36528 c 6.27,3.3 11.26,9.43 11.52,16.74 0.26,13.49 -5.19,26.56 -13.1,37.3 -9.47,12.78 -21.9,23.12 -35.25,31.64 -25.16,15.68 -53.74,27.02 -83.54,28.84 -4.7,0.65 -4.78,6.55 -4.92,10.21 -0.51,4.18 1.64,7.99 2.17,11.97 l -0.63,0.62 c -3.29,-1.79 -6.25,-4.33 -8.03,-7.68 -3.23,-5.68 -3.18,-12.49 -2.6,-18.8 0.21,-2.6 2.01,-5.28 4.85,-5.29 19.22,-0.91 37.87,-6.58 55.47,-14.11 16.05,-6.99 31.33,-15.93 44.77,-27.2 12.64,-10.7 23.94,-23.97 28.88,-40.04 2.04,-7.53 3.66,-15.87 0.7,-23.38 l -0.29,-0.82 z"
     id="path58"
     inkscape:connector-curvature="0"
     style="fill:#201a17" />
  <path
     d="m 929.78794,427.15528 c -0.25,-10.85 -2.15,-21.61 -2.09,-32.47 5.55,17.72 8.68,36.12 11.43,54.47 1.55,12.87 3.19,25.79 3.42,38.76 -0.26,4.87 -0.67,9.72 -0.99,14.58 -3.74,-3.94 -6.7,-8.54 -8.86,-13.51 -1.11,2.4 -2.27,4.79 -3.47,7.15 -0.12,-0.62 -0.37,-1.85 -0.49,-2.47 0.03,-7.05 0.75,-14.06 1.03,-21.1 0.91,-15.12 0.4,-30.28 0.02,-45.41 z"
     id="path60"
     style="fill:#d3ada0;fill-opacity:1"
     inkscape:connector-curvature="0" />
  <path
     d="m 102.02796,413.08528 c 1.01,-4.82 1.96,-9.71 4.16,-14.15 -0.56,7.32 -2.58,14.41 -3.48,21.68 -1.31,12.64 -4.950004,25.01 -4.690004,37.81 1.06,-0.19 2.130004,-0.39 3.190004,-0.57 1.17,5.87 1.1,11.91 -0.35,17.73 1.43,1.45 3.41,2.7 3.8,4.85 1.11,5.53 0.46,11.23 1.3,16.79 0.57,4.06 3.28,7.35 4.46,11.22 1.04,3.49 1.63,7.12 3,10.52 3.24,7.68 3.9,16.23 8.08,23.55 1.60998,-6.64 3.18998,-13.3 5.38998,-19.78 0.14,6.77 -1.23,13.42 -2.02,20.11 -0.67,5.28 -0.4,10.72 -2.02,15.85 -3.44998,8.23 -0.69998,17.42 -3.95998,25.7 -1.27,-4.93 -1.86,-10.01 -3.2,-14.92 -1.84,0.55 -3.17,1.97 -4.59,3.16 -5.17,-7.05 -4.63,-16.11 -7.15,-24.12 -0.77,-3.05 -3.1,-5.26 -5.260004,-7.38 -0.22,-4.88 -0.43,-9.85 -2.12,-14.49 -1.75,-4.88 -2.95,-10 -2.83,-15.21 0.12,-7.25 -0.47,-14.48 -1.34,-21.67 -0.41,-4.13 -0.24,-8.29 0.16,-12.41 1.51,-14.53 2.47,-29.15 5.29,-43.51 1.39,-6.92 2.610004,-13.88 4.180004,-20.76 z"
     id="path62"
     style="fill:#f2b581;fill-opacity:1;stroke:#f2b581;stroke-opacity:1"
     inkscape:connector-curvature="0" />
  <path
     d="m 660.74794,409.73528 c 7.61,-6.14 17.05,-11.84 27.23,-10.21 3.97,0.6 6.47,4.53 6.01,8.41 -11.52,0.86 -21.27,7.92 -29.26,15.75 -11.3,11.39 -20.52,24.7 -28.42,38.63 0.41,-0.09 1.24,-0.27 1.65,-0.36 -5.41,2.92 -11.48,4.46 -17.52,5.32 0.44,-4.64 3.43,-8.39 5.42,-12.45 9.46,-16.52 20.39,-32.56 34.89,-45.09 z"
     id="path64"
     inkscape:connector-curvature="0"
     style="fill:#1f1a17" />
  <path
     d="m 664.72794,423.68528 c 7.99,-7.83 17.74,-14.89 29.26,-15.75 -2.04,8.5 -6.68,16.12 -12.28,22.74 -9.34,11.53 -21.36,20.74 -34.49,27.55 -2.96,1.53 -5.97,3.08 -9.26,3.73 -0.41,0.09 -1.24,0.27 -1.65,0.36 7.9,-13.93 17.12,-27.24 28.42,-38.63 z"
     id="path66"
     inkscape:connector-curvature="0"
     style="fill:#e57919" />
  <path
     d="m 498.33794,414.23528 c 7.04,-4.39 15.99,-7.44 24.13,-4.37 3.32,1.01 3.16,6.27 0.42,7.64 -12.74,2.02 -23.03,10.63 -31.66,19.66 -12.21,13.4 -22.11,28.84 -29.77,45.25 -5.11,11.28 -9.74,23.17 -9.84,35.74 -3.59,-0.49 -7.42,-2.19 -8.55,-5.95 -1.51,-5.35 -0.58,-11.08 0.64,-16.4 4.73,-17.79 13.41,-34.3 23.66,-49.51 8.54,-12.19 18.3,-23.99 30.97,-32.06 z"
     id="path68"
     inkscape:connector-curvature="0"
     style="fill:#201917" />
  <path
     d="m 491.22794,437.16528 c 8.63,-9.03 18.92,-17.64 31.66,-19.66 -7.05,13.06 -14.61,25.88 -21.04,39.29 -8.69,16.62 -15.26,34.8 -28.24,48.76 -5.99,6.04 -13.09,12.05 -21.99,12.6 0.1,-12.57 4.73,-24.46 9.84,-35.74 7.66,-16.41 17.56,-31.85 29.77,-45.25 z"
     id="path70"
     inkscape:connector-curvature="0"
     style="fill:#e67818" />
  <path
     d="m 826.93794,433.89528 c 3.17,-2.24 6.96,-3.44 10.85,-3.55 0.18,4.66 -0.92,9.2 -1.87,13.73 -6.4,2.75 -10.92,8.25 -15.78,13 -12.81,13.63 -23.19,29.32 -32.57,45.44 -11.77,20.12 -23.37,40.37 -33.82,61.2 -2.06,3.87 -5.61,6.77 -9.68,8.31 -11.32,4.85 -23.82,4.92 -35.91,5.39 -4.2,-0.19 -9.14,0.14 -12.44,-2.93 -0.65,-2.16 0.6,-4.18 1.4,-6.09 13.45,0.01 27.53,-0.37 39.85,-6.4 3.85,-1.75 6.4,-5.31 8.2,-9 6.05,-12.63 13.12,-24.72 19.88,-36.98 10.77,-18.62 21.02,-37.68 34.34,-54.66 8.05,-10.18 16.68,-20.2 27.55,-27.46 z"
     id="path72"
     inkscape:connector-curvature="0"
     style="fill:#201a17" />
  <path
     d="m 552.99794,488.08528 c 7.94,-16.69 16.66,-33.01 25.58,-49.19 0.23,0.66 0.67,1.98 0.9,2.64 0.99,-0.32 1.98,-0.65 2.99,-0.96 -9.81,13.9 -17.76,29.06 -23.57,45.05 -0.27,-0.82 -0.82,-2.47 -1.09,-3.29 -1.5,2 -3.09,3.93 -4.81,5.75 z"
     id="path74"
     inkscape:connector-curvature="0"
     style="fill:#d17d32" />
  <path
     d="m 942.54794,487.91528 c 1.13,26.11 0.48,52.41 -3.57,78.27 -0.02,-1.6 -0.07,-3.2 -0.11,-4.78 -1.97,-0.23 -3.94,-0.49 -5.9,-0.72 -0.73,-7.1 -2.77,-14.05 -6.87,-19.94 -1.84,2.7 -3.72,5.38 -5.33,8.22 1.19,-7.64 1.97,-15.33 3.42,-22.92 1.89,-10.74 2.75,-21.63 4.55,-32.38 0.12,0.62 0.37,1.85 0.49,2.47 1.2,-2.36 2.36,-4.75 3.47,-7.15 2.16,4.97 5.12,9.57 8.86,13.51 0.32,-4.86 0.73,-9.71 0.99,-14.58 z"
     id="path76"
     style="fill:#d3ada0;fill-opacity:1;stroke:#d3ada0;stroke-opacity:1"
     inkscape:connector-curvature="0" />
  <path
     d="m 92.397956,489.76528 c 0.87,7.19 1.46,14.42 1.34,21.67 -0.12,5.21 1.08,10.33 2.83,15.21 1.69,4.64 1.9,9.61 2.12,14.49 2.160004,2.12 4.490004,4.33 5.260004,7.38 2.52,8.01 1.98,17.07 7.15,24.12 1.42,-1.19 2.75,-2.61 4.59,-3.16 1.34,4.91 1.93,9.99 3.2,14.92 3.26,-8.28 0.51,-17.47 3.95998,-25.7 1.18,7.79 -0.35998,15.59 -0.46998,23.39 -0.42,14.33 0.57998,28.66 1.40998,42.97 0.24,11.06 1.22,22.08 2.57,33.06 0.35,2.88 0.29,5.8 0.1,8.7 -4.66998,-7.9 -7.51998,-16.66 -10.98998,-25.11 -1.63,-3.9 -2.9,-7.94 -4.04,-12.01 -1.55,-5.72 -4.71,-10.89 -5.87,-16.73 -1.46,-7.69 -4.53,-15.02 -5.33,-22.84 -0.870004,-8.06 -3.340004,-15.83 -4.300004,-23.87 -1.93,-15 -3.97,-30.04 -4.07,-45.19 -0.42,-10.43 -1.05,-20.93 0.54,-31.3 z"
     id="path78"
     style="fill:#f2b581;fill-opacity:1"
     inkscape:connector-curvature="0" />
  <path
     d="m 687.38794,522.19528 c 2.48,-3.01 6.73,-3.91 10.41,-2.87 0.18,4.12 0.4,8.4 -1.1,12.34 -4.95,13.43 -15.56,23.99 -27.5,31.48 -22.24,13.95 -50.48,17.85 -75.67,10.56 -7.42,-2.04 -14.13,-6.04 -19.89,-11.08 -1.15,-1.22 -3.81,-1.95 -2.94,-4.07 5.66,4.11 12.44,6.24 19.19,7.83 23.57,4.91 49.09,0.83 69.54,-12.05 12.15,-7.65 22.99,-18.42 27.96,-32.14 z"
     id="path80"
     inkscape:connector-curvature="0"
     style="fill:#201917" />
  <path
     d="m 455.43794,547.35528 c 4.77,-3.52 8.65,-8.56 14.61,-10.16 -2.02,6.61 -4.95,12.98 -5.69,19.93 -12.8,8.93 -27.36,16.19 -43.19,17.11 -9.01,0.85 -19.86,-1.8 -24.21,-10.55 l 1.18,0.28 c 3.9,1.07 7.96,1.65 12.02,1.43 16.59,-0.73 32.33,-7.91 45.28,-18.04 z"
     id="path82"
     inkscape:connector-curvature="0"
     style="fill:#201a17" />
  <path
     d="m 920.76794,548.96528 c 1.61,-2.84 3.49,-5.52 5.33,-8.22 4.1,5.89 6.14,12.84 6.87,19.94 1.96,0.23 3.93,0.49 5.9,0.72 0.04,1.58 0.09,3.18 0.11,4.78 -0.97,11.16 -3.47,22.15 -5.71,33.12 -1.23,4.9 -1.8,10.07 -3.97,14.68 -1.52,2.09 -3.17,4.08 -4.8,6.09 -1.54,-6.49 -2.2,-13.22 -4.77,-19.44 -1.5,-3.55 -1.52,-7.45 -1.32,-11.23 -0.69,0.27 -1.37,0.54 -2.04,0.82 -1.06,-1.02 -2.12,-2.05 -3.16,-3.07 -1.29,2.66 -2.55,5.32 -3.83,7.98 1.69,-6.99 3.52,-13.94 4.92,-20.99 2.47,-8.31 4.55,-16.73 6.47,-25.18 z"
     id="path84"
     style="fill:#d3ada0;fill-opacity:1"
     inkscape:connector-curvature="0" />
  <path
     d="m 770.00794,586.02528 c 4.41,-5.97 9.83,-11.54 16.94,-14.15 -1.2,3.96 -2.54,7.88 -3.84,11.81 -5.58,15.09 -9.07,30.83 -12.88,46.43 -4.07,17.76 -7.62,35.63 -10.79,53.57 -7.2,44.48 -16.42,89.07 -33.68,130.86004 -10.11,24.69 -30.15,45.58 -55.45,54.7 -18.08,6.72 -38.1,7.66 -56.87,3.4 -12.26,-2.54 -23.65,-7.85 -35.05,-12.84 -6.46,-2.87 -12.36,-6.82 -17.89,-11.19 -24.42,-20.17 -42.07,-46.89 -60.91,-72.01 -9.16,-12.10004 -18.45,-24.11004 -28.25,-35.70004 -1.38,-1.98 -2.73,-3.98 -4.05,-5.99 7.58,3.13 14.73,7.16 21.79,11.3 32.03,19.02 61.49,42.27004 94.71,59.29004 15.98,8.05 33.21,15.11 51.37,15.14 12.91,0.25 25.82,-4.52 35.5,-13.07 11.13,-9.79 18.78,-22.89 24.42,-36.45004 6.42,-15.63 11.75,-31.68 17.31,-47.62 11.85,-34.61 23.48,-69.37 38.4,-102.81 5.52,-12.01 11.4,-23.97 19.22,-34.67 z"
     id="path86"
     inkscape:connector-curvature="0"
     style="fill:#ffffff" />
  <path
     d="m 908.99794,590.81528 c 1.41,-5.67 3.26,-11.2 5.3,-16.67 -1.4,7.05 -3.23,14 -4.92,20.99 1.28,-2.66 2.54,-5.32 3.83,-7.98 1.04,1.02 2.1,2.05 3.16,3.07 0.67,-0.28 1.35,-0.55 2.04,-0.82 -0.2,3.78 -0.18,7.68 1.32,11.23 2.57,6.22 3.23,12.95 4.77,19.44 1.63,-2.01 3.28,-4 4.8,-6.09 -1.04,8.24 -4.02,16.06 -6.35,23.99 -1.5,4.39 -2.52,9.02 -4.84,13.08 -3.98,5.74 -6.27,12.38 -9.57,18.5 -1.37,-5.93 0.02,-11.97 -0.3,-17.94 -0.63,-5.21 -2.07,-10.31 -1.97,-15.6 0.05,-6.55 -1.06,-13.04 -2.74,-19.35 -2.39,6.84 -5.61,13.34 -9.72,19.31 4.15,-15.35 10.97,-29.83 15.19,-45.16 z"
     id="path88"
     style="fill:#d3ada0;fill-opacity:1;stroke:#d3ada0;stroke-opacity:1"
     inkscape:connector-curvature="0" />
  <path
     d="m 783.10794,583.68528 c 3.02,-1.23 5.99,-2.56 9.04,-3.72 -2.2,7.38 -5.2,14.49 -7.29,21.91 -7.94,27.55 -13.95,55.62 -19.09,83.81 -7.46,45.82 -16.42,91.85004 -34.03,135.00004 -4.44,11.44 -11.27,21.72 -18.82,31.33 -7.43,7.03 -15.02,14.08 -24.13,18.93 -6.44,3.51 -13.25,6.32 -20.27,8.44 -1.7,0.51 -3.41,0.98 -5.1,1.48 -3.35,0.57 -6.7,1.08 -10.06,1.56 -10.18,0.63 -20.48,0.73 -30.54,-1.2 -13.99,-2.31 -26.97,-8.24 -39.82,-13.98 -8.81,-4 -16.48,-10.03 -23.73,-16.35 0.31,-0.57 0.92,-1.71 1.23,-2.28 5.53,4.37 11.43,8.32 17.89,11.19 11.4,4.99 22.79,10.3 35.05,12.84 18.77,4.26 38.79,3.32 56.87,-3.4 25.3,-9.12 45.34,-30.01 55.45,-54.7 17.26,-41.79004 26.48,-86.38004 33.68,-130.86004 3.17,-17.94 6.72,-35.81 10.79,-53.57 3.81,-15.6 7.3,-31.34 12.88,-46.43 z"
     id="path90"
     inkscape:connector-curvature="0"
     style="fill:#211916" />
  <path
     d="m 378.64794,598.39528 c 1.24,-0.03 2.49,-0.06 3.74,-0.09 0.27,18.87 0.13,37.74 0.06,56.61 -8.51,-0.47 -18.09,1.76 -25.52,-3.58 -9.71,-6.65 -9.69,-22.76 -0.29,-29.69 6.12,-5.23 14.56,-4.1 22,-4.23 0.1,-6.34 0.16,-12.68 0.01,-19.02 z"
     id="path92"
     inkscape:connector-curvature="0"
     style="fill:#341703" />
  <path
     d="m 544.61794,598.41528 c 1.18,-0.02 2.37,-0.03 3.56,-0.04 0.44,18.81 0.35,37.65 0.05,56.46 -1.22,-0.02 -2.43,-0.03 -3.63,-0.03 0.09,-18.8 0.06,-37.6 0.02,-56.39 z"
     id="path94"
     inkscape:connector-curvature="0"
     style="fill:#321602" />
  <path
     d="m 308.53794,599.57528 c 12.25,-3.37 26.01,3.07 31.83,14.24 4.8,9 4.47,20.67 -1.38,29.13 -6.8,10.69 -21.09,15.61 -33.03,11.28 -9.93,-3.44 -17.44,-12.77 -18.75,-23.19 -2.13,-13.86 7.58,-28.38 21.33,-31.46 z"
     id="path96"
     inkscape:connector-curvature="0"
     style="fill:#361701" />
  <path
     d="m 473.73794,598.54528 c 0.97,0 2.91,0 3.88,0 0.02,6.29 0.09,12.58 -0.03,18.87 4.3,0.16 8.61,0.17 12.91,0.19 -0.03,1.29 -0.06,2.59 -0.1,3.9 -4.23,-0.06 -8.47,-0.05 -12.7,0.06 0,7.19 -0.16,14.39 0,21.58 0.07,3.08 0.76,7.03 4.1,8.18 2.72,0.67 5.57,0.47 8.35,0.61 -0.03,0.76 -0.11,2.28 -0.15,3.04 -4.19,-0.3 -9.06,0.76 -12.58,-2.12 -3.28,-2.47 -3.52,-6.98 -3.66,-10.73 -0.02,-14.53 -0.05,-29.05 -0.02,-43.58 z"
     id="path98"
     inkscape:connector-curvature="0"
     style="fill:#321804" />
  <path
     d="m 646.32794,598.95528 c 1.09,0.31 2.15,0.71 3.2,1.2 -0.08,0.71 -0.24,2.12 -0.32,2.82 -1.46,0.2 -2.92,0.35 -4.39,0.47 0.5,-1.5 0.78,-3.08 1.51,-4.49 z"
     id="path100"
     inkscape:connector-curvature="0"
     style="fill:#592200" />
  <path
     d="m 310.52794,602.66528 c 6.3,-1.08 13.08,-0.1 18.37,3.65 6.8,4.55 11.44,12.48 11.1,20.78 0.78,13.43 -11.37,25.91 -24.84,25.41 -13.38,0.3 -25.13,-12.16 -24.59,-25.41 -0.22,-11.51 8.62,-22.4 19.96,-24.43 z"
     id="path102"
     inkscape:connector-curvature="0"
     style="fill:#e67817" />
  <path
     d="m 404.48794,617.43528 c 11.62,-3.62 24.62,6.58 24.19,18.67 0.41,11.47 -11.24,21.28 -22.46,19.01 -9.31,-1.43 -16.65,-10.55 -15.83,-19.97 0.1,-8.15 6.24,-15.69 14.1,-17.71 z"
     id="path104"
     inkscape:connector-curvature="0"
     style="fill:#341702" />
  <path
     d="m 434.99794,631.08528 c 0.92,-10.54 13.8,-17.36 23.21,-12.97 5.56,2.25 9.47,7.98 9.54,13.97 0.15,7.6 -0.08,15.19 0.05,22.79 -1.23,-0.01 -2.44,-0.01 -3.65,0.01 -0.5,-7.6 -0.03,-15.21 -0.27,-22.81 0.02,-6.56 -6.36,-11.88 -12.73,-11.56 -6.59,0.17 -12.35,6.11 -12.49,12.67 -0.2,7.22 0.05,14.45 -0.13,21.68 -0.92,-0.01 -2.77,-0.03 -3.69,-0.04 0.05,-7.91 -0.37,-15.84 0.16,-23.74 z"
     id="path106"
     inkscape:connector-curvature="0"
     style="fill:#341802" />
  <path
     d="m 510.55794,617.59528 c 9.32,-3.14 20.14,2.49 23.49,11.6 2.98,7.32 0.66,16.33 -5.35,21.41 -6.1,5.61 -15.96,6.29 -22.86,1.78 -6.34,-4.02 -10.09,-11.87 -8.72,-19.31 1.09,-7.12 6.54,-13.41 13.44,-15.48 z"
     id="path108"
     inkscape:connector-curvature="0"
     style="fill:#331703" />
  <path
     d="m 570.54794,617.61528 c 5.06,-1.64 10.73,-0.83 15.27,1.87 7.14,4.15 11.17,13.24 8.92,21.27 -1.63,6.74 -7.18,12.33 -13.92,13.99 -9.58,2.79 -20.56,-3.59 -23.12,-13.19 -3.33,-9.72 3.09,-21.16 12.85,-23.94 z"
     id="path110"
     inkscape:connector-curvature="0"
     style="fill:#341701" />
  <path
     d="m 601.27794,632.15528 c 1.44,-8.01 8.93,-14.18 16.96,-14.66 5.2,-0.28 10.42,-0.06 15.64,-0.1 0.04,14.57 0.14,29.15 -0.01,43.72 -0.02,8.98 -8.76,16.73 -17.69,15.66 -8.52,-0.34 -15.12,-7.99 -15.86,-16.21 1.17,-0.07 2.34,-0.13 3.52,-0.18 1.13,3.3 2.04,6.9 4.59,9.45 5.15,5.15 14.85,4.67 19.13,-1.39 3.02,-3.83 2.93,-8.94 2.91,-13.56 -6.34,-0.29 -13.11,0.83 -18.99,-2.14 -7.64,-3.38 -12.02,-12.49 -10.2,-20.59 z"
     id="path112"
     inkscape:connector-curvature="0"
     style="fill:#2f1605" />
  <path
     d="m 662.39794,617.46528 c 5.9,0.12 11.8,-0.19 17.69,0.12 4.15,0.21 8.33,2.58 10.12,6.43 1.23,3.2 1.15,6.71 1.2,10.09 -0.09,6.92 0.19,13.86 -0.44,20.77 -6.92,-0.03 -13.84,0.16 -20.76,-0.05 -6.9,-0.01 -11.59,-7.32 -11.27,-13.69 0.3,-6.03 5.49,-10.92 11.29,-11.86 5.75,-0.94 11.61,-0.23 17.41,-0.53 -0.89,-3.01 -2.11,-6.89 -5.82,-7.2 -6.46,-0.65 -12.99,0.08 -19.46,-0.63 0.01,-1.16 0.02,-2.31 0.04,-3.45 z"
     id="path114"
     inkscape:connector-curvature="0"
     style="fill:#301703" />
  <path
     d="m 893.80794,635.97528 c 4.11,-5.97 7.33,-12.47 9.72,-19.31 1.68,6.31 2.79,12.8 2.74,19.35 -0.1,5.29 1.34,10.39 1.97,15.6 0.32,5.97 -1.07,12.01 0.3,17.94 3.3,-6.12 5.59,-12.76 9.57,-18.5 -2.15,9.4 -6.51,18.09 -10.04,27.02 -4.19,9.63 -8.69,19.13 -13.53,28.45 -1.3,0.43 -2.58,0.87 -3.85,1.32 0.79,-5.79 1.87,-11.56 1.94,-17.42 0.08,-7.89 1.91,-15.73 0.94,-23.62 -0.88,-7.21 -1.08,-14.47 -0.68,-21.71 -2.09,2.25 -4.23,4.46 -6.21,6.8 2.16,-5.4 4.28,-10.83 7.13,-15.92 z"
     id="path116"
     style="fill:#d3ada0;fill-opacity:1"
     inkscape:connector-curvature="0" />
  <path
     d="m 645.54794,618.44528 c 1.1,-0.04 2.21,-0.06 3.33,-0.08 0.45,4.89 0.65,9.82 0.39,14.74 -0.53,7.23 -0.09,14.48 -0.37,21.72 -1.12,-0.02 -2.24,-0.03 -3.35,-0.03 -0.05,-12.12 -0.02,-24.24 0,-36.35 z"
     id="path118"
     inkscape:connector-curvature="0"
     style="fill:#2e1601" />
  <path
     d="m 513.62794,620.68528 c 7.41,-1.39 15.07,3.68 17.24,10.78 3.29,9.09 -4.02,20.15 -13.74,20.42 -8.75,0.89 -16.77,-7.15 -16.51,-15.79 -0.11,-7.41 5.75,-14.19 13.01,-15.41 z"
     id="path120"
     inkscape:connector-curvature="0"
     style="fill:#e67817" />
  <path
     d="m 359.21794,624.14528 c 5.57,-4.18 12.93,-2.5 19.38,-2.87 0.22,10.15 0.25,20.31 -0.05,30.46 -6.36,-0.2 -13.45,0.86 -18.95,-3.09 -8.21,-5.32 -8.29,-18.88 -0.38,-24.5 z"
     id="path122"
     inkscape:connector-curvature="0"
     style="fill:#e57819" />
  <path
     d="m 404.51794,621.36528 c 9.46,-3.78 20.9,4.6 20.3,14.74 0.46,8.43 -7.22,16.24 -15.68,15.79 -9,0.19 -16.41,-8.96 -15.02,-17.72 0.64,-5.82 4.93,-10.87 10.4,-12.81 z"
     id="path124"
     inkscape:connector-curvature="0"
     style="fill:#e67818" />
  <path
     d="m 571.47794,621.25528 c 9.12,-3.32 19.72,4.27 20.09,13.83 0.75,8.6 -6.61,17.13 -15.41,16.82 -8.07,0.33 -15.17,-6.88 -15.54,-14.78 -0.48,-6.92 4.19,-13.86 10.86,-15.87 z"
     id="path126"
     inkscape:connector-curvature="0"
     style="fill:#e67818" />
  <path
     d="m 610.35794,624.31528 c 5.68,-4.22 13.14,-2.8 19.73,-2.99 0.45,9.97 0.42,19.98 -0.01,29.96 -6.99,0.07 -15.16,0.78 -20.64,-4.45 -6.44,-5.86 -6.01,-17.25 0.92,-22.52 z"
     id="path128"
     inkscape:connector-curvature="0"
     style="fill:#e57818" />
  <path
     d="m 662.54794,641.09528 c 0.73,-4.54 4.96,-8.16 9.55,-8.28 5.12,-0.31 10.27,-0.06 15.4,-0.06 0.14,6.31 0.16,12.63 -0.07,18.95 -5.93,-0.21 -11.89,0.39 -17.79,-0.36 -4.73,-0.74 -7.9,-5.61 -7.09,-10.25 z"
     id="path130"
     inkscape:connector-curvature="0"
     style="fill:#e67819" />
  <path
     d="m 886.67794,651.89528 c 1.98,-2.34 4.12,-4.55 6.21,-6.8 -0.4,7.24 -0.2,14.5 0.68,21.71 0.97,7.89 -0.86,15.73 -0.94,23.62 -0.07,5.86 -1.15,11.63 -1.94,17.42 1.27,-0.45 2.55,-0.89 3.85,-1.32 -31.39,61.12 -78.2,114.11004 -134.35,153.62004 -6.3,4.07 -12.17,8.87 -19,12.07 1.34,-1.77 2.55,-3.63 3.77,-5.48 -14.42,-1.17 -28.25,6.1 -42.69,3.7 -3.87,-0.78 -7.72,0.23 -11.23,1.85 -0.76,-0.46 -1.51,-0.9 -2.25,-1.34 9.11,-4.85 16.7,-11.9 24.13,-18.93 8.66,-3.91 15.9,-10.15 23.64,-15.53 11.4,-8.18 21.62,-17.83 32.69,-26.42 -2.02,2.65 -4.02,5.36 -6.53,7.57 -6.11,5.3 -11.58,11.26 -17.59,16.66 6.89,-1.78 12.52,-6.26 18.77,-9.44 4.78,-2.54 9.46,-5.31 14.5,-7.32 6.25,-2.39 11.37,-6.81 17.2,-9.98 3.42,-1.82 6.03,-4.71 8.47,-7.64 3.75,-4.58 9.31,-7.25 12.87,-12 3.01,-3.99 5.71,-8.23 9.19,-11.85 4.97,-5.11004 7.97,-11.75004 13.09,-16.73004 3.68,-3.66 4.99,-8.82 6.79,-13.52 2.72,-6.95 5.09,-14.05 8.2,-20.84 1.32,-2.67 1.27,-5.69 1.12,-8.59 -3.58,1.46 -6.93,3.48 -9.46,6.46 7.36,-11.68 15.49,-22.89 21.87,-35.17 7.21,-11.45 12.09,-24.13 18.94,-35.78 z"
     id="path132"
     style="fill:#d3ada0;fill-opacity:1;stroke:#d3ada0;stroke-opacity:1"
     inkscape:connector-curvature="0" />
  <path
     d="m 457.85794,715.98528 c 25.02,-7.77 51,-13.37 77.3,-13.34 21.76,-0.26 43.61,3.56 63.91,11.44 2,0.78 4.03,1.49 6.13,2 4.69,0.94 9.15,3.23 12.31,6.88 -1.96,-0.33 -3.91,-0.74 -5.77,-1.43 -21.7,-8.69 -45.23,-12.6 -68.57,-11.95 -42.36,0.77 -82.83,15.26 -121.75,30.74 -29.35,11.8 -56.37,28.7 -85.89,40.07004 -24.52,8.31 -51.26,10.07 -76.68,5.3 -12.52,-2.21 -24.09,-7.63 -35.64,-12.69004 -5.6,-2.45 -10.81,-5.67 -15.94,-8.96 12.45,5.27 24.64,11.56004 37.98,14.28004 22.05,4.69 45.09,3.8 66.99,-1.29 10.82,-2.49 20.98,-7.08004 31.03,-11.68004 19.7,-9.23 38.78,-19.77 58.7,-28.55 18.3,-7.77 36.97,-14.7 55.89,-20.82 z"
     id="path134"
     inkscape:connector-curvature="0"
     style="fill:#201a16" />
  <path
     d="m 845.86794,722.84528 c 2.53,-2.98 5.88,-5 9.46,-6.46 0.15,2.9 0.2,5.92 -1.12,8.59 -3.11,6.79 -5.48,13.89 -8.2,20.84 -1.8,4.7 -3.11,9.86 -6.79,13.52 -5.12,4.98 -8.12,11.62 -13.09,16.73004 -3.48,3.62 -6.18,7.86 -9.19,11.85 -3.56,4.75 -9.12,7.42 -12.87,12 -2.44,2.93 -5.05,5.82 -8.47,7.64 -5.83,3.17 -10.95,7.59 -17.2,9.98 -5.04,2.01 -9.72,4.78 -14.5,7.32 -6.25,3.18 -11.88,7.66 -18.77,9.44 6.01,-5.4 11.48,-11.36 17.59,-16.66 2.51,-2.21 4.51,-4.92 6.53,-7.57 9.58,-9.39 19.66,-18.3 28.55,-28.38 17.75,-18.13004 33.33,-38.23004 48.07,-58.84004 z"
     id="path136"
     inkscape:connector-curvature="0"
     style="fill:#d3ada0" />
  <path
     d="m 471.33794,740.90528 c 9.8,11.59 19.09,23.6 28.25,35.70004 18.84,25.12 36.49,51.84 60.91,72.01 -0.31,0.57 -0.92,1.71 -1.23,2.28 -13.67,-12.38 -24.97,-27.07 -36.02,-41.77 -11.41,-14.64 -21.83,-30.04 -33.57,-44.43004 -6.06,-7.97 -13.34,-15.05 -18.34,-23.79 z"
     id="path138"
     inkscape:connector-curvature="0"
     style="fill:#361701" />
  <path
     d="m 702.26794,870.43532 c 14.44,2.4 28.27,-4.87 42.69,-3.7 -1.22,1.85 -2.43,3.71 -3.77,5.48 -3.19,2.93 -7.19,4.79 -10.85,7.05 -7.36,4.08 -14.46,8.71 -22.32,11.8 2.17,-1.76 4.22,-3.67 6.3,-5.55 -12.66,-2.83 -25.68,-0.36 -38.44,-1.93 -3,-0.19 -5.34,-2.18 -7.36,-4.2 7.02,-2.12 13.83,-4.93 20.27,-8.44 0.74,0.44 1.49,0.88 2.25,1.34 3.51,-1.62 7.36,-2.63 11.23,-1.85 z"
     id="path140"
     style="fill:#d3ada0;fill-opacity:1"
     inkscape:connector-curvature="0" />
  <path
     d="m 663.41794,880.86532 c 1.69,-0.5 3.4,-0.97 5.1,-1.48 2.02,2.02 4.36,4.01 7.36,4.2 12.76,1.57 25.78,-0.9 38.44,1.93 -2.08,1.88 -4.13,3.79 -6.3,5.55 -9.37,5.75 -19.76,9.66 -29.75,14.19 -0.69,-2.09 -0.23,-5.4 -2.88,-6.07 -4.26,-1.34 -8.76,-1.69 -13.18,-2.16 -4.24,-0.5 -8.54,0.46 -12.75,-0.25 -2.6,-1.15 -4.39,-3.46 -6.22,-5.53 3.02,-1.4 6.11,-2.64 9.21,-3.86 4.04,-1.47 7.59,-3.91 10.97,-6.52 z"
     id="path142"
     style="fill:#d3ada0;fill-opacity:1;stroke:#d3ada0;stroke-opacity:1"
     inkscape:connector-curvature="0" />
  <path
     d="m 653.35794,882.42532 c 3.36,-0.48 6.71,-0.99 10.06,-1.56 -3.38,2.61 -6.93,5.05 -10.97,6.52 0.48,-1.11 0.96,-2.21 1.46,-3.3 -6.36,0.3 -12.74,0.2 -19.08,-0.36 6.19,-0.13 12.41,-0.27 18.53,-1.3 z"
     id="path144"
     inkscape:connector-curvature="0"
     style="fill:#cf793c" />
  <path
     d="m 619.60794,901.45532 c 8.11,-2.83 15.82,-6.64 23.63,-10.21 1.83,2.07 3.62,4.38 6.22,5.53 4.21,0.71 8.51,-0.25 12.75,0.25 4.42,0.47 8.92,0.82 13.18,2.16 2.65,0.67 2.19,3.98 2.88,6.07 -13.18,5.11 -26.29,10.7 -40.04,14.09 3.06,-1.83 6.04,-3.8 9.11,-5.61 -0.24,-0.98 -0.48,-1.96 -0.69,-2.93 -7.35,-0.69 -14.49,-2.71 -21.51,-4.88 -2.46,-0.59 -4.12,-2.53 -5.53,-4.47 z"
     id="path146"
     style="fill:#d3ada0;fill-opacity:1;stroke:#d3ada0;stroke-opacity:1"
     inkscape:connector-curvature="0" />
  <path
     d="m 586.58794,912.57532 c 11.33,-2.7 22.04,-7.33 33.02,-11.12 1.41,1.94 3.07,3.88 5.53,4.47 7.02,2.17 14.16,4.19 21.51,4.88 0.21,0.97 0.45,1.95 0.69,2.93 -3.07,1.81 -6.05,3.78 -9.11,5.61 -2.79,1.39 -5.87,2.07 -8.85,2.94 -9.96,2.64 -19.88,5.53 -30.07,7.18 3.66,-1.38 6.57,-4.05 9.25,-6.81 -7.48,0.78 -14.95,-1.5 -20.96,-5.93 -0.93,-1.13 -0.72,-2.8 -1.01,-4.15 z"
     id="path148"
     style="fill:#d3ada0;fill-opacity:1;stroke:#d3ada0;stroke-opacity:1"
     inkscape:connector-curvature="0" />
  <path
     d="m 545.69794,923.36532 c 13.69,-3.41 27.56,-6.12 40.89,-10.79 0.29,1.35 0.08,3.02 1.01,4.15 6.01,4.43 13.48,6.71 20.96,5.93 -2.68,2.76 -5.59,5.43 -9.25,6.81 -14.05,3.29 -28.42,5.21 -42.76,6.81 -5.99,0.42 -11.95,1.53 -17.97,1.19 3.36,-1.43 6.66,-3.02 10.03,-4.45 -3.67,-1.79 -7.31,-3.65 -10.92,-5.55 2.64,-1.41 5.27,-2.87 8.01,-4.1 z"
     id="path150"
     style="fill:#d3ada0;fill-opacity:1;stroke:#d3ada0;stroke-opacity:1"
     inkscape:connector-curvature="0" />
  <path
     d="m 495.24794,930.22532 c 16.93,-1.42 33.64,-4.5 50.45,-6.86 -2.74,1.23 -5.37,2.69 -8.01,4.1 3.61,1.9 7.25,3.76 10.92,5.55 -3.37,1.43 -6.67,3.02 -10.03,4.45 -9.75,1.28 -19.61,0.89 -29.41,1 -16.72,0.11 -33.4,-1.33 -50.01,-3.21 -5.12,-0.65 -10.27,-1.22 -15.26,-2.58 17.13,-0.41 34.3,-0.47 51.35,-2.45 z"
     id="path152"
     style="fill:#d3ada0;fill-opacity:1;stroke:#d3ada0;stroke-opacity:1"
     inkscape:connector-curvature="0" />
  <path
     d="m 491.75794,991.73532 c 5.76,-0.9 11.59,-0.49 17.39,-0.72 7.08,-0.1 14.18,-0.08 21.23,0.66 -8.03,1.15 -16.15,0.69 -24.23,0.7 -4.8,0 -9.61,-0.15 -14.39,-0.64 z"
     id="path154"
     inkscape:connector-curvature="0"
     style="fill:#cd884b" />
</svg>
