<?xml version="1.0" encoding="UTF-8" standalone="no"?>
<svg width="500px" height="500px" viewBox="0 0 500 500" version="1.1" xmlns="http://www.w3.org/2000/svg" xmlns:xlink="http://www.w3.org/1999/xlink">
    <!-- Generator: Sketch 3.7.2 (28276) - http://www.bohemiancoding.com/sketch -->
    <title>Logoo</title>
    <desc>Created with Sketch.</desc>
    <defs></defs>
    <g id="Page-1" stroke="none" stroke-width="1" fill="none" fill-rule="evenodd">
        <g id="Logo" transform="translate(-50.000000, -50.000000)">
            <g id="Logoo" transform="translate(50.000000, 50.000000)">
                <path d="M0,0 L231.74,0 C232.685,0.155 233.635,0.345 234.575,0.555 C229.805,0.615 225.04,1.005 220.315,1.66 C180.825,6.385 142.54,20.765 109.67,43.15 C81.36,62.31 57.055,87.36 38.825,116.275 C8.295,164.605 -5.23,223.61 2.03,280.37 C8.39,332.54 31.77,382.45 67.74,420.755 C73.42,426.58 79.11,432.415 85.25,437.765 C110.565,460.015 140.465,477.005 172.515,487.43 C201.92,497.035 233.11,501.245 264,499.53 C287.78,498.08 311.385,493.405 333.825,485.355 C369.4,472.74 402.04,451.93 428.5,425.005 C455.865,397.25 476.51,362.945 488.265,325.79 C493.855,308.335 497.485,290.265 499.15,272.015 C499.27,269.21 499.625,266.43 500,263.655 L500,500 L0,500 L0,0 L0,0 Z" id="Shape" fill="#FFFFFF"></path>
                <path d="M231.74,0 L263.635,0 C266.415,0.335 269.2,0.72 272.01,0.815 C313.87,4.545 354.765,18.93 389.655,42.385 C403.775,51.955 417.065,62.825 428.87,75.155 C454.1,100.795 473.46,132.095 485.585,165.935 C493.89,189.035 498.545,213.365 500,237.85 L500,263.655 C499.625,266.43 499.27,269.21 499.15,272.015 C497.485,290.265 493.855,308.335 488.265,325.79 C476.51,362.945 455.865,397.25 428.5,425.005 C402.04,451.93 369.4,472.74 333.825,485.355 C311.385,493.405 287.78,498.08 264,499.53 C233.11,501.245 201.92,497.035 172.515,487.43 C140.465,477.005 110.565,460.015 85.25,437.765 C79.11,432.415 73.42,426.58 67.74,420.755 C31.77,382.45 8.39,332.54 2.03,280.37 C-5.23,223.61 8.295,164.605 38.825,116.275 C57.055,87.36 81.36,62.31 109.67,43.15 C142.54,20.765 180.825,6.385 220.315,1.66 C225.04,1.005 229.805,0.615 234.575,0.555 C233.635,0.345 232.685,0.155 231.74,0 L231.74,0 Z" id="Shape" fill="#E67818"></path>
                <path d="M263.635,0 L500,0 L500,237.85 C498.545,213.365 493.89,189.035 485.585,165.935 C473.46,132.095 454.1,100.795 428.87,75.155 C417.065,62.825 403.775,51.955 389.655,42.385 C354.765,18.93 313.87,4.545 272.01,0.815 C269.2,0.72 266.415,0.335 263.635,0 L263.635,0 Z" id="Shape" fill="#FFFFFF"></path>
                <path d="M232.22,8.81 C241.785,7.985 251.405,8.18 261,8.31 C265.87,8.77 270.77,8.835 275.615,9.57 C287.695,10.67 299.62,13.09 311.375,16.05 C316.375,17.28 321.25,18.945 326.17,20.46 C329.78,21.525 333.315,22.82 336.81,24.21 C342.145,26.475 347.64,28.375 352.77,31.1 C370.65,39.33 387.375,49.97 402.67,62.335 C407.885,66.765 413.23,71.07 418.01,75.985 C424.835,82.68 431.57,89.51 437.395,97.115 C448.72,110.805 458.27,125.925 466.23,141.8 C473.655,156.145 479.22,171.405 483.52,186.96 C487.535,202.69 490.575,218.74 491.35,234.98 C491.885,239.47 491.745,243.99 491.8,248.5 C492.015,264.055 490.39,279.595 487.57,294.88 C485.385,306.15 482.665,317.35 478.76,328.16 C471.01,351.34 459.425,373.21 444.89,392.845 C439.855,400.195 433.87,406.83 427.985,413.5 C420.765,420.945 413.435,428.31 405.45,434.945 C399.445,440.185 392.92,444.78 386.49,449.475 C370.005,460.455 352.35,469.755 333.755,476.62 C315.63,483.3 296.705,487.77 277.52,490.005 C271.03,490.655 264.53,491.395 258,491.3 C250.055,491.265 242.09,491.59 234.165,490.98 C212.175,489.775 190.49,484.91 169.695,477.765 C154.175,472.075 139.02,465.235 124.925,456.565 C115.265,450.77 106.025,444.285 97.31,437.15 C94.46,434.485 91.265,432.235 88.405,429.59 C85.165,426.835 82.285,423.71 79.275,420.725 C71.79,413.515 65.01,405.6 58.64,397.4 C53.135,389.65 47.25,382.12 42.73,373.73 C40.6,370.275 38.59,366.755 36.795,363.12 C34.545,359.265 32.54,355.285 30.8,351.18 C17.855,323.395 10.3,293.11 8.78,262.495 C8.605,249.405 8.295,236.255 9.865,223.235 C11.58,208.07 14.705,193.07 19.33,178.525 C22.3,167.715 26.84,157.435 31.27,147.165 C43.43,121.73 59.64,98.085 79.955,78.46 C87.175,70.95 95.135,64.215 103.345,57.83 C112.28,51.07 121.585,44.76 131.44,39.41 C143.265,32.55 155.815,27.01 168.625,22.27 C189.13,15.125 210.535,10.345 232.22,8.81 L232.22,8.81 Z" id="Shape" fill="#C1C1C1"></path>
                <path d="M234.71,18.75 C279.04,15.745 324.115,25.94 362.905,47.57 C392.26,63.855 417.915,86.71 437.595,113.9 C457.035,140.75 470.675,171.785 477.2,204.29 C484.2,238.82 483.09,274.96 474.005,309 C465.01,343.17 448.11,375.235 424.88,401.87 C402.115,427.985 373.415,448.9 341.585,462.58 C319.34,472.115 295.615,478.26 271.505,480.455 C236.95,483.755 201.695,478.925 169.185,466.795 C137.655,455.065 108.69,436.4 85.16,412.335 C60.25,387.085 41.34,355.98 30.215,322.305 C23.835,302.97 20.01,282.795 18.88,262.465 C16.975,228.245 22.935,193.645 35.94,161.945 C46.935,134.885 63.225,110.025 83.51,89.015 C104.815,67.005 130.515,49.255 158.665,37.16 C182.72,26.755 208.57,20.535 234.71,18.75 L234.71,18.75 Z" id="Shape" fill="#FFFFFF"></path>
                <path d="M124.825,74.83 C160.08,49.595 203.11,35.135 246.505,34.655 C304.33,33.38 362.345,56.81 402.83,98.17 C427.9,123.165 446.335,154.635 456.51,188.505 C456.955,190.09 457.6,191.64 457.77,193.29 C457.74,198.72 458.69,204.1 458.815,209.525 C459.005,217.09 459.26,224.67 458.805,232.23 C458.665,235.75 458.305,239.255 458.29,242.78 C457.39,248.155 456.96,253.6 456.015,258.97 C455.29,262.765 454.9,266.61 454.305,270.43 C453.345,274.655 452.305,278.865 451.07,283.02 C450.05,285.755 449.125,288.52 448.42,291.355 C446.31,299.02 442.9,306.26 440.825,313.935 C439.4,316.48 438.34,319.195 437.26,321.895 C433.835,327.72 431.395,334.06 427.79,339.785 C424.6,345.925 420.535,351.53 416.855,357.37 C409.485,367.675 401.695,377.725 392.82,386.79 C388.375,391.83 383.335,396.285 378.545,400.98 C373.01,405.275 367.9,410.1 362.2,414.19 C358.33,416.88 354.71,420 350.38,421.955 C354.155,417.15 357.57,412.01 359.79,406.29 C368.595,384.715 373.075,361.7 376.805,338.79 C379.375,324.695 382.38,310.66 386.35,296.885 C387.395,293.175 388.895,289.62 389.995,285.93 C388.47,286.51 386.985,287.175 385.475,287.79 C386.125,285.825 386.795,283.865 387.395,281.885 C383.84,283.19 381.13,285.975 378.925,288.96 C375.015,294.31 372.075,300.29 369.315,306.295 C361.855,323.015 356.04,340.395 350.115,357.7 C347.335,365.67 344.67,373.695 341.46,381.51 C338.64,388.29 334.815,394.84 329.25,399.735 C324.41,404.01 317.955,406.395 311.5,406.27 C302.42,406.255 293.805,402.725 285.815,398.7 C269.205,390.19 254.475,378.565 238.46,369.055 C234.93,366.985 231.355,364.97 227.565,363.405 C228.225,364.41 228.9,365.41 229.59,366.4 C232.09,370.77 235.73,374.31 238.76,378.295 C244.63,385.49 249.84,393.19 255.545,400.51 C261.07,407.86 266.72,415.205 273.555,421.395 C277.18,424.555 281.015,427.57 285.42,429.57 C291.845,432.44 298.335,435.405 305.33,436.56 C310.36,437.525 315.51,437.475 320.6,437.16 C317.54,437.675 314.43,437.745 311.335,437.81 C314.505,438.09 317.695,438.14 320.875,437.99 C320.625,438.535 320.385,439.085 320.145,439.64 C318.595,440.25 317.05,440.87 315.54,441.57 C311.635,443.355 307.78,445.26 303.725,446.675 C298.235,448.57 292.88,450.885 287.215,452.235 C280.55,454.57 273.615,455.925 266.77,457.63 C258.365,458.81 250.01,460.35 241.545,461.06 C233.02,462.05 224.435,462.08 215.87,462.285 C211.105,461.79 206.425,460.625 201.755,459.59 C163.145,450.735 127.015,431.035 98.94,403.06 C62.685,367.505 39.81,318.675 35.645,268.07 C35.035,263.575 35.155,259.025 35.06,254.495 C35.095,246.325 34.845,238.125 35.795,229.995 C39.175,193.265 52.19,157.455 73.22,127.15 C87.215,106.89 104.785,89.135 124.825,74.83 L124.825,74.83 Z" id="Shape" fill="#E67817"></path>
                <path d="M261.925,39.875 C262.73,39.73 263.545,39.645 264.365,39.57 C263.995,40.395 263.6,41.205 263.225,42.03 C265.26,42.205 267.29,42.495 269.315,42.79 C265.81,43.765 262.355,44.92 258.895,46.04 C260.565,43.995 262.25,41.96 263.745,39.78 C263.29,39.805 262.38,39.855 261.925,39.875 L261.925,39.875 Z" id="Shape" fill="#E8A060"></path>
                <path d="M257.065,41.63 C258.67,41.01 260.235,40.26 261.925,39.875 C262.38,39.855 263.29,39.805 263.745,39.78 C262.25,41.96 260.565,43.995 258.895,46.04 C256.01,48.79 253.61,51.995 251.015,55.005 C236.68,72.105 222.92,89.69 209.585,107.575 C182.385,144.28 156.605,182.2 135.21,222.62 C125.635,241.015 116.875,259.96 111.065,279.915 C108.105,290.185 105.99,300.78 105.84,311.5 C105.81,320.31 107.355,329.4 111.95,337.045 C115.185,342.495 119.985,346.945 125.495,350.035 C132.075,353.85 140.005,355.84 147.54,354.11 C155.045,353.43 162.13,350.69 169.235,348.36 C178.71,345.21 188.09,341.71 197.825,339.42 C206.565,337.355 215.495,335.965 224.475,335.635 C242.37,334.05 260.605,336.875 277.18,343.815 C283.945,346.445 290.335,349.905 296.805,353.165 C296.735,353.375 296.59,353.785 296.52,353.99 C295.47,353.735 294.455,353.38 293.455,352.99 C283.305,349.05 272.38,347.14 261.5,347.27 C248.35,347.255 235.36,350.055 222.85,353.94 C213.39,357 204.055,360.465 194.905,364.35 C184.945,368.74 175.405,374.01 165.555,378.625 C160.53,380.925 155.45,383.22 150.04,384.465 C139.09,387.01 127.57,387.455 116.545,385.11 C109.875,383.75 103.78,380.605 97.555,377.97 C90.19,374.435 83.28,369.755 77.825,363.625 C71.155,356.315 66.845,347.005 65.065,337.3 C63.365,328.68 63.385,319.79 64.335,311.08 C66.93,289.3 74.66,268.515 83.715,248.665 C92.935,228.545 103.96,209.325 115.365,190.38 C130.955,164.88 148.36,140.48 167.515,117.535 C178.13,104.865 189.32,92.675 201.26,81.24 C207.125,75.4 213.43,70.025 219.745,64.68 C225.575,60.2 231.375,55.665 237.59,51.725 C243.755,47.78 250.225,44.265 257.065,41.63 L257.065,41.63 Z" id="Shape" fill="#FFFFFF"></path>
                <path d="M258.895,46.04 C262.355,44.92 265.81,43.765 269.315,42.79 C269.4,42.99 269.57,43.38 269.655,43.58 L269.645,43.925 C266.71,46.58 264.265,49.695 261.62,52.625 C257.315,57.685 252.985,62.735 248.855,67.945 C222.395,100.36 197.565,134.12 174.615,169.115 C163.45,186.36 152.73,203.91 143.04,222.03 C133.185,240.46 124.22,259.47 117.905,279.43 C114.305,291.28 111.38,303.535 111.625,316 C111.49,325.745 113.815,335.85 119.785,343.715 C121.53,346.145 123.94,347.975 125.865,350.245 L125.495,350.035 C119.985,346.945 115.185,342.495 111.95,337.045 C107.355,329.4 105.81,320.31 105.84,311.5 C105.99,300.78 108.105,290.185 111.065,279.915 C116.875,259.96 125.635,241.015 135.21,222.62 C156.605,182.2 182.385,144.28 209.585,107.575 C222.92,89.69 236.68,72.105 251.015,55.005 C253.61,51.995 256.01,48.79 258.895,46.04 L258.895,46.04 Z" id="Shape" fill="#201A17"></path>
                <path d="M320.825,125.19 C323.255,124.675 325.77,124.68 328.205,125.17 C328.225,126.47 328.29,127.83 327.695,129.025 C323.76,136.965 318.52,144.15 313.335,151.305 C307.865,158.865 303,166.84 298.455,174.985 C287.955,193.72 277.26,212.36 267.575,231.535 C263.08,240.625 258.57,249.76 255.35,259.395 C254.245,263 252.96,266.87 253.905,270.65 C255.095,272.925 257.39,274.515 258.13,277.06 C258.54,278.165 257.695,279.24 256.91,279.93 C254.695,281.675 251.96,282.58 249.3,283.39 C243.53,285.095 237.335,285.81 231.415,284.45 C229.245,283.825 227.175,282.33 226.47,280.105 C225.945,278.295 225.72,276.365 226.1,274.51 C226.47,271.035 227.935,267.85 228.945,264.545 C225.965,265.345 224.025,267.865 221.64,269.625 C215.165,274.69 207.295,278.28 199,278.645 C196.97,278.755 194.94,278.465 192.99,277.93 C189.74,276.61 187.185,273.83 186.01,270.545 C184.23,265.96 184.61,260.95 184.79,256.14 C185.675,247.935 188.25,240.005 191.54,232.47 C196.175,222.26 202.235,212.645 209.855,204.4 C215.46,198.025 222.24,192.65 229.81,188.79 C236.285,185.46 243.68,183.765 250.96,184.4 C254.62,184.895 258.495,185.64 261.4,188.09 C262.24,188.71 263.075,189.795 264.25,189.3 C264.78,188.805 265.15,188.175 265.52,187.56 C273.65,172.915 281.685,158.22 289.25,143.27 C291.93,137.565 297.115,133.375 302.805,130.885 C308.585,128.355 314.63,126.385 320.825,125.19 L320.825,125.19 Z" id="Shape" fill="#FFFFFF"></path>
                <path d="M313.335,151.305 C318.52,144.15 323.76,136.965 327.695,129.025 C329.355,129.335 331.2,128.98 332.73,129.82 C333.515,130.64 332.92,131.78 332.695,132.705 C331.605,135.73 329.8,138.42 328.16,141.16 C323.8,148.34 318.495,154.88 313.88,161.89 C307.675,171.075 302.485,180.885 297.02,190.515 C292.395,198.795 287.695,207.035 283.21,215.395 C278.75,223.485 274.39,231.645 270.42,239.99 C266.48,247.935 262.7,255.995 259.94,264.44 C259.05,267.535 258.03,270.735 258.36,273.995 C258.84,276.37 261.055,277.785 262.16,279.84 C262.97,281.065 263.33,282.995 262.035,284.04 C260.09,285.83 257.535,286.735 255.07,287.555 C248.995,289.365 242.425,290.495 236.18,288.85 C233.965,288.31 231.96,286.74 231.415,284.45 C237.335,285.81 243.53,285.095 249.3,283.39 C251.96,282.58 254.695,281.675 256.91,279.93 C257.695,279.24 258.54,278.165 258.13,277.06 C257.39,274.515 255.095,272.925 253.905,270.65 C252.96,266.87 254.245,263 255.35,259.395 C258.57,249.76 263.08,240.625 267.575,231.535 C277.26,212.36 287.955,193.72 298.455,174.985 C303,166.84 307.865,158.865 313.335,151.305 L313.335,151.305 Z" id="Shape" fill="#201A17"></path>
                <path d="M208.31,139.8 C211.925,137.84 216.175,137.185 220.225,137.845 C223.09,138.405 225.275,140.82 226.01,143.58 C227.07,149.35 224.555,155.125 221.205,159.705 C216.745,165.79 209.325,170.315 201.565,169.27 C199.46,168.725 197.305,167.765 196.04,165.91 C194.24,163.435 193.95,160.165 194.615,157.24 C196.055,149.655 201.62,143.365 208.31,139.8 L208.31,139.8 Z" id="Shape" fill="#FFFFFF"></path>
                <path d="M225.835,142.435 C227.735,143.32 229.595,144.625 230.315,146.695 C232.12,151.35 230.41,156.485 228.2,160.69 C224.865,166.845 219.135,172.03 212.165,173.53 C209.13,174.03 205.74,174.145 203.03,172.45 C201.76,171.69 200.935,170.42 200.155,169.205 C200.505,169.22 201.21,169.255 201.565,169.27 C209.325,170.315 216.745,165.79 221.205,159.705 C224.555,155.125 227.07,149.35 226.01,143.58 C225.965,143.29 225.88,142.72 225.835,142.435 L225.835,142.435 Z" id="Shape" fill="#201916"></path>
                <path d="M439.845,181.22 C441.685,180.785 443.6,180.6 445.485,180.855 C447.17,181.41 447.84,183.445 447.575,185.06 C446.475,191.89 443.455,198.2 440.275,204.27 C435.515,213.05 430.09,221.515 423.68,229.185 C421.43,231.635 419.255,234.32 416.23,235.84 C415.125,235.945 413.695,236.08 413.05,234.97 C411.075,232.24 411.16,228.7 411.195,225.485 C411.155,222.965 411.575,220.475 411.88,217.985 C412.355,215.72 412.905,213.45 412.815,211.12 C410.87,211.175 408.975,211.775 407.39,212.895 C401.955,216.525 397.64,221.535 393.615,226.625 C386.955,235.115 381.83,244.645 376.445,253.955 C373.065,260.085 369.53,266.13 366.505,272.445 C365.605,274.29 364.33,276.07 362.405,276.945 C356.245,279.96 349.205,280.15 342.48,280.145 C340.735,280.155 339.02,279.79 337.3,279.545 C336.325,276.23 339.205,273.78 340.555,271.075 C350.82,253.045 360.54,234.71 370.57,216.55 C374.975,208.475 379.495,200.465 383.93,192.41 C385.44,189.835 387.25,187.225 390.055,185.945 C396.075,183.055 402.915,182.355 409.515,182.695 C410.47,182.725 411.39,183.045 412.22,183.52 C412.705,184.775 411.71,185.86 411.165,186.9 C408.925,190.725 406.405,194.38 404.335,198.3 C403.67,199.52 403.28,200.86 403.07,202.23 C404.805,201.54 406.28,200.38 407.7,199.185 C410.2,197.08 413.035,195.385 415.425,193.135 C418.745,191.465 421.715,189.195 424.995,187.44 C429.675,184.795 434.595,182.475 439.845,181.22 L439.845,181.22 Z" id="Shape" fill="#FFFFFF"></path>
                <path d="M323.61,186.25 C333.08,183.08 343.3,181.955 353.2,183.415 C357.915,184.26 363.145,186.035 365.535,190.54 C367.015,194.295 366.205,198.465 365.185,202.23 C362.715,210.265 357.065,216.9 350.745,222.25 C344.025,227.885 336.385,232.355 328.36,235.85 C319.56,239.615 310.235,242.45 300.625,242.905 C299.205,242.91 298.305,244.25 298.2,245.55 C297.91,248.705 297.885,252.11 299.5,254.95 C300.39,256.625 301.87,257.895 303.515,258.79 C307.59,260.61 312.275,260.605 316.595,259.81 C322.53,258.71 328.045,255.975 332.9,252.45 C334.315,251.63 336.075,250.145 337.73,251.24 C338.645,253.045 338.135,255.19 337.615,257.045 C335.13,263.905 329.71,269.29 323.635,273.115 C313.41,279.555 300.65,281.595 288.865,279.14 C285.49,278.345 282.1,277.28 279.27,275.225 C274.89,272.54 271.66,268.065 270.585,263.035 C268.71,254.895 270.795,246.505 273.37,238.76 C276.275,230.765 280.25,223.185 285.155,216.235 C294.625,202.76 307.905,191.62 323.61,186.25 L323.61,186.25 Z" id="Shape" fill="#FFFFFF"></path>
                <path d="M178.405,189.425 C184.345,186.065 191.325,185.41 197.995,184.855 C200.27,184.81 202.97,184.675 204.77,186.305 C205.76,187.115 204.985,188.38 204.515,189.255 C194.745,205.975 185.12,222.78 175.855,239.79 C172.815,245.74 169.61,251.66 167.49,258.02 C166.755,260.16 166.27,262.78 167.835,264.69 C169.12,266.545 171.655,268.64 170.215,271.105 C168.105,274.35 164.1,275.5 160.595,276.575 C154.73,277.97 148.625,279.185 142.59,278.36 C139.91,277.965 136.93,276.695 136,273.93 C135.345,271.175 136.215,268.355 137.06,265.74 C139.99,257.415 144.665,249.88 148.52,241.98 C156.575,226.625 164.765,211.34 173.115,196.14 C174.435,193.6 175.785,190.85 178.405,189.425 L178.405,189.425 Z" id="Shape" fill="#FFFFFF"></path>
                <path d="M447.575,185.06 C448.975,185.25 450.76,185.01 451.71,186.315 C452.68,187.85 452.26,189.805 452,191.49 C450.68,197.41 448.09,202.965 445.285,208.31 C440.815,216.575 435.76,224.545 429.91,231.905 C427.85,234.335 425.8,236.81 423.335,238.84 C422.085,239.875 420.415,240.725 418.765,240.2 C417.21,239.305 416.88,237.36 416.23,235.84 C419.255,234.32 421.43,231.635 423.68,229.185 C430.09,221.515 435.515,213.05 440.275,204.27 C443.455,198.2 446.475,191.89 447.575,185.06 L447.575,185.06 Z" id="Shape" fill="#201A17"></path>
                <path d="M411.165,186.9 C413.24,186.98 415.91,186.72 417.33,188.57 C416.79,190.13 416.015,191.595 415.425,193.135 C413.035,195.385 410.2,197.08 407.7,199.185 C406.28,200.38 404.805,201.54 403.07,202.23 C403.28,200.86 403.67,199.52 404.335,198.3 C406.405,194.38 408.925,190.725 411.165,186.9 L411.165,186.9 Z" id="Shape" fill="#201A17"></path>
                <path d="M175.855,239.79 C185.12,222.78 194.745,205.975 204.515,189.255 C206.275,189.455 208.385,189.405 209.655,190.865 C210.385,192.055 209.485,193.36 208.92,194.415 C199.18,210.955 189.705,227.655 180.505,244.5 C177.55,250.325 174.415,256.105 172.32,262.31 C171.67,264.435 171.08,267.04 172.535,268.975 C173.62,270.685 175.64,272.17 175.34,274.435 C175.06,276.57 173.02,277.83 171.3,278.795 C166.485,281.18 161.11,282.15 155.815,282.79 C151.7,283.285 147.255,283.48 143.46,281.54 C142.06,280.88 141.285,279.49 140.585,278.19 C141.085,278.23 142.09,278.315 142.59,278.36 C148.625,279.185 154.73,277.97 160.595,276.575 C164.1,275.5 168.105,274.35 170.215,271.105 C171.655,268.64 169.12,266.545 167.835,264.69 C166.27,262.78 166.755,260.16 167.49,258.02 C169.61,251.66 172.815,245.74 175.855,239.79 L175.855,239.79 Z" id="Shape" fill="#201A17"></path>
                <path d="M365.39,190.13 C368.525,191.78 371.02,194.845 371.15,198.5 C371.28,205.245 368.555,211.78 364.6,217.15 C359.865,223.54 353.65,228.71 346.975,232.97 C334.395,240.81 320.105,246.48 305.205,247.39 C302.855,247.715 302.815,250.665 302.745,252.495 C302.49,254.585 303.565,256.49 303.83,258.48 L303.515,258.79 C301.87,257.895 300.39,256.625 299.5,254.95 C297.885,252.11 297.91,248.705 298.2,245.55 C298.305,244.25 299.205,242.91 300.625,242.905 C310.235,242.45 319.56,239.615 328.36,235.85 C336.385,232.355 344.025,227.885 350.745,222.25 C357.065,216.9 362.715,210.265 365.185,202.23 C366.205,198.465 367.015,194.295 365.535,190.54 L365.39,190.13 L365.39,190.13 Z" id="Shape" fill="#201A17"></path>
                <path d="M324.295,200.815 C328.1,197.745 332.82,194.895 337.91,195.71 C339.895,196.01 341.145,197.975 340.915,199.915 C335.155,200.345 330.28,203.875 326.285,207.79 C320.635,213.485 316.025,220.14 312.075,227.105 C312.28,227.06 312.695,226.97 312.9,226.925 C310.195,228.385 307.16,229.155 304.14,229.585 C304.36,227.265 305.855,225.39 306.85,223.36 C311.58,215.1 317.045,207.08 324.295,200.815 L324.295,200.815 Z" id="Shape" fill="#1F1A17"></path>
                <path d="M326.285,207.79 C330.28,203.875 335.155,200.345 340.915,199.915 C339.895,204.165 337.575,207.975 334.775,211.285 C330.105,217.05 324.095,221.655 317.53,225.06 C316.05,225.825 314.545,226.6 312.9,226.925 C312.695,226.97 312.28,227.06 312.075,227.105 C316.025,220.14 320.635,213.485 326.285,207.79 L326.285,207.79 Z" id="Shape" fill="#E57919"></path>
                <path d="M243.09,203.065 C246.61,200.87 251.085,199.345 255.155,200.88 C256.815,201.385 256.735,204.015 255.365,204.7 C248.995,205.71 243.85,210.015 239.535,214.53 C233.43,221.23 228.48,228.95 224.65,237.155 C222.095,242.795 219.78,248.74 219.73,255.025 C217.935,254.78 216.02,253.93 215.455,252.05 C214.7,249.375 215.165,246.51 215.775,243.85 C218.14,234.955 222.48,226.7 227.605,219.095 C231.875,213 236.755,207.1 243.09,203.065 L243.09,203.065 Z" id="Shape" fill="#201917"></path>
                <path d="M239.535,214.53 C243.85,210.015 248.995,205.71 255.365,204.7 C251.84,211.23 248.06,217.64 244.845,224.345 C240.5,232.655 237.215,241.745 230.725,248.725 C227.73,251.745 224.18,254.75 219.73,255.025 C219.78,248.74 222.095,242.795 224.65,237.155 C228.48,228.95 233.43,221.23 239.535,214.53 L239.535,214.53 Z" id="Shape" fill="#E67818"></path>
                <path d="M407.39,212.895 C408.975,211.775 410.87,211.175 412.815,211.12 C412.905,213.45 412.355,215.72 411.88,217.985 C408.68,219.36 406.42,222.11 403.99,224.485 C397.585,231.3 392.395,239.145 387.705,247.205 C381.82,257.265 376.02,267.39 370.795,277.805 C369.765,279.74 367.99,281.19 365.955,281.96 C360.295,284.385 354.045,284.42 348,284.655 C345.9,284.56 343.43,284.725 341.78,283.19 C341.455,282.11 342.08,281.1 342.48,280.145 C349.205,280.15 356.245,279.96 362.405,276.945 C364.33,276.07 365.605,274.29 366.505,272.445 C369.53,266.13 373.065,260.085 376.445,253.955 C381.83,244.645 386.955,235.115 393.615,226.625 C397.64,221.535 401.955,216.525 407.39,212.895 L407.39,212.895 Z" id="Shape" fill="#201A17"></path>
                <path d="M270.42,239.99 C274.39,231.645 278.75,223.485 283.21,215.395 C283.325,215.725 283.545,216.385 283.66,216.715 C284.155,216.555 284.65,216.39 285.155,216.235 C280.25,223.185 276.275,230.765 273.37,238.76 C273.235,238.35 272.96,237.525 272.825,237.115 C272.075,238.115 271.28,239.08 270.42,239.99 L270.42,239.99 Z" id="Shape" fill="#D17D32"></path>
                <g id="Group" transform="translate(39.000000, 41.000000)" fill="#F2B581">
                    <path d="M190.21,1.265 C199.465,0.275 208.78,0.645 218.065,0.63 C211.225,3.265 204.755,6.78 198.59,10.725 C197.545,10.425 196.49,10.16 195.45,9.86 C195.12,10.375 194.795,10.89 194.465,11.4 C192.495,11.725 190.555,12.175 188.625,12.68 C185.255,10.265 181.065,11.845 177.28,11.27 C172.365,10.57 167.455,11.655 162.53,11.37 C160.325,11.155 158.85,13.18 156.87,13.65 C154.855,13.275 153.095,11.955 151.01,11.88 C148.46,12.6 146.32,14.295 143.885,15.305 C144.03,14.525 144.185,13.75 144.34,12.975 C137.64,14.61 131.09,16.9 124.86,19.855 C123.33,20.54 121.735,21.075 120.175,21.7 C117.395,22.775 115.1,24.795 112.285,25.805 C108.575,27.22 104.86,28.775 101.685,31.205 C98.83,33.44 95.575,35.065 92.63,37.17 C87.545,40.665 81.955,43.65 77.85,48.36 C76.34,50.1 74.33,51.24 72.425,52.475 C70.605,53.625 69.44,55.475 68,57.025 C66.475,58.68 64.415,59.715 62.87,61.35 C61.96,62.295 61.19,63.365 60.35,64.37 C58.555,66.56 56.195,68.21 54.51,70.495 C51.97,73.82 50.055,77.79 46.365,80.05 C46.565,81.285 46.775,82.52 46.99,83.755 C45.97,83.55 44.945,83.365 43.925,83.17 C43.7,84.2 43.405,85.215 43.165,86.25 C40.175,88.775 39.275,92.72 38.56,96.39 C37.54,96.88 36.415,97.235 35.55,97.995 C35.085,99.205 34.93,100.51 34.585,101.76 C34.055,103.95 32.66,105.825 32.255,108.055 C31.86,110.125 31.655,112.275 30.675,114.18 C29.77,115.98 29.24,117.93 28.925,119.91 C28.47,122.86 26.895,125.5 26.565,128.475 C26.325,130.355 26.075,132.24 25.52,134.055 C24.325,137.93 24.28,142.015 23.655,145.99 C22.8,153.625 22.93,161.325 23.105,168.99 C23.545,173.17 23.525,177.46 24.885,181.49 C26.785,177.83 27.97,173.81 30.52,170.51 C29.665,174.255 28.005,177.75 26.975,181.445 C26.455,183.325 25.9,185.215 24.93,186.92 C22.84,190.25 22.475,194.225 21.35,197.91 C20.51,200.85 19.605,203.77 18.62,206.665 C18.8,203.17 19.12,199.66 18.78,196.16 C18.225,196.335 17.67,196.51 17.12,196.695 C17.39,194.84 17.325,192.955 16.815,191.155 C16.095,188.7 16.855,186.13 16.325,183.655 C15.925,181.62 15.575,179.57 15.255,177.52 C14.82,174.77 13.845,172.13 13.54,169.35 C12.95,164.2 12.49,158.91 13.695,153.815 C14.235,151.375 15.27,149.03 15.37,146.515 C15.46,144.32 14.64,142.2 14.725,140.01 C15.1,138.25 16.085,136.67 16.345,134.875 C17.455,128.01 20.615,121.725 23.41,115.43 C25.41,110.82 28.7,106.845 30.14,101.99 C30.92,99.67 32.375,97.675 33.655,95.62 C42.01,82.95 51.455,70.94 62.365,60.365 C96.39,26.625 142.415,5.16 190.21,1.265 L190.21,1.265 Z" id="Shape"></path>
                    <path d="M231.22,1.74 C231.57,1.865 231.92,1.995 232.275,2.125 C236.42,4.1 241.155,3.59 245.435,5.075 C249.14,6.31 253.045,7 256.52,8.85 C258.625,9.985 261.03,10.26 263.38,10.405 C262.49,10.98 261.59,11.54 260.755,12.19 C263.155,13.64 266.175,13.775 268.375,15.595 C270.8,17.525 272.875,19.845 275.17,21.92 C276.635,23.27 278.735,23.35 280.485,24.14 C281.105,24.69 281.315,25.55 281.715,26.26 C276.78,26.97 271.85,25.875 266.905,26.065 C262.88,26.04 258.895,25.435 254.88,25.24 C250.42,25.035 245.96,24.8 241.5,24.835 C237.93,24.83 234.365,25.29 230.805,24.875 C236.375,23.41 242.125,25.025 247.75,24.13 C249.45,23.88 251.11,23.425 252.775,22.985 C248.31,19.33 242.925,17.17 237.81,14.63 C235.8,13.625 233.56,13.285 231.345,13.11 C231.2,11.95 231.065,10.79 230.945,9.63 C229.42,10.745 227.64,11.705 225.73,10.975 C227.52,8.33 229.71,5.895 230.765,2.82 C230.88,2.55 231.105,2.01 231.22,1.74 L231.22,1.74 Z" id="Shape"></path>
                    <path d="M232.275,2.125 C235.36,1.945 238.4,2.565 241.43,3.09 C252.545,4.945 263.54,7.61 274.195,11.315 C276.49,12.1 278.87,12.735 280.965,14.005 C284.495,16.455 288.715,17.5 292.46,19.545 C295.615,21.21 298.97,22.525 301.91,24.58 C304.965,26.87 308.645,28.41 311.01,31.52 C312.355,33.28 314.545,33.895 316.525,34.635 C309.31,34.925 302.55,31.685 295.415,31.095 C291.74,30.655 288.185,29.575 284.54,28.965 C278.705,27.725 272.74,27.265 266.905,26.065 C271.85,25.875 276.78,26.97 281.715,26.26 C281.315,25.55 281.105,24.69 280.485,24.14 C278.735,23.35 276.635,23.27 275.17,21.92 C272.875,19.845 270.8,17.525 268.375,15.595 C266.175,13.775 263.155,13.64 260.755,12.19 C261.59,11.54 262.49,10.98 263.38,10.405 C261.03,10.26 258.625,9.985 256.52,8.85 C253.045,7 249.14,6.31 245.435,5.075 C241.155,3.59 236.42,4.1 232.275,2.125 L232.275,2.125 Z" id="Shape"></path>
                    <path d="M230.645,2.925 L230.765,2.82 C229.71,5.895 227.52,8.33 225.73,10.975 C227.64,11.705 229.42,10.745 230.945,9.63 C231.065,10.79 231.2,11.95 231.345,13.11 C233.56,13.285 235.8,13.625 237.81,14.63 C242.925,17.17 248.31,19.33 252.775,22.985 C251.11,23.425 249.45,23.88 247.75,24.13 C242.125,25.025 236.375,23.41 230.805,24.875 C227.53,25.46 224.19,25.48 220.89,25.82 C217.2,26.1 213.555,26.8 209.855,26.945 C213.985,21.735 218.315,16.685 222.62,11.625 C225.265,8.695 227.71,5.58 230.645,2.925 L230.645,2.925 Z" id="Shape"></path>
                    <path d="M195.45,9.86 C196.49,10.16 197.545,10.425 198.59,10.725 C192.375,14.665 186.575,19.2 180.745,23.68 C179.15,23.91 177.605,24.395 176.095,24.945 C175.52,24.455 174.955,23.965 174.39,23.475 C172.925,23.86 171.33,24.005 170.025,24.83 C169.855,25.425 169.79,26.045 169.705,26.66 C168.475,25.88 167.155,25.035 165.63,25.155 C161.475,25.26 157.35,25.83 153.215,26.185 C150.29,26.44 147.3,26.175 144.435,26.95 C140.94,27.865 137.775,29.725 134.275,30.63 C130.395,31.65 126.6,32.975 122.675,33.825 C119.225,34.515 116.42,36.74 113.3,38.22 C109.725,39.91 106.465,42.17 103.005,44.07 C99.41,46.22 95.77,48.34 92.525,51.01 C89.77,53.265 86.685,55.125 84.18,57.685 C81.855,60.03 79.495,62.36 76.85,64.355 C73.12,67.13 70.81,71.29 67.43,74.425 C65.945,75.93 63.89,77.115 63.305,79.285 C61.91,84.14 57.685,87.33 54.535,91.025 C53.12,93.41 53.185,96.365 51.88,98.825 C48.04,106.98 43.535,114.985 41.825,123.935 C41.59,125.395 42.13,126.82 42.105,128.275 C40.935,129.99 38.6,131.01 38.335,133.27 C37.905,136.68 39.03,140.1 38.45,143.505 C37.97,146.225 35.99,148.565 36.145,151.415 C36.21,152.07 36.255,152.725 36.285,153.385 C37,152.35 37.645,151.265 38.365,150.23 C38.72,150.035 39.075,149.835 39.425,149.635 C38.265,153.895 35.895,157.685 34.275,161.775 C32.93,164.645 32.14,167.77 30.52,170.51 C27.97,173.81 26.785,177.83 24.885,181.49 C23.525,177.46 23.545,173.17 23.105,168.99 C22.93,161.325 22.8,153.625 23.655,145.99 C24.28,142.015 24.325,137.93 25.52,134.055 C26.075,132.24 26.325,130.355 26.565,128.475 C26.895,125.5 28.47,122.86 28.925,119.91 C29.24,117.93 29.77,115.98 30.675,114.18 C31.655,112.275 31.86,110.125 32.255,108.055 C32.66,105.825 34.055,103.95 34.585,101.76 C34.93,100.51 35.085,99.205 35.55,97.995 C36.415,97.235 37.54,96.88 38.56,96.39 C39.275,92.72 40.175,88.775 43.165,86.25 C43.405,85.215 43.7,84.2 43.925,83.17 C44.945,83.365 45.97,83.55 46.99,83.755 C46.775,82.52 46.565,81.285 46.365,80.05 C50.055,77.79 51.97,73.82 54.51,70.495 C56.195,68.21 58.555,66.56 60.35,64.37 C61.19,63.365 61.96,62.295 62.87,61.35 C64.415,59.715 66.475,58.68 68,57.025 C69.44,55.475 70.605,53.625 72.425,52.475 C74.33,51.24 76.34,50.1 77.85,48.36 C81.955,43.65 87.545,40.665 92.63,37.17 C95.575,35.065 98.83,33.44 101.685,31.205 C104.86,28.775 108.575,27.22 112.285,25.805 C115.1,24.795 117.395,22.775 120.175,21.7 C121.735,21.075 123.33,20.54 124.86,19.855 C131.09,16.9 137.64,14.61 144.34,12.975 C144.185,13.75 144.03,14.525 143.885,15.305 C146.32,14.295 148.46,12.6 151.01,11.88 C153.095,11.955 154.855,13.275 156.87,13.65 C158.85,13.18 160.325,11.155 162.53,11.37 C167.455,11.655 172.365,10.57 177.28,11.27 C181.065,11.845 185.255,10.265 188.625,12.68 C190.555,12.175 192.495,11.725 194.465,11.4 C194.795,10.89 195.12,10.375 195.45,9.86 L195.45,9.86 Z" id="Shape"></path>
                    <path d="M280.965,14.005 C284.485,14.555 287.69,16.185 290.935,17.57 C300.77,21.855 310.3,26.855 319.29,32.71 C324.09,35.675 328.545,39.16 332.815,42.835 C329.89,42.865 327.37,41.255 324.68,40.365 C317.745,38.075 310.835,35.705 303.825,33.665 C300.995,32.9 298.085,32.35 295.415,31.095 C302.55,31.685 309.31,34.925 316.525,34.635 C314.545,33.895 312.355,33.28 311.01,31.52 C308.645,28.41 304.965,26.87 301.91,24.58 C298.97,22.525 295.615,21.21 292.46,19.545 C288.715,17.5 284.495,16.455 280.965,14.005 L280.965,14.005 Z" id="Shape"></path>
                    <path d="M174.39,23.475 C174.955,23.965 175.52,24.455 176.095,24.945 C177.605,24.395 179.15,23.91 180.745,23.68 C174.43,29.025 168.125,34.4 162.26,40.24 C160.245,39.625 158.385,40.895 156.575,41.59 C132.315,51.565 109.74,65.685 90.28,83.285 C70.81,100.91 54.345,121.89 42.17,145.17 C41.285,146.66 40.815,148.525 39.425,149.635 C39.075,149.835 38.72,150.035 38.365,150.23 C37.645,151.265 37,152.35 36.285,153.385 C36.255,152.725 36.21,152.07 36.145,151.415 C35.99,148.565 37.97,146.225 38.45,143.505 C39.03,140.1 37.905,136.68 38.335,133.27 C38.6,131.01 40.935,129.99 42.105,128.275 C42.13,126.82 41.59,125.395 41.825,123.935 C43.535,114.985 48.04,106.98 51.88,98.825 C53.185,96.365 53.12,93.41 54.535,91.025 C57.685,87.33 61.91,84.14 63.305,79.285 C63.89,77.115 65.945,75.93 67.43,74.425 C70.81,71.29 73.12,67.13 76.85,64.355 C79.495,62.36 81.855,60.03 84.18,57.685 C86.685,55.125 89.77,53.265 92.525,51.01 C95.77,48.34 99.41,46.22 103.005,44.07 C106.465,42.17 109.725,39.91 113.3,38.22 C116.42,36.74 119.225,34.515 122.675,33.825 C126.6,32.975 130.395,31.65 134.275,30.63 C137.775,29.725 140.94,27.865 144.435,26.95 C147.3,26.175 150.29,26.44 153.215,26.185 C157.35,25.83 161.475,25.26 165.63,25.155 C167.155,25.035 168.475,25.88 169.705,26.66 C169.79,26.045 169.855,25.425 170.025,24.83 C171.33,24.005 172.925,23.86 174.39,23.475 Z" id="Shape"></path>
                    <path d="M23.15,114.15 C25.335,110.02 27.09,105.585 30.14,101.99 C28.7,106.845 25.41,110.82 23.41,115.43 C20.615,121.725 17.455,128.01 16.345,134.875 C16.085,136.67 15.1,138.25 14.725,140.01 C14.64,142.2 15.46,144.32 15.37,146.515 C15.27,149.03 14.235,151.375 13.695,153.815 C12.49,158.91 12.95,164.2 13.54,169.35 C13.845,172.13 14.82,174.77 15.255,177.52 C15.575,179.57 15.925,181.62 16.325,183.655 C16.855,186.13 16.095,188.7 16.815,191.155 C17.325,192.955 17.39,194.84 17.12,196.695 C17.67,196.51 18.225,196.335 18.78,196.16 C19.12,199.66 18.8,203.17 18.62,206.665 C19.605,203.77 20.51,200.85 21.35,197.91 C22.475,194.225 22.84,190.25 24.93,186.92 C24.72,188.88 24.275,190.805 23.705,192.69 C22.43,196.93 21.58,201.28 20.595,205.6 C19.78,209.155 19.5,212.83 18.365,216.315 C17.265,219.555 16.475,222.885 15.67,226.205 C13.58,222.545 13.25,218.27 11.63,214.43 C10.945,212.73 10.65,210.915 10.13,209.17 C9.54,207.235 8.185,205.59 7.9,203.56 C7.48,200.78 7.805,197.93 7.25,195.165 C7.055,194.09 6.065,193.465 5.35,192.74 C6.075,189.83 6.11,186.81 5.525,183.875 C4.995,183.965 4.46,184.065 3.93,184.16 C3.8,177.76 5.62,171.575 6.275,165.255 C6.725,161.62 7.735,158.075 8.015,154.415 C8.265,152.1 9,149.885 9.7,147.685 C13.2,136.145 17.665,124.89 23.15,114.15 L23.15,114.15 Z" id="Shape"></path>
                    <path d="M5.935,161.49 C6.44,159.08 6.915,156.635 8.015,154.415 C7.735,158.075 6.725,161.62 6.275,165.255 C5.62,171.575 3.8,177.76 3.93,184.16 C4.46,184.065 4.995,183.965 5.525,183.875 C6.11,186.81 6.075,189.83 5.35,192.74 C6.065,193.465 7.055,194.09 7.25,195.165 C7.805,197.93 7.48,200.78 7.9,203.56 C8.185,205.59 9.54,207.235 10.13,209.17 C10.65,210.915 10.945,212.73 11.63,214.43 C13.25,218.27 13.58,222.545 15.67,226.205 C16.475,222.885 17.265,219.555 18.365,216.315 C18.435,219.7 17.75,223.025 17.355,226.37 C17.02,229.01 17.155,231.73 16.345,234.295 C14.62,238.41 15.995,243.005 14.365,247.145 C13.73,244.68 13.435,242.14 12.765,239.685 C11.845,239.96 11.18,240.67 10.47,241.265 C7.885,237.74 8.155,233.21 6.895,229.205 C6.51,227.68 5.345,226.575 4.265,225.515 C4.155,223.075 4.05,220.59 3.205,218.27 C2.33,215.83 1.73,213.27 1.79,210.665 C1.85,207.04 1.555,203.425 1.12,199.83 C0.915,197.765 1,195.685 1.2,193.625 C1.955,186.36 2.435,179.05 3.845,171.87 C4.54,168.41 5.15,164.93 5.935,161.49 L5.935,161.49 Z" id="Shape"></path>
                    <path d="M1.12,199.83 C1.555,203.425 1.85,207.04 1.79,210.665 C1.73,213.27 2.33,215.83 3.205,218.27 C4.05,220.59 4.155,223.075 4.265,225.515 C5.345,226.575 6.51,227.68 6.895,229.205 C8.155,233.21 7.885,237.74 10.47,241.265 C11.18,240.67 11.845,239.96 12.765,239.685 C13.435,242.14 13.73,244.68 14.365,247.145 C15.995,243.005 14.62,238.41 16.345,234.295 C16.935,238.19 16.165,242.09 16.11,245.99 C15.9,253.155 16.4,260.32 16.815,267.475 C16.935,273.005 17.425,278.515 18.1,284.005 C18.275,285.445 18.245,286.905 18.15,288.355 C15.815,284.405 14.39,280.025 12.655,275.8 C11.84,273.85 11.205,271.83 10.635,269.795 C9.86,266.935 8.28,264.35 7.7,261.43 C6.97,257.585 5.435,253.92 5.035,250.01 C4.6,245.98 3.365,242.095 2.885,238.075 C1.92,230.575 0.9,223.055 0.85,215.48 C0.64,210.265 0.325,205.015 1.12,199.83 L1.12,199.83 Z" id="Shape"></path>
                </g>
                <path d="M337.615,257.045 C338.855,255.54 340.98,255.09 342.82,255.61 C342.91,257.67 343.02,259.81 342.27,261.78 C339.795,268.495 334.49,273.775 328.52,277.52 C317.4,284.495 303.28,286.445 290.685,282.8 C286.975,281.78 283.62,279.78 280.74,277.26 C280.165,276.65 278.835,276.285 279.27,275.225 C282.1,277.28 285.49,278.345 288.865,279.14 C300.65,281.595 313.41,279.555 323.635,273.115 C329.71,269.29 335.13,263.905 337.615,257.045 L337.615,257.045 Z" id="Shape" fill="#201917"></path>
                <path d="M221.64,269.625 C224.025,267.865 225.965,265.345 228.945,264.545 C227.935,267.85 226.47,271.035 226.1,274.51 C219.7,278.975 212.42,282.605 204.505,283.065 C200,283.49 194.575,282.165 192.4,277.79 L192.99,277.93 C194.94,278.465 196.97,278.755 199,278.645 C207.295,278.28 215.165,274.69 221.64,269.625 L221.64,269.625 Z" id="Shape" fill="#201A17"></path>
                <path d="M378.925,288.96 C381.13,285.975 383.84,283.19 387.395,281.885 C386.795,283.865 386.125,285.825 385.475,287.79 C382.685,295.335 380.94,303.205 379.035,311.005 C377,319.885 375.225,328.82 373.64,337.79 C370.04,360.03 365.43,382.325 356.8,403.22 C351.745,415.565 341.725,426.01 329.075,430.57 C320.035,433.93 310.025,434.4 300.64,432.27 C294.51,431 288.815,428.345 283.115,425.85 C279.885,424.415 276.935,422.44 274.17,420.255 C261.96,410.17 253.135,396.81 243.715,384.25 C239.135,378.2 234.49,372.195 229.59,366.4 C228.9,365.41 228.225,364.41 227.565,363.405 C231.355,364.97 234.93,366.985 238.46,369.055 C254.475,378.565 269.205,390.19 285.815,398.7 C293.805,402.725 302.42,406.255 311.5,406.27 C317.955,406.395 324.41,404.01 329.25,399.735 C334.815,394.84 338.64,388.29 341.46,381.51 C344.67,373.695 347.335,365.67 350.115,357.7 C356.04,340.395 361.855,323.015 369.315,306.295 C372.075,300.29 375.015,294.31 378.925,288.96 L378.925,288.96 Z" id="Shape" fill="#FFFFFF"></path>
                <path d="M385.475,287.79 C386.985,287.175 388.47,286.51 389.995,285.93 C388.895,289.62 387.395,293.175 386.35,296.885 C382.38,310.66 379.375,324.695 376.805,338.79 C373.075,361.7 368.595,384.715 359.79,406.29 C357.57,412.01 354.155,417.15 350.38,421.955 C346.665,425.47 342.87,428.995 338.315,431.42 C335.095,433.175 331.69,434.58 328.18,435.64 C327.33,435.895 326.475,436.13 325.63,436.38 C323.955,436.665 322.28,436.92 320.6,437.16 C315.51,437.475 310.36,437.525 305.33,436.56 C298.335,435.405 291.845,432.44 285.42,429.57 C281.015,427.57 277.18,424.555 273.555,421.395 C273.71,421.11 274.015,420.54 274.17,420.255 C276.935,422.44 279.885,424.415 283.115,425.85 C288.815,428.345 294.51,431 300.64,432.27 C310.025,434.4 320.035,433.93 329.075,430.57 C341.725,426.01 351.745,415.565 356.8,403.22 C365.43,382.325 370.04,360.03 373.64,337.79 C375.225,328.82 377,319.885 379.035,311.005 C380.94,303.205 382.685,295.335 385.475,287.79 L385.475,287.79 Z" id="Shape" fill="#211916"></path>
                <path d="M183.245,295.145 C183.865,295.13 184.49,295.115 185.115,295.1 C185.25,304.535 185.18,313.97 185.145,323.405 C180.89,323.17 176.1,324.285 172.385,321.615 C167.53,318.29 167.54,310.235 172.24,306.77 C175.3,304.155 179.52,304.72 183.24,304.655 C183.29,301.485 183.32,298.315 183.245,295.145 L183.245,295.145 Z" id="Shape" fill="#341703"></path>
                <path d="M266.23,295.155 C266.82,295.145 267.415,295.14 268.01,295.135 C268.23,304.54 268.185,313.96 268.035,323.365 C267.425,323.355 266.82,323.35 266.22,323.35 C266.265,313.95 266.25,304.55 266.23,295.155 L266.23,295.155 Z" id="Shape" fill="#321602"></path>
                <path d="M148.19,295.735 C154.315,294.05 161.195,297.27 164.105,302.855 C166.505,307.355 166.34,313.19 163.415,317.42 C160.015,322.765 152.87,325.225 146.9,323.06 C141.935,321.34 138.18,316.675 137.525,311.465 C136.46,304.535 141.315,297.275 148.19,295.735 L148.19,295.735 Z" id="Shape" fill="#361701"></path>
                <path d="M230.79,295.22 L232.73,295.22 C232.74,298.365 232.775,301.51 232.715,304.655 C234.865,304.735 237.02,304.74 239.17,304.75 C239.155,305.395 239.14,306.045 239.12,306.7 C237.005,306.67 234.885,306.675 232.77,306.73 C232.77,310.325 232.69,313.925 232.77,317.52 C232.805,319.06 233.15,321.035 234.82,321.61 C236.18,321.945 237.605,321.845 238.995,321.915 C238.98,322.295 238.94,323.055 238.92,323.435 C236.825,323.285 234.39,323.815 232.63,322.375 C230.99,321.14 230.87,318.885 230.8,317.01 C230.79,309.745 230.775,302.485 230.79,295.22 L230.79,295.22 Z" id="Shape" fill="#321804"></path>
                <path d="M317.085,295.425 C317.63,295.58 318.16,295.78 318.685,296.025 C318.645,296.38 318.565,297.085 318.525,297.435 C317.795,297.535 317.065,297.61 316.33,297.67 C316.58,296.92 316.72,296.13 317.085,295.425 L317.085,295.425 Z" id="Shape" fill="#592200"></path>
                <path d="M149.185,297.28 C152.335,296.74 155.725,297.23 158.37,299.105 C161.77,301.38 164.09,305.345 163.92,309.495 C164.31,316.21 158.235,322.45 151.5,322.2 C144.81,322.35 138.935,316.12 139.205,309.495 C139.095,303.74 143.515,298.295 149.185,297.28 L149.185,297.28 Z" id="Shape" fill="#E67817"></path>
                <path d="M196.165,304.665 C201.975,302.855 208.475,307.955 208.26,314 C208.465,319.735 202.64,324.64 197.03,323.505 C192.375,322.79 188.705,318.23 189.115,313.52 C189.165,309.445 192.235,305.675 196.165,304.665 L196.165,304.665 Z" id="Shape" fill="#341702"></path>
                <path d="M211.42,311.49 C211.88,306.22 218.32,302.81 223.025,305.005 C225.805,306.13 227.76,308.995 227.795,311.99 C227.87,315.79 227.755,319.585 227.82,323.385 C227.205,323.38 226.6,323.38 225.995,323.39 C225.745,319.59 225.98,315.785 225.86,311.985 C225.87,308.705 222.68,306.045 219.495,306.205 C216.2,306.29 213.32,309.26 213.25,312.54 C213.15,316.15 213.275,319.765 213.185,323.38 C212.725,323.375 211.8,323.365 211.34,323.36 C211.365,319.405 211.155,315.44 211.42,311.49 L211.42,311.49 Z" id="Shape" fill="#341802"></path>
                <path d="M249.2,304.745 C253.86,303.175 259.27,305.99 260.945,310.545 C262.435,314.205 261.275,318.71 258.27,321.25 C255.22,324.055 250.29,324.395 246.84,322.14 C243.67,320.13 241.795,316.205 242.48,312.485 C243.025,308.925 245.75,305.78 249.2,304.745 L249.2,304.745 Z" id="Shape" fill="#331703"></path>
                <path d="M279.195,304.755 C281.725,303.935 284.56,304.34 286.83,305.69 C290.4,307.765 292.415,312.31 291.29,316.325 C290.475,319.695 287.7,322.49 284.33,323.32 C279.54,324.715 274.05,321.525 272.77,316.725 C271.105,311.865 274.315,306.145 279.195,304.755 L279.195,304.755 Z" id="Shape" fill="#341701"></path>
                <path d="M294.56,312.025 C295.28,308.02 299.025,304.935 303.04,304.695 C305.64,304.555 308.25,304.665 310.86,304.645 C310.88,311.93 310.93,319.22 310.855,326.505 C310.845,330.995 306.475,334.87 302.01,334.335 C297.75,334.165 294.45,330.34 294.08,326.23 C294.665,326.195 295.25,326.165 295.84,326.14 C296.405,327.79 296.86,329.59 298.135,330.865 C300.71,333.44 305.56,333.2 307.7,330.17 C309.21,328.255 309.165,325.7 309.155,323.39 C305.985,323.245 302.6,323.805 299.66,322.32 C295.84,320.63 293.65,316.075 294.56,312.025 L294.56,312.025 Z" id="Shape" fill="#2F1605"></path>
                <path d="M325.12,304.68 C328.07,304.74 331.02,304.585 333.965,304.74 C336.04,304.845 338.13,306.03 339.025,307.955 C339.64,309.555 339.6,311.31 339.625,313 C339.58,316.46 339.72,319.93 339.405,323.385 C335.945,323.37 332.485,323.465 329.025,323.36 C325.575,323.355 323.23,319.7 323.39,316.515 C323.54,313.5 326.135,311.055 329.035,310.585 C331.91,310.115 334.84,310.47 337.74,310.32 C337.295,308.815 336.685,306.875 334.83,306.72 C331.6,306.395 328.335,306.76 325.1,306.405 C325.105,305.825 325.11,305.25 325.12,304.68 L325.12,304.68 Z" id="Shape" fill="#301703"></path>
                <path d="M316.695,305.17 C317.245,305.15 317.8,305.14 318.36,305.13 C318.585,307.575 318.685,310.04 318.555,312.5 C318.29,316.115 318.51,319.74 318.37,323.36 C317.81,323.35 317.25,323.345 316.695,323.345 C316.67,317.285 316.685,311.225 316.695,305.17 L316.695,305.17 Z" id="Shape" fill="#2E1601"></path>
                <path d="M250.735,306.29 C254.44,305.595 258.27,308.13 259.355,311.68 C261,316.225 257.345,321.755 252.485,321.89 C248.11,322.335 244.1,318.315 244.23,313.995 C244.175,310.29 247.105,306.9 250.735,306.29 L250.735,306.29 Z" id="Shape" fill="#E67817"></path>
                <path d="M173.53,308.02 C176.315,305.93 179.995,306.77 183.22,306.585 C183.33,311.66 183.345,316.74 183.195,321.815 C180.015,321.715 176.47,322.245 173.72,320.27 C169.615,317.61 169.575,310.83 173.53,308.02 L173.53,308.02 Z" id="Shape" fill="#E57819"></path>
                <path d="M196.18,306.63 C200.91,304.74 206.63,308.93 206.33,314 C206.56,318.215 202.72,322.12 198.49,321.895 C193.99,321.99 190.285,317.415 190.98,313.035 C191.3,310.125 193.445,307.6 196.18,306.63 L196.18,306.63 Z" id="Shape" fill="#E67818"></path>
                <path d="M279.66,306.575 C284.22,304.915 289.52,308.71 289.705,313.49 C290.08,317.79 286.4,322.055 282,321.9 C277.965,322.065 274.415,318.46 274.23,314.51 C273.99,311.05 276.325,307.58 279.66,306.575 L279.66,306.575 Z" id="Shape" fill="#E67818"></path>
                <path d="M299.1,308.105 C301.94,305.995 305.67,306.705 308.965,306.61 C309.19,311.595 309.175,316.6 308.96,321.59 C305.465,321.625 301.38,321.98 298.64,319.365 C295.42,316.435 295.635,310.74 299.1,308.105 L299.1,308.105 Z" id="Shape" fill="#E57818"></path>
                <path d="M325.195,316.495 C325.56,314.225 327.675,312.415 329.97,312.355 C332.53,312.2 335.105,312.325 337.67,312.325 C337.74,315.48 337.75,318.64 337.635,321.8 C334.67,321.695 331.69,321.995 328.74,321.62 C326.375,321.25 324.79,318.815 325.195,316.495 L325.195,316.495 Z" id="Shape" fill="#E67819"></path>
                <path d="M222.85,353.94 C235.36,350.055 248.35,347.255 261.5,347.27 C272.38,347.14 283.305,349.05 293.455,352.99 C294.455,353.38 295.47,353.735 296.52,353.99 C298.865,354.46 301.095,355.605 302.675,357.43 C301.695,357.265 300.72,357.06 299.79,356.715 C288.94,352.37 277.175,350.415 265.505,350.74 C244.325,351.125 224.09,358.37 204.63,366.11 C189.955,372.01 176.445,380.46 161.685,386.145 C149.425,390.3 136.055,391.18 123.345,388.795 C117.085,387.69 111.3,384.98 105.525,382.45 C102.725,381.225 100.12,379.615 97.555,377.97 C103.78,380.605 109.875,383.75 116.545,385.11 C127.57,387.455 139.09,387.01 150.04,384.465 C155.45,383.22 160.53,380.925 165.555,378.625 C175.405,374.01 184.945,368.74 194.905,364.35 C204.055,360.465 213.39,357 222.85,353.94 L222.85,353.94 Z" id="Shape" fill="#201A16"></path>
                <path d="M229.59,366.4 C234.49,372.195 239.135,378.2 243.715,384.25 C253.135,396.81 261.96,410.17 274.17,420.255 C274.015,420.54 273.71,421.11 273.555,421.395 C266.72,415.205 261.07,407.86 255.545,400.51 C249.84,393.19 244.63,385.49 238.76,378.295 C235.73,374.31 232.09,370.77 229.59,366.4 L229.59,366.4 Z" id="Shape" fill="#361701"></path>
                <path d="M320.6,437.16 C322.28,436.92 323.955,436.665 325.63,436.38 C323.94,437.685 322.165,438.905 320.145,439.64 C320.385,439.085 320.625,438.535 320.875,437.99 C317.695,438.14 314.505,438.09 311.335,437.81 C314.43,437.745 317.54,437.675 320.6,437.16 L320.6,437.16 Z" id="Shape" fill="#CF793C"></path>
                <g id="Group-2" transform="translate(215.000000, 193.000000)" fill="#A96047">
                    <path d="M243.815,16.525 C243.69,11.1 242.74,5.72 242.77,0.29 C245.545,9.15 247.11,18.35 248.485,27.525 C249.26,33.96 250.08,40.42 250.195,46.905 C250.065,49.34 249.86,51.765 249.7,54.195 C247.83,52.225 246.35,49.925 245.27,47.44 C244.715,48.64 244.135,49.835 243.535,51.015 C243.475,50.705 243.35,50.09 243.29,49.78 C243.305,46.255 243.665,42.75 243.805,39.23 C244.26,31.67 244.005,24.09 243.815,16.525 L243.815,16.525 Z" id="Shape"></path>
                    <path d="M250.195,46.905 C250.76,59.96 250.435,73.11 248.41,86.04 C248.4,85.24 248.375,84.44 248.355,83.65 C247.37,83.535 246.385,83.405 245.405,83.29 C245.04,79.74 244.02,76.265 241.97,73.32 C241.05,74.67 240.11,76.01 239.305,77.43 C239.9,73.61 240.29,69.765 241.015,65.97 C241.96,60.6 242.39,55.155 243.29,49.78 C243.35,50.09 243.475,50.705 243.535,51.015 C244.135,49.835 244.715,48.64 245.27,47.44 C246.35,49.925 247.83,52.225 249.7,54.195 C249.86,51.765 250.065,49.34 250.195,46.905 L250.195,46.905 Z" id="Shape"></path>
                    <path d="M239.305,77.43 C240.11,76.01 241.05,74.67 241.97,73.32 C244.02,76.265 245.04,79.74 245.405,83.29 C246.385,83.405 247.37,83.535 248.355,83.65 C248.375,84.44 248.4,85.24 248.41,86.04 C247.925,91.62 246.675,97.115 245.555,102.6 C244.94,105.05 244.655,107.635 243.57,109.94 C242.81,110.985 241.985,111.98 241.17,112.985 C240.4,109.74 240.07,106.375 238.785,103.265 C238.035,101.49 238.025,99.54 238.125,97.65 C237.78,97.785 237.44,97.92 237.105,98.06 C236.575,97.55 236.045,97.035 235.525,96.525 C234.88,97.855 234.25,99.185 233.61,100.515 C234.455,97.02 235.37,93.545 236.07,90.02 C237.305,85.865 238.345,81.655 239.305,77.43 L239.305,77.43 Z" id="Shape"></path>
                    <path d="M233.42,98.355 C234.125,95.52 235.05,92.755 236.07,90.02 C235.37,93.545 234.455,97.02 233.61,100.515 C234.25,99.185 234.88,97.855 235.525,96.525 C236.045,97.035 236.575,97.55 237.105,98.06 C237.44,97.92 237.78,97.785 238.125,97.65 C238.025,99.54 238.035,101.49 238.785,103.265 C240.07,106.375 240.4,109.74 241.17,112.985 C241.985,111.98 242.81,110.985 243.57,109.94 C243.05,114.06 241.56,117.97 240.395,121.935 C239.645,124.13 239.135,126.445 237.975,128.475 C235.985,131.345 234.84,134.665 233.19,137.725 C232.505,134.76 233.2,131.74 233.04,128.755 C232.725,126.15 232.005,123.6 232.055,120.955 C232.08,117.68 231.525,114.435 230.685,111.28 C229.49,114.7 227.88,117.95 225.825,120.935 C227.9,113.26 231.31,106.02 233.42,98.355 L233.42,98.355 Z" id="Shape"></path>
                    <path d="M225.825,120.935 C227.88,117.95 229.49,114.7 230.685,111.28 C231.525,114.435 232.08,117.68 232.055,120.955 C232.005,123.6 232.725,126.15 233.04,128.755 C233.2,131.74 232.505,134.76 233.19,137.725 C234.84,134.665 235.985,131.345 237.975,128.475 C236.9,133.175 234.72,137.52 232.955,141.985 C230.86,146.8 228.61,151.55 226.19,156.21 C225.54,156.425 224.9,156.645 224.265,156.87 C224.66,153.975 225.2,151.09 225.235,148.16 C225.275,144.215 226.19,140.295 225.705,136.35 C225.265,132.745 225.165,129.115 225.365,125.495 C224.32,126.62 223.25,127.725 222.26,128.895 C223.34,126.195 224.4,123.48 225.825,120.935 L225.825,120.935 Z" id="Shape"></path>
                    <path d="M222.26,128.895 C223.25,127.725 224.32,126.62 225.365,125.495 C225.165,129.115 225.265,132.745 225.705,136.35 C226.19,140.295 225.275,144.215 225.235,148.16 C225.2,151.09 224.66,153.975 224.265,156.87 C224.9,156.645 225.54,156.425 226.19,156.21 C210.495,186.77 187.09,213.265 159.015,233.02 C155.865,235.055 152.93,237.455 149.515,239.055 C150.185,238.17 150.79,237.24 151.4,236.315 C144.19,235.73 137.275,239.365 130.055,238.165 C128.12,237.775 126.195,238.28 124.44,239.09 C124.06,238.86 123.685,238.64 123.315,238.42 C127.87,235.995 131.665,232.47 135.38,228.955 C139.71,227 143.33,223.88 147.2,221.19 C152.9,217.1 158.01,212.275 163.545,207.98 C162.535,209.305 161.535,210.66 160.28,211.765 C157.225,214.415 154.49,217.395 151.485,220.095 C154.93,219.205 157.745,216.965 160.87,215.375 C163.26,214.105 165.6,212.72 168.12,211.715 C171.245,210.52 173.805,208.31 176.72,206.725 C178.43,205.815 179.735,204.37 180.955,202.905 C182.83,200.615 185.61,199.28 187.39,196.905 C188.895,194.91 190.245,192.79 191.985,190.98 C194.47,188.425 195.97,185.105 198.53,182.615 C200.37,180.785 201.025,178.205 201.925,175.855 C203.285,172.38 204.47,168.83 206.025,165.435 C206.685,164.1 206.66,162.59 206.585,161.14 C204.795,161.87 203.12,162.88 201.855,164.37 C205.535,158.53 209.6,152.925 212.79,146.785 C216.395,141.06 218.835,134.72 222.26,128.895 L222.26,128.895 Z" id="Shape"></path>
                    <path d="M201.855,164.37 C203.12,162.88 204.795,161.87 206.585,161.14 C206.66,162.59 206.685,164.1 206.025,165.435 C204.47,168.83 203.285,172.38 201.925,175.855 C201.025,178.205 200.37,180.785 198.53,182.615 C195.97,185.105 194.47,188.425 191.985,190.98 C190.245,192.79 188.895,194.91 187.39,196.905 C185.61,199.28 182.83,200.615 180.955,202.905 C179.735,204.37 178.43,205.815 176.72,206.725 C173.805,208.31 171.245,210.52 168.12,211.715 C165.6,212.72 163.26,214.105 160.87,215.375 C157.745,216.965 154.93,219.205 151.485,220.095 C154.49,217.395 157.225,214.415 160.28,211.765 C161.535,210.66 162.535,209.305 163.545,207.98 C168.335,203.285 173.375,198.83 177.82,193.79 C186.695,184.725 194.485,174.675 201.855,164.37 L201.855,164.37 Z" id="Shape"></path>
                    <path d="M130.055,238.165 C137.275,239.365 144.19,235.73 151.4,236.315 C150.79,237.24 150.185,238.17 149.515,239.055 C147.92,240.52 145.92,241.45 144.09,242.58 C140.41,244.62 136.86,246.935 132.93,248.48 C134.015,247.6 135.04,246.645 136.08,245.705 C129.75,244.29 123.24,245.525 116.86,244.74 C115.36,244.645 114.19,243.65 113.18,242.64 C116.69,241.58 120.095,240.175 123.315,238.42 C123.685,238.64 124.06,238.86 124.44,239.09 C126.195,238.28 128.12,237.775 130.055,238.165 L130.055,238.165 Z" id="Shape"></path>
                    <path d="M110.63,243.38 C111.475,243.13 112.33,242.895 113.18,242.64 C114.19,243.65 115.36,244.645 116.86,244.74 C123.24,245.525 129.75,244.29 136.08,245.705 C135.04,246.645 134.015,247.6 132.93,248.48 C128.245,251.355 123.05,253.31 118.055,255.575 C117.71,254.53 117.94,252.875 116.615,252.54 C114.485,251.87 112.235,251.695 110.025,251.46 C107.905,251.21 105.755,251.69 103.65,251.335 C102.35,250.76 101.455,249.605 100.54,248.57 C102.05,247.87 103.595,247.25 105.145,246.64 C107.165,245.905 108.94,244.685 110.63,243.38 L110.63,243.38 Z" id="Shape"></path>
                    <path d="M88.725,253.675 C92.78,252.26 96.635,250.355 100.54,248.57 C101.455,249.605 102.35,250.76 103.65,251.335 C105.755,251.69 107.905,251.21 110.025,251.46 C112.235,251.695 114.485,251.87 116.615,252.54 C117.94,252.875 117.71,254.53 118.055,255.575 C111.465,258.13 104.91,260.925 98.035,262.62 C99.565,261.705 101.055,260.72 102.59,259.815 C102.47,259.325 102.35,258.835 102.245,258.35 C98.57,258.005 95,256.995 91.49,255.91 C90.26,255.615 89.43,254.645 88.725,253.675 L88.725,253.675 Z" id="Shape"></path>
                    <path d="M72.215,259.235 C77.88,257.885 83.235,255.57 88.725,253.675 C89.43,254.645 90.26,255.615 91.49,255.91 C95,256.995 98.57,258.005 102.245,258.35 C102.35,258.835 102.47,259.325 102.59,259.815 C101.055,260.72 99.565,261.705 98.035,262.62 C96.64,263.315 95.1,263.655 93.61,264.09 C88.63,265.41 83.67,266.855 78.575,267.68 C80.405,266.99 81.86,265.655 83.2,264.275 C79.46,264.665 75.725,263.525 72.72,261.31 C72.255,260.745 72.36,259.91 72.215,259.235 L72.215,259.235 Z" id="Shape"></path>
                    <path d="M51.77,264.63 C58.615,262.925 65.55,261.57 72.215,259.235 C72.36,259.91 72.255,260.745 72.72,261.31 C75.725,263.525 79.46,264.665 83.2,264.275 C81.86,265.655 80.405,266.99 78.575,267.68 C71.55,269.325 64.365,270.285 57.195,271.085 C54.2,271.295 51.22,271.85 48.21,271.68 C49.89,270.965 51.54,270.17 53.225,269.455 C51.39,268.56 49.57,267.63 47.765,266.68 C49.085,265.975 50.4,265.245 51.77,264.63 L51.77,264.63 Z" id="Shape"></path>
                    <path d="M26.545,268.06 C35.01,267.35 43.365,265.81 51.77,264.63 C50.4,265.245 49.085,265.975 47.765,266.68 C49.57,267.63 51.39,268.56 53.225,269.455 C51.54,270.17 49.89,270.965 48.21,271.68 C43.335,272.32 38.405,272.125 33.505,272.18 C25.145,272.235 16.805,271.515 8.5,270.575 C5.94,270.25 3.365,269.965 0.87,269.285 C9.435,269.08 18.02,269.05 26.545,268.06 L26.545,268.06 Z" id="Shape"></path>
                </g>
                <path d="M239.8,491.815 C242.68,491.365 245.595,491.57 248.495,491.455 C252.035,491.405 255.585,491.415 259.11,491.785 C255.095,492.36 251.035,492.13 246.995,492.135 C244.595,492.135 242.19,492.06 239.8,491.815 L239.8,491.815 Z" id="Shape" fill="#CD884B"></path>
            </g>
        </g>
    </g>
</svg>